<svg width="50" height="50" viewBox="0 0 50 50" fill="none" xmlns="http://www.w3.org/2000/svg">
<g clip-path="url(#clip0)">
<path d="M49.4261 13.8547L25.5562 0.594978C25.2121 0.399981 24.7877 0.399981 24.4436 0.594978L0.585186 13.8547C0.218134 14.0612 0.000196077 14.4397 0.000196077 14.8527V48.4265C-0.0112743 49.0459 0.481953 49.5506 1.10135 49.5506C1.11282 49.5506 1.12429 49.5506 1.12429 49.5506H48.8755C49.4949 49.5621 49.9996 49.0688 49.9996 48.4494C49.9996 48.438 49.9996 48.4265 49.9996 48.4265V14.8641C50.0111 14.4397 49.7932 14.0612 49.4261 13.8547ZM41.0642 47.268H8.9471V42.5651H41.0642V47.268ZM41.0642 40.2711H8.9471V35.9123H41.0642V40.2711ZM41.0642 33.6182H8.9471V29.2595H41.0642V33.6182ZM41.0642 26.9654H8.9471V22.6067H41.0642V26.9654ZM47.717 47.268H43.3583V21.494C43.3583 20.8632 42.888 20.3126 42.2456 20.3126H7.76565C7.13478 20.3126 6.65302 20.8632 6.65302 21.494V47.268H2.29427V15.5294L25.0056 2.90053L47.717 15.5294V47.268Z" fill="#243746" fill-opacity="0.75"/>
</g>
<defs>
<clipPath id="clip0">
<rect width="50" height="50" fill="white"/>
</clipPath>
</defs>
</svg>
