<svg width="50" height="50" viewBox="0 0 50 50" fill="none" xmlns="http://www.w3.org/2000/svg">
<g clip-path="url(#clip0)">
<path d="M49.4261 13.855L25.5562 13.855C24.5 13.855 24.9005 13.855 24 13.855H0.585186C0.218134 14.0614 0.000196077 14.44 0.000196077 14.8529V48.4267C-0.0112743 49.0461 0.481952 49.5508 1.10135 49.5508C1.11282 49.5508 1.12429 49.5508 1.12429 49.5508H48.8755C49.4949 49.5623 49.9996 49.0691 49.9996 48.4497C49.9996 48.4382 49.9996 48.4267 49.9996 48.4267V14.8644C50.0111 14.44 49.7932 14.0614 49.4261 13.855ZM41.0642 47.2682H8.9471V42.5653H41.0642V47.2682ZM41.0642 40.2713H8.9471V35.9125H41.0642V40.2713ZM41.0642 33.6185H8.9471V29.2597H41.0642V33.6185ZM41.0642 26.9656H8.9471V22.6069H41.0642V26.9656ZM47.717 47.2682H43.3583V21.4943C43.3583 20.8634 42.888 20.3128 42.2456 20.3128H7.76565C7.13478 20.3128 6.65302 20.8634 6.65302 21.4943V47.2682H2.29427V16H25.0056H47.717V47.2682Z" fill="#4C86A0"/>
</g>
<defs>
<clipPath id="clip0">
<rect width="50" height="50" fill="white"/>
</clipPath>
</defs>
</svg>
