<svg width="80" height="80" viewBox="0 0 80 80" fill="none" xmlns="http://www.w3.org/2000/svg">
<g clip-path="url(#clip0)">
<path d="M69.3252 67.3048H31.2884L36.5563 62.0369C37.3416 61.2517 37.3416 59.992 36.5563 59.2067C35.771 58.4214 34.5113 58.4214 33.726 59.2067L25.0389 67.8938C24.2536 68.6791 24.2536 69.9388 25.0389 70.7241L33.726 79.4112C34.1187 79.8038 34.6258 80.0001 35.1493 80.0001C35.6729 80.0001 36.18 79.8038 36.5727 79.4112C37.3579 78.6259 37.3579 77.3662 36.5727 76.5809L31.3048 71.313H69.3416C73.9387 71.313 77.6851 67.5666 77.6851 62.9695V17.0308C77.6851 12.4337 73.9387 8.68726 69.3416 8.68726H63.7956C62.6831 8.68726 61.7833 9.58705 61.7833 10.6995C61.7833 11.812 62.6831 12.7118 63.7956 12.7118H69.3416C71.7301 12.7118 73.6769 14.6586 73.6769 17.0472V62.9858C73.6606 65.358 71.7138 67.3048 69.3252 67.3048Z" fill="#FF4438"/>
<path d="M46.2574 0.588957C45.4722 -0.196319 44.2124 -0.196319 43.4272 0.588957C42.6419 1.37423 42.6419 2.63395 43.4272 3.41922L48.6951 8.68712H10.6583C6.06112 8.68712 2.3147 12.4335 2.3147 17.0307V62.9693C2.3147 67.5665 6.06112 71.3129 10.6583 71.3129H16.2043C17.3167 71.3129 18.2165 70.4131 18.2165 69.3006C18.2165 68.1881 17.3167 67.2883 16.2043 67.2883H10.6583C8.26971 67.2883 6.32288 65.3415 6.32288 62.953V17.0307C6.32288 14.6421 8.26971 12.6953 10.6583 12.6953H48.6951L43.4272 17.9632C42.6419 18.7485 42.6419 20.0082 43.4272 20.7935C43.8198 21.1861 44.327 21.3824 44.8505 21.3824C45.374 21.3824 45.8812 21.1861 46.2738 20.7935L54.9609 12.1063C55.3372 11.7301 55.5499 11.2229 55.5499 10.683C55.5499 10.1431 55.3372 9.63599 54.9609 9.25971L46.2574 0.588957Z" fill="#4C86A0"/>
</g>
<defs>
<clipPath id="clip0">
<rect width="80" height="80" fill="white"/>
</clipPath>
</defs>
</svg>
