<svg width="80" height="80" viewBox="0 0 80 80" fill="none" xmlns="http://www.w3.org/2000/svg">
<path d="M59.5312 51.0625H67.1562C68.2188 51.0625 69.0781 50.2031 69.0781 49.1406C69.0781 48.0781 68.2188 47.2187 67.1562 47.2187H59.5312V42.0937H73.0781C76 42.0937 78.3594 39.7187 78.3594 36.8125V31.2344C78.3594 30.1719 77.5 29.3125 76.4375 29.3125C75.375 29.3125 74.5156 30.1719 74.5156 31.2344V36.8125C74.5156 37.6094 73.8594 38.2656 73.0625 38.2656H59.5312V33.1406H67.1562C68.2188 33.1406 69.0781 32.2812 69.0781 31.2187C69.0781 30.1562 68.2188 29.2969 67.1562 29.2969H59.5312V22.25C59.5312 21.1875 58.6719 20.3281 57.6094 20.3281H50.5625V12.9375C50.5625 11.875 49.7031 11.0156 48.6406 11.0156C47.5781 11.0156 46.7188 11.875 46.7188 12.9375V20.375H41.5938V7.01562C41.5938 4.09375 39.2188 1.73438 36.3125 1.73438H30.7344C29.6719 1.73438 28.8125 2.59375 28.8125 3.65625C28.8125 4.71875 29.6719 5.5625 30.7344 5.5625H36.3125C37.1094 5.5625 37.7656 6.21875 37.7656 7.01562V20.3594H32.6406V12.9375C32.6406 11.875 31.7812 11.0156 30.7188 11.0156C29.6562 11.0156 28.7969 11.875 28.7969 12.9375V20.375H21.75C20.6875 20.375 19.8281 21.2344 19.8281 22.2969V29.3437H12.8438C11.7812 29.3437 10.9219 30.2031 10.9219 31.2656C10.9219 32.3281 11.7812 33.1875 12.8438 33.1875H19.8906V38.2812H6.92188C4 38.2812 1.64062 40.6562 1.64062 43.5625V49.1406C1.64062 50.2031 2.5 51.0625 3.54688 51.0625C4.59375 51.0625 5.46875 50.2031 5.46875 49.1562V43.5781C5.46875 42.7812 6.125 42.125 6.92188 42.125H19.875V47.25H12.8438C11.7812 47.25 10.9219 48.1094 10.9219 49.1719C10.9219 50.2344 11.7812 51.0937 12.8438 51.0937H19.8906V58.1406C19.8906 59.2031 20.75 60.0625 21.8125 60.0625H28.8594V67.1094C28.8594 68.1719 29.7188 69.0312 30.7812 69.0312C31.8438 69.0312 32.7031 68.1719 32.7031 67.1094V60.0625H37.8281V73.0156C37.8281 75.9375 40.2031 78.2969 43.1094 78.2969H48.6875C49.75 78.2969 50.6094 77.4375 50.6094 76.375C50.6094 75.3125 49.75 74.4531 48.6875 74.4531H43.1094C42.3125 74.4531 41.6562 73.7969 41.6562 73V60.0469H46.7812V67.0937C46.7812 68.1562 47.6406 69.0156 48.7031 69.0156C49.7656 69.0156 50.625 68.1562 50.625 67.0937V60.0469H57.6719C58.7344 60.0469 59.5938 59.1875 59.5938 58.125V51.0625H59.5312ZM55.7031 56.1875H23.7031V24.2031H55.7031V56.1875Z" fill="#4C86A0"/>
<path d="M30.1875 51.625H49.2344C50.2969 51.625 51.1563 50.7656 51.1563 49.7031V30.6719C51.1563 29.6094 50.2969 28.75 49.2344 28.75H30.1875C29.125 28.75 28.2656 29.6094 28.2656 30.6719V49.7187C28.2656 50.7812 29.125 51.625 30.1875 51.625ZM32.0938 32.5938H47.3125V47.8125H32.0938V32.5938Z" fill="#FF4438"/>
</svg>
