<svg width="80" height="80" viewBox="0 0 80 80" fill="none" xmlns="http://www.w3.org/2000/svg">
<g clip-path="url(#clip0)">
<path d="M79.0452 2.52755C77.9834 0.943058 76.2519 0.0119629 74.3897 0.0119629C73.6547 0.0119629 72.9359 0.158978 72.2335 0.453008L21.3337 21.3781C19.1448 22.2766 17.789 24.3838 17.8543 26.7524C17.9197 29.1209 19.4225 31.1301 21.6604 31.8979L41.3767 38.6279L48.1231 58.3442C48.9071 60.6475 50.998 62.1503 53.4483 62.1503C55.7678 62.1503 57.7607 60.8108 58.6428 58.6709L79.5679 7.77109C80.2867 6.00691 80.107 4.09571 79.0452 2.52755ZM75.8599 6.25193L54.9184 57.1518C54.5427 58.0502 53.7586 58.1482 53.4319 58.1482C53.1542 58.1482 52.2395 58.0666 51.8965 57.0538L44.8397 36.4063C44.6437 35.8183 44.1863 35.3609 43.5983 35.1649L22.9508 28.1082C21.9707 27.7651 21.8727 26.883 21.8564 26.6217C21.8564 26.3603 21.8891 25.4782 22.8528 25.0699L73.7527 4.14472C73.965 4.06304 74.1774 4.01404 74.3897 4.01404C74.9125 4.01404 75.4188 4.29173 75.7292 4.76545C75.9416 5.07581 76.1376 5.5822 75.8599 6.25193Z" fill="#4C86A0"/>
<path d="M30.0399 47.1386L2.04167 75.1368C1.25759 75.9209 1.25759 77.1787 2.04167 77.9627C2.43371 78.3548 2.9401 78.5508 3.46282 78.5508C3.98554 78.5508 4.49192 78.3548 4.88396 77.9627L32.8658 49.9645C33.6499 49.1805 33.6499 47.9227 32.8658 47.1386C32.0817 46.3545 30.8239 46.3545 30.0399 47.1386Z" fill="#FF4438"/>
<path d="M3.58855 56.4111C2.80447 57.1952 2.80447 58.453 3.58855 59.237C3.98059 59.6291 4.48697 59.8251 5.00969 59.8251C5.53241 59.8251 6.0388 59.6291 6.43084 59.237L16.5585 49.1093C17.3426 48.3253 17.3426 47.0675 16.5585 46.2834C15.7745 45.4993 14.5167 45.4993 13.7326 46.2834L3.58855 56.4111Z" fill="#4C86A0"/>
<path d="M20.7677 76.4001C21.1597 76.7922 21.6661 76.9882 22.1888 76.9882C22.7115 76.9882 23.2179 76.7922 23.61 76.4001L33.7377 66.2724C34.5217 65.4883 34.5217 64.2305 33.7377 63.4465C32.9536 62.6624 31.6958 62.6624 30.9117 63.4465L20.784 73.5742C19.9836 74.3582 19.9836 75.6324 20.7677 76.4001Z" fill="#4C86A0"/>
</g>
<defs>
<clipPath id="clip0">
<rect width="80" height="80" fill="white"/>
</clipPath>
</defs>
</svg>
