<svg width="80" height="80" viewBox="0 0 80 80" fill="none" xmlns="http://www.w3.org/2000/svg">
<path d="M30.0903 19.0811L38.7635 25.4873C39.1242 25.7621 39.5535 25.8823 39.9829 25.8823C40.4123 25.8823 40.8417 25.7449 41.2023 25.4873L49.8756 19.0811C50.408 18.6861 50.7171 18.085 50.7171 17.4151V6.32025C50.7171 5.18671 49.7897 4.25928 48.6562 4.25928H31.3268C30.1933 4.25928 29.2659 5.18671 29.2659 6.32025V17.4151C29.2659 18.0678 29.575 18.6861 30.0903 19.0811ZM33.3878 8.38122H46.6295V16.3675L40.0001 21.2623L33.3878 16.3847V8.38122Z" fill="#4C86A0"/>
<path d="M71.3783 13.0183H56.0069C54.8733 13.0183 53.9459 13.9457 53.9459 15.0793C53.9459 16.2128 54.8733 17.1403 56.0069 17.1403H71.3783C73.8686 17.1403 75.8781 19.1669 75.8781 21.64V67.1188C75.8781 69.6091 73.8514 71.6186 71.3783 71.6186H8.62173C6.13139 71.6186 4.12194 69.5919 4.12194 67.1188V21.64C4.12194 19.1497 6.14856 17.1403 8.62173 17.1403H23.976C25.1095 17.1403 26.0369 16.2128 26.0369 15.0793C26.0369 13.9457 25.1095 13.0183 23.976 13.0183H8.62173C3.86432 13.0183 0 16.8826 0 21.64V67.1188C0 71.8762 3.86432 75.7405 8.62173 75.7405H71.3783C76.1357 75.7405 80 71.8762 80 67.1188V21.64C80 16.8826 76.1357 13.0183 71.3783 13.0183Z" fill="#4C86A0"/>
<path d="M14.925 34.6071C14.925 38.5745 18.1539 41.8033 22.1213 41.8033C26.0886 41.8033 29.3175 38.5745 29.3175 34.6071C29.3175 30.6397 26.0886 27.4109 22.1213 27.4109C18.1539 27.4109 14.925 30.6397 14.925 34.6071ZM25.1956 34.6071C25.1956 36.3074 23.8216 37.6814 22.1213 37.6814C20.421 37.6814 19.047 36.3074 19.047 34.6071C19.047 32.9068 20.421 31.5328 22.1213 31.5328C23.8216 31.5328 25.1956 32.9068 25.1956 34.6071Z" fill="#FF4438"/>
<path d="M22.121 43.2803C18.0505 43.2803 14.753 45.1695 12.589 48.7418C11.0261 51.318 10.0471 54.8045 9.65209 59.0982C9.54905 60.2317 10.3906 61.2279 11.5241 61.3309C12.6577 61.434 13.6538 60.5924 13.7569 59.4589C14.4954 51.4555 17.312 47.4022 22.121 47.4022C26.9299 47.4022 29.7466 51.4555 30.4851 59.4589C30.5881 60.5237 31.4812 61.3309 32.5289 61.3309C32.5976 61.3309 32.6491 61.3309 32.7178 61.3137C33.8513 61.2107 34.6929 60.2146 34.5898 59.081C34.1948 54.7873 33.1987 51.3181 31.653 48.7247C29.4889 45.1695 26.1914 43.2803 22.121 43.2803Z" fill="#FF4438"/>
<path d="M65.4872 31.2581H42.4731C41.3395 31.2581 40.4121 32.1855 40.4121 33.319C40.4121 34.4526 41.3395 35.38 42.4731 35.38H65.4872C66.6208 35.38 67.5482 34.4526 67.5482 33.319C67.5482 32.1855 66.6208 31.2581 65.4872 31.2581Z" fill="#4C86A0"/>
<path d="M67.5482 48.0722C67.5482 46.9387 66.6208 46.0112 65.4872 46.0112H42.4731C41.3395 46.0112 40.4121 46.9387 40.4121 48.0722C40.4121 49.2057 41.3395 50.1332 42.4731 50.1332H65.4872C66.6208 50.1332 67.5482 49.2229 67.5482 48.0722Z" fill="#4C86A0"/>
<path d="M42.4731 53.3618C41.3395 53.3618 40.4121 54.2893 40.4121 55.4228C40.4121 56.5563 41.3395 57.4838 42.4731 57.4838H53.9802C55.1137 57.4838 56.0411 56.5563 56.0411 55.4228C56.0411 54.2893 55.1137 53.3618 53.9802 53.3618H42.4731Z" fill="#4C86A0"/>
<path d="M65.4872 38.6089H42.4731C41.3395 38.6089 40.4121 39.5363 40.4121 40.6699C40.4121 41.8034 41.3395 42.7308 42.4731 42.7308H65.4872C66.6208 42.7308 67.5482 41.8034 67.5482 40.6699C67.5482 39.5363 66.6208 38.6089 65.4872 38.6089Z" fill="#4C86A0"/>
</svg>
