<svg width="488" height="1490" viewBox="0 0 488 1490" fill="none" xmlns="http://www.w3.org/2000/svg">
<g clip-path="url(#clip0)">
<g clip-path="url(#clip1)">
<path d="M244 1488.43L462.911 1269.49C477.716 1254.62 486.029 1234.5 486.029 1213.52C486.029 1192.54 477.716 1172.41 462.911 1157.55L214.133 908.817C212.119 906.792 210.988 904.051 210.988 901.194C210.988 898.337 212.119 895.596 214.133 893.571L462.911 644.786C477.716 629.923 486.029 609.798 486.029 588.818C486.029 567.838 477.716 547.713 462.911 532.851L214.133 284.116C212.119 282.09 210.988 279.349 210.988 276.492C210.988 273.636 212.119 270.895 214.133 268.869L244.025 238.973" stroke="#61859D" stroke-opacity="0.1" stroke-width="3" stroke-miterlimit="10"/>
<path d="M244 1470.16L448.264 1265.88C462.087 1252 469.848 1233.21 469.848 1213.62C469.848 1194.03 462.087 1175.24 448.264 1161.36L199.635 912.505C196.631 909.492 194.943 905.411 194.943 901.157C194.943 896.902 196.631 892.821 199.635 889.809L448.364 641.074C462.191 627.204 469.956 608.417 469.956 588.831C469.956 569.245 462.191 550.457 448.364 536.587L199.61 287.828C196.606 284.816 194.919 280.735 194.919 276.48C194.919 272.225 196.606 268.144 199.61 265.132L244 220.761" stroke="#61859D" stroke-opacity="0.1" stroke-width="3" stroke-miterlimit="10"/>
<path d="M244 1451.9L433.816 1262.06C446.691 1249.18 453.923 1231.7 453.923 1213.48C453.923 1195.26 446.691 1177.79 433.816 1164.9L185.087 916.242C181.1 912.244 178.861 906.828 178.861 901.182C178.861 895.536 181.1 890.12 185.087 886.122L433.816 637.362C446.691 624.474 453.923 607 453.923 588.781C453.923 570.562 446.691 553.089 433.816 540.2L185.062 291.466C181.08 287.46 178.844 282.042 178.844 276.393C178.844 270.745 181.08 265.326 185.062 261.321L244 202.475" stroke="#61859D" stroke-opacity="0.1" stroke-width="3" stroke-miterlimit="10"/>
<path d="M244 1433.64L419.268 1258.33C431.145 1246.43 437.816 1230.3 437.816 1213.48C437.816 1196.67 431.145 1180.54 419.268 1168.64L170.54 919.979C165.569 914.991 162.777 908.236 162.777 901.194C162.777 894.152 165.569 887.397 170.54 882.41L419.268 633.65C431.139 621.746 437.806 605.619 437.806 588.806C437.806 571.993 431.139 555.867 419.268 543.962L170.515 295.227C165.544 290.24 162.752 283.485 162.752 276.443C162.752 269.401 165.544 262.646 170.515 257.658L244 184.239" stroke="#61859D" stroke-opacity="0.1" stroke-width="3" stroke-miterlimit="10"/>
<path d="M244 1415.35L404.721 1254.61C415.606 1243.7 421.72 1228.92 421.72 1213.51C421.72 1198.09 415.606 1183.31 404.721 1172.4L156.017 923.69C150.062 917.713 146.718 909.619 146.718 901.181C146.718 892.743 150.062 884.649 156.017 878.672L404.721 629.912C415.606 619.002 421.72 604.218 421.72 588.805C421.72 573.392 415.606 558.609 404.721 547.698L156.017 298.989C150.057 293.019 146.71 284.928 146.71 276.492C146.71 268.056 150.057 259.965 156.017 253.995L244 165.977" stroke="#61859D" stroke-opacity="0.1" stroke-width="3" stroke-miterlimit="10"/>
<path d="M244.001 1397.09L390.174 1250.9C400.061 1240.98 405.613 1227.54 405.613 1213.53C405.613 1199.52 400.061 1186.09 390.174 1176.16L141.445 927.453C134.507 920.49 130.611 911.061 130.611 901.232C130.611 891.402 134.507 881.973 141.445 875.01L390.174 626.201C400.061 616.278 405.613 602.84 405.613 588.831C405.613 574.822 400.061 561.384 390.174 551.461L141.42 302.726C134.52 295.769 130.648 286.367 130.648 276.567C130.648 266.768 134.52 257.366 141.42 250.408L244.001 147.666" stroke="#61859D" stroke-opacity="0.1" stroke-width="3" stroke-miterlimit="10"/>
<path d="M244 1378.83L375.651 1247.19C384.54 1238.25 389.531 1226.16 389.531 1213.56C389.531 1200.95 384.54 1188.86 375.651 1179.92L126.897 931.164C118.987 923.226 114.546 912.476 114.546 901.268C114.546 890.061 118.987 879.311 126.897 871.372L375.651 622.488C384.54 613.553 389.531 601.46 389.531 588.855C389.531 576.25 384.54 564.158 375.651 555.222L126.897 306.463C118.987 298.524 114.546 287.774 114.546 276.567C114.546 265.36 118.987 254.609 126.897 246.671L243.975 129.578" stroke="#61859D" stroke-opacity="0.1" stroke-width="3" stroke-miterlimit="10"/>
<path d="M244 1360.57L361.078 1243.48C368.988 1235.54 373.429 1224.79 373.429 1213.58C373.429 1202.38 368.988 1191.62 361.078 1183.69L112.349 934.927C103.46 925.991 98.4692 913.899 98.4692 901.294C98.4692 888.689 103.46 876.596 112.349 867.661L361.103 618.752C369.013 610.814 373.454 600.063 373.454 588.856C373.454 577.649 369.013 566.898 361.103 558.96L112.349 310.225C103.46 301.29 98.4693 289.197 98.4693 276.592C98.4693 263.987 103.46 251.895 112.349 242.959L244 111.168" stroke="#61859D" stroke-opacity="0.1" stroke-width="3" stroke-miterlimit="10"/>
<path d="M244 1342.31L346.556 1239.74C353.488 1232.78 357.379 1223.35 357.379 1213.52C357.379 1203.69 353.488 1194.26 346.556 1187.3L97.7775 938.564C87.896 928.638 82.3483 915.201 82.3483 901.194C82.3483 887.187 87.896 873.751 97.7775 863.824L346.556 615.04C353.45 608.08 357.318 598.678 357.318 588.881C357.318 579.084 353.45 569.682 346.556 562.722L97.7775 313.987C87.896 304.061 82.3484 290.624 82.3484 276.617C82.3484 262.61 87.8961 249.174 97.7775 239.247L244.001 92.8566" stroke="#61859D" stroke-opacity="0.1" stroke-width="3" stroke-miterlimit="10"/>
<path d="M244 1324.05L332.008 1236.03C337.964 1230.05 341.307 1221.96 341.307 1213.52C341.307 1205.08 337.964 1196.99 332.008 1191.01L83.2547 942.401C72.3693 931.49 66.256 916.707 66.256 901.294C66.256 885.881 72.3693 871.097 83.2547 860.187L332.008 611.328C337.964 605.35 341.307 597.256 341.307 588.818C341.307 580.38 337.964 572.286 332.008 566.309L83.2547 317.574C72.3694 306.664 66.256 291.88 66.256 276.467C66.256 261.055 72.3694 246.271 83.2547 235.361L244 74.6446" stroke="#61859D" stroke-opacity="0.1" stroke-width="3" stroke-miterlimit="10"/>
<path d="M244 1305.79L317.46 1232.29C322.43 1227.31 325.22 1220.56 325.22 1213.52C325.22 1206.48 322.43 1199.73 317.46 1194.75L68.6816 945.988C56.8045 934.087 50.1338 917.959 50.1338 901.144C50.1338 884.329 56.8045 868.202 68.6816 856.3L317.46 607.616C322.431 602.628 325.223 595.873 325.223 588.831C325.223 581.789 322.431 575.034 317.46 570.046L68.6816 321.287C56.8045 309.386 50.1338 293.258 50.1338 276.443C50.1338 259.628 56.8045 243.5 68.6816 231.599L244 56.3834" stroke="#61859D" stroke-opacity="0.1" stroke-width="3" stroke-miterlimit="10"/>
<path d="M244 1287.5L302.987 1228.58C306.974 1224.58 309.213 1219.17 309.213 1213.52C309.213 1207.87 306.974 1202.46 302.987 1198.46L54.2091 949.701C41.3402 936.809 34.1122 919.336 34.1122 901.12C34.1122 882.903 41.3402 865.43 54.2091 852.539L302.987 603.879C304.973 601.898 306.548 599.545 307.623 596.954C308.697 594.363 309.251 591.586 309.251 588.781C309.251 585.976 308.697 583.199 307.623 580.609C306.548 578.018 304.973 575.665 302.987 573.684L54.2091 324.949C41.3402 312.057 34.1123 294.585 34.1123 276.368C34.1123 258.151 41.3402 240.679 54.2091 227.787L244 38.0472" stroke="#61859D" stroke-opacity="0.1" stroke-width="3" stroke-miterlimit="10"/>
<path d="M244 1269.24L288.39 1224.87C291.394 1221.86 293.082 1217.77 293.082 1213.52C293.082 1209.27 291.394 1205.18 288.39 1202.17L39.6119 953.437C25.7891 939.56 18.028 920.77 18.028 901.181C18.028 881.593 25.7891 862.803 39.6119 848.926L288.39 600.166C291.395 597.154 293.082 593.073 293.082 588.818C293.082 584.564 291.395 580.483 288.39 577.47L39.6119 328.736C25.7892 314.858 18.028 296.068 18.028 276.48C18.028 256.892 25.7892 238.102 39.6119 224.224L243.876 19.9349" stroke="#61859D" stroke-opacity="0.1" stroke-width="3" stroke-miterlimit="10"/>
<path d="M244 1250.98L273.892 1221.08C275.907 1219.05 277.039 1216.31 277.039 1213.45C277.039 1210.58 275.907 1207.84 273.892 1205.81L25.1133 957.075C10.3079 942.212 1.99499 922.087 1.99499 901.107C1.99499 880.127 10.3079 860.002 25.1133 845.139L273.842 596.454C275.858 594.424 276.989 591.679 276.989 588.818C276.989 585.957 275.858 583.212 273.842 581.182L25.0635 332.448C10.2581 317.585 1.94518 297.46 1.94519 276.48C1.94519 255.5 10.2581 235.375 25.0635 220.512L244 1.57397" stroke="#61859D" stroke-opacity="0.1" stroke-width="3" stroke-miterlimit="10"/>
</g>
</g>
<defs>
<clipPath id="clip0">
<rect width="488" height="1490" fill="white" transform="translate(488 1490) rotate(-180)"/>
</clipPath>
<clipPath id="clip1">
<rect width="1490" height="488" fill="white" transform="translate(488 0.00012207) rotate(90)"/>
</clipPath>
</defs>
</svg>
