<svg width="488" height="1490" viewBox="0 0 488 1490" fill="none" xmlns="http://www.w3.org/2000/svg">
<g clip-path="url(#clip0)">
<g clip-path="url(#clip1)">
<path d="M244 1488.43L25.089 1269.49C10.2836 1254.62 1.97066 1234.5 1.97065 1213.52C1.97065 1192.54 10.2836 1172.41 25.089 1157.55L273.867 908.817C275.881 906.792 277.012 904.051 277.012 901.194C277.012 898.337 275.881 895.596 273.867 893.571L25.089 644.786C10.2836 629.923 1.97063 609.798 1.97063 588.818C1.97063 567.838 10.2836 547.713 25.089 532.851L273.867 284.116C275.881 282.09 277.012 279.349 277.012 276.492C277.012 273.636 275.881 270.895 273.867 268.869L243.975 238.973" stroke="#61859D" stroke-opacity="0.1" stroke-width="3" stroke-miterlimit="10"/>
<path d="M244 1470.16L39.7361 1265.88C25.9134 1252 18.1523 1233.21 18.1523 1213.62C18.1523 1194.03 25.9134 1175.24 39.7361 1161.36L288.365 912.505C291.369 909.492 293.057 905.411 293.057 901.157C293.057 896.902 291.369 892.821 288.365 889.809L39.6365 641.074C25.8092 627.204 18.0445 608.417 18.0445 588.831C18.0445 569.245 25.8092 550.457 39.6365 536.587L288.39 287.828C291.394 284.816 293.081 280.735 293.081 276.48C293.081 272.225 291.394 268.144 288.39 265.132L244 220.761" stroke="#61859D" stroke-opacity="0.1" stroke-width="3" stroke-miterlimit="10"/>
<path d="M244 1451.9L54.1844 1262.06C41.3093 1249.18 34.0772 1231.7 34.0772 1213.48C34.0772 1195.26 41.3093 1177.79 54.1844 1164.9L302.913 916.242C306.9 912.244 309.139 906.828 309.139 901.182C309.139 895.536 306.9 890.12 302.913 886.122L54.1843 637.362C41.3093 624.474 34.0772 607 34.0772 588.781C34.0772 570.562 41.3093 553.089 54.1843 540.2L302.938 291.466C306.92 287.46 309.156 282.042 309.156 276.393C309.156 270.745 306.92 265.326 302.938 261.321L244 202.475" stroke="#61859D" stroke-opacity="0.1" stroke-width="3" stroke-miterlimit="10"/>
<path d="M244 1433.64L68.7317 1258.33C56.8545 1246.43 50.1839 1230.3 50.1839 1213.48C50.1839 1196.67 56.8545 1180.54 68.7317 1168.64L317.46 919.979C322.431 914.991 325.223 908.236 325.223 901.194C325.223 894.152 322.431 887.397 317.46 882.41L68.7317 633.65C56.8606 621.746 50.1941 605.619 50.1941 588.806C50.1941 571.993 56.8606 555.867 68.7317 543.962L317.485 295.227C322.456 290.24 325.248 283.485 325.248 276.443C325.248 269.401 322.456 262.646 317.485 257.658L244 184.239" stroke="#61859D" stroke-opacity="0.1" stroke-width="3" stroke-miterlimit="10"/>
<path d="M244 1415.35L83.2791 1254.61C72.3937 1243.7 66.2804 1228.92 66.2804 1213.51C66.2804 1198.09 72.3937 1183.31 83.2791 1172.4L331.983 923.69C337.938 917.713 341.282 909.619 341.282 901.181C341.282 892.743 337.938 884.649 331.983 878.672L83.2791 629.912C72.3937 619.002 66.2803 604.218 66.2803 588.805C66.2803 573.392 72.3937 558.609 83.2791 547.698L331.983 298.989C337.943 293.019 341.29 284.928 341.29 276.492C341.29 268.056 337.943 259.965 331.983 253.995L244 165.977" stroke="#61859D" stroke-opacity="0.1" stroke-width="3" stroke-miterlimit="10"/>
<path d="M243.999 1397.09L97.8262 1250.9C87.9387 1240.98 82.3868 1227.54 82.3868 1213.53C82.3868 1199.52 87.9387 1186.09 97.8262 1176.16L346.555 927.453C353.493 920.49 357.389 911.061 357.389 901.232C357.389 891.402 353.493 881.973 346.555 875.01L97.8262 626.201C87.9387 616.278 82.3868 602.84 82.3868 588.831C82.3868 574.822 87.9387 561.384 97.8262 551.461L346.58 302.726C353.48 295.769 357.352 286.367 357.352 276.567C357.352 266.768 353.48 257.366 346.58 250.408L243.999 147.666" stroke="#61859D" stroke-opacity="0.1" stroke-width="3" stroke-miterlimit="10"/>
<path d="M244 1378.83L112.349 1247.19C103.46 1238.25 98.4692 1226.16 98.4692 1213.56C98.4692 1200.95 103.46 1188.86 112.349 1179.92L361.103 931.164C369.013 923.226 373.454 912.476 373.454 901.268C373.454 890.061 369.013 879.311 361.103 871.372L112.349 622.488C103.46 613.553 98.4692 601.46 98.4692 588.855C98.4692 576.25 103.46 564.158 112.349 555.222L361.103 306.463C369.013 298.524 373.454 287.774 373.454 276.567C373.454 265.36 369.013 254.609 361.103 246.671L244.025 129.578" stroke="#61859D" stroke-opacity="0.1" stroke-width="3" stroke-miterlimit="10"/>
<path d="M244 1360.57L126.922 1243.48C119.012 1235.54 114.571 1224.79 114.571 1213.58C114.571 1202.38 119.012 1191.62 126.922 1183.69L375.651 934.927C384.54 925.991 389.531 913.899 389.531 901.294C389.531 888.689 384.54 876.596 375.651 867.661L126.897 618.752C118.987 610.814 114.546 600.063 114.546 588.856C114.546 577.649 118.987 566.898 126.897 558.96L375.651 310.225C384.54 301.29 389.531 289.197 389.531 276.592C389.531 263.987 384.54 251.895 375.651 242.959L244 111.168" stroke="#61859D" stroke-opacity="0.1" stroke-width="3" stroke-miterlimit="10"/>
<path d="M243.999 1342.31L141.444 1239.74C134.512 1232.78 130.621 1223.35 130.621 1213.52C130.621 1203.69 134.512 1194.26 141.444 1187.3L390.223 938.564C400.104 928.638 405.652 915.201 405.652 901.194C405.652 887.187 400.104 873.751 390.223 863.824L141.444 615.04C134.55 608.08 130.682 598.678 130.682 588.881C130.682 579.084 134.55 569.682 141.444 562.722L390.223 313.987C400.104 304.061 405.652 290.624 405.652 276.617C405.652 262.61 400.104 249.174 390.223 239.247L243.999 92.8566" stroke="#61859D" stroke-opacity="0.1" stroke-width="3" stroke-miterlimit="10"/>
<path d="M244 1324.05L155.992 1236.03C150.036 1230.05 146.693 1221.96 146.693 1213.52C146.693 1205.08 150.036 1196.99 155.992 1191.01L404.745 942.401C415.631 931.49 421.744 916.707 421.744 901.294C421.744 885.881 415.631 871.097 404.745 860.187L155.992 611.328C150.036 605.35 146.693 597.256 146.693 588.818C146.693 580.38 150.036 572.286 155.992 566.309L404.745 317.574C415.631 306.664 421.744 291.88 421.744 276.467C421.744 261.055 415.631 246.271 404.745 235.361L244 74.6446" stroke="#61859D" stroke-opacity="0.1" stroke-width="3" stroke-miterlimit="10"/>
<path d="M244 1305.79L170.54 1232.29C165.57 1227.31 162.78 1220.56 162.78 1213.52C162.78 1206.48 165.57 1199.73 170.54 1194.75L419.318 945.988C431.196 934.087 437.866 917.959 437.866 901.144C437.866 884.329 431.196 868.202 419.318 856.3L170.54 607.616C165.569 602.628 162.777 595.873 162.777 588.831C162.777 581.789 165.569 575.034 170.54 570.046L419.318 321.287C431.196 309.386 437.866 293.258 437.866 276.443C437.866 259.628 431.196 243.5 419.318 231.599L244 56.3834" stroke="#61859D" stroke-opacity="0.1" stroke-width="3" stroke-miterlimit="10"/>
<path d="M244 1287.5L185.013 1228.58C181.026 1224.58 178.787 1219.17 178.787 1213.52C178.787 1207.87 181.026 1202.46 185.013 1198.46L433.791 949.701C446.66 936.809 453.888 919.336 453.888 901.12C453.888 882.903 446.66 865.43 433.791 852.539L185.013 603.879C183.027 601.898 181.452 599.545 180.377 596.954C179.303 594.363 178.749 591.586 178.749 588.781C178.749 585.976 179.303 583.199 180.377 580.609C181.452 578.018 183.027 575.665 185.013 573.684L433.791 324.949C446.66 312.057 453.888 294.585 453.888 276.368C453.888 258.151 446.66 240.679 433.791 227.787L244 38.0472" stroke="#61859D" stroke-opacity="0.1" stroke-width="3" stroke-miterlimit="10"/>
<path d="M244 1269.24L199.61 1224.87C196.606 1221.86 194.918 1217.77 194.918 1213.52C194.918 1209.27 196.605 1205.18 199.61 1202.17L448.388 953.437C462.211 939.56 469.972 920.77 469.972 901.181C469.972 881.593 462.211 862.803 448.388 848.926L199.61 600.166C196.605 597.154 194.918 593.073 194.918 588.818C194.918 584.564 196.605 580.483 199.61 577.47L448.388 328.736C462.211 314.858 469.972 296.068 469.972 276.48C469.972 256.892 462.211 238.102 448.388 224.224L244.124 19.9349" stroke="#61859D" stroke-opacity="0.1" stroke-width="3" stroke-miterlimit="10"/>
<path d="M244 1250.98L214.108 1221.08C212.093 1219.05 210.961 1216.31 210.961 1213.45C210.961 1210.58 212.093 1207.84 214.108 1205.81L462.887 957.075C477.692 942.212 486.005 922.087 486.005 901.107C486.005 880.127 477.692 860.002 462.887 845.139L214.158 596.454C212.142 594.424 211.011 591.679 211.011 588.818C211.011 585.957 212.142 583.212 214.158 581.182L462.936 332.448C477.742 317.585 486.055 297.46 486.055 276.48C486.055 255.5 477.742 235.375 462.936 220.512L244 1.57397" stroke="#61859D" stroke-opacity="0.1" stroke-width="3" stroke-miterlimit="10"/>
</g>
</g>
<defs>
<clipPath id="clip0">
<rect width="488" height="1490" fill="white" transform="matrix(1 -8.74228e-08 -8.74228e-08 -1 0 1490)"/>
</clipPath>
<clipPath id="clip1">
<rect width="1490" height="488" fill="white" transform="matrix(4.37114e-08 1 1 -4.37114e-08 -3.05176e-05 0.00012207)"/>
</clipPath>
</defs>
</svg>
