<svg width="554" height="709" viewBox="0 0 554 709" fill="none" xmlns="http://www.w3.org/2000/svg">
<g clip-path="url(#clip0)">
<g clip-path="url(#clip1)">
<path d="M277 1020.21L525.518 771.889C542.326 755.031 551.763 732.204 551.763 708.408C551.763 684.612 542.326 661.786 525.518 644.928L243.093 362.806C240.807 360.508 239.523 357.4 239.523 354.16C239.523 350.919 240.807 347.811 243.093 345.513L525.518 63.3345C542.326 46.4766 551.763 23.6502 551.763 -0.14581C551.763 -23.9419 542.326 -46.7682 525.518 -63.626L243.093 -345.748C240.807 -348.046 239.523 -351.154 239.523 -354.395C239.523 -357.635 240.807 -360.744 243.093 -363.041L277.028 -396.95" stroke="#61859D" stroke-opacity="0.15" stroke-width="3" stroke-miterlimit="10"/>
<path d="M277 999.502L508.89 767.791C524.582 752.051 533.393 730.739 533.393 708.521C533.393 686.304 524.582 664.992 508.89 649.251L226.635 366.988C223.224 363.572 221.309 358.943 221.309 354.117C221.309 349.291 223.224 344.663 226.635 341.246L509.003 59.124C524.7 43.3923 533.515 22.0834 533.515 -0.131728C533.515 -22.3469 524.7 -43.6558 509.003 -59.3875L226.606 -341.538C223.196 -344.954 221.28 -349.583 221.28 -354.409C221.28 -359.235 223.196 -363.863 226.606 -367.28L277 -417.606" stroke="#61859D" stroke-opacity="0.15" stroke-width="3" stroke-miterlimit="10"/>
<path d="M277 978.79L492.487 763.468C507.104 748.85 515.314 729.031 515.314 708.366C515.314 687.702 507.104 667.883 492.487 653.264L210.119 371.227C205.593 366.693 203.051 360.55 203.051 354.146C203.051 347.741 205.593 341.599 210.119 337.064L492.487 54.914C507.104 40.2954 515.314 20.4764 515.314 -0.187915C515.314 -20.8522 507.104 -40.6712 492.487 -55.2898L210.091 -337.412C205.57 -341.955 203.032 -348.101 203.032 -354.507C203.032 -360.914 205.57 -367.06 210.091 -371.603L277 -438.347" stroke="#61859D" stroke-opacity="0.15" stroke-width="3" stroke-miterlimit="10"/>
<path d="M277 958.077L475.973 759.229C489.456 745.731 497.029 727.438 497.029 708.366C497.029 689.294 489.456 671.001 475.973 657.503L193.604 375.466C187.961 369.809 184.792 362.147 184.792 354.16C184.792 346.172 187.961 338.51 193.604 332.854L475.973 50.7035C489.449 37.2012 497.017 18.9098 497.017 -0.15984C497.017 -19.2295 489.449 -37.5209 475.973 -51.0232L193.576 -333.145C187.933 -338.802 184.764 -346.464 184.764 -354.451C184.764 -362.439 187.933 -370.1 193.576 -375.757L277 -459.032" stroke="#61859D" stroke-opacity="0.15" stroke-width="3" stroke-miterlimit="10"/>
<path d="M277 937.335L459.458 755.019C471.815 742.644 478.755 725.876 478.755 708.394C478.755 690.912 471.815 674.144 459.458 661.769L177.118 379.676C170.357 372.896 166.561 363.716 166.561 354.145C166.561 344.574 170.357 335.394 177.118 328.615L459.458 46.4645C471.815 34.0895 478.755 17.3216 478.755 -0.160178C478.755 -17.642 471.815 -34.4099 459.458 -46.7849L177.118 -328.878C170.352 -335.649 166.552 -344.827 166.552 -354.395C166.552 -363.963 170.352 -373.14 177.118 -379.911L277 -479.745" stroke="#61859D" stroke-opacity="0.15" stroke-width="3" stroke-miterlimit="10"/>
<path d="M277.001 916.623L442.943 750.809C454.168 739.554 460.471 724.312 460.471 708.423C460.471 692.533 454.168 677.292 442.943 666.037L160.575 383.943C152.699 376.046 148.276 365.351 148.276 354.202C148.276 343.053 152.699 332.358 160.575 324.461L442.943 42.2545C454.168 30.9995 460.471 15.7578 460.471 -0.13161C460.471 -16.0211 454.168 -31.2628 442.943 -42.5177L160.547 -324.64C152.713 -332.531 148.318 -343.195 148.318 -354.31C148.318 -365.425 152.713 -376.089 160.547 -383.98L277.001 -500.514" stroke="#61859D" stroke-opacity="0.15" stroke-width="3" stroke-miterlimit="10"/>
<path d="M277 895.91L426.456 746.598C436.548 736.463 442.213 722.747 442.213 708.45C442.213 694.153 436.548 680.438 426.456 670.303L144.06 388.153C135.08 379.149 130.038 366.955 130.038 354.244C130.038 341.532 135.08 329.339 144.06 320.335L426.456 38.0436C436.548 27.9087 442.213 14.1932 442.213 -0.103867C442.213 -14.401 436.548 -28.1164 426.456 -38.2513L144.06 -320.401C135.08 -329.405 130.038 -341.599 130.038 -354.31C130.038 -367.022 135.08 -379.215 144.06 -388.219L276.972 -521.029" stroke="#61859D" stroke-opacity="0.15" stroke-width="3" stroke-miterlimit="10"/>
<path d="M277 875.198L409.912 742.388C418.892 733.384 423.934 721.191 423.934 708.479C423.934 695.768 418.892 683.575 409.912 674.571L127.544 392.42C117.452 382.286 111.787 368.57 111.787 354.273C111.787 339.976 117.452 326.26 127.544 316.126L409.941 33.8059C418.92 24.8019 423.963 12.6086 423.963 -0.10296C423.963 -12.8145 418.92 -25.0079 409.941 -34.0118L127.544 -316.134C117.452 -326.269 111.787 -339.984 111.787 -354.281C111.787 -368.578 117.452 -382.294 127.544 -392.429L277 -541.91" stroke="#61859D" stroke-opacity="0.15" stroke-width="3" stroke-miterlimit="10"/>
<path d="M277.001 854.486L393.426 738.15C401.296 730.249 405.713 719.556 405.713 708.409C405.713 697.262 401.296 686.569 393.426 678.668L111.001 396.546C99.7836 385.287 93.4856 370.047 93.4856 354.16C93.4856 338.273 99.7836 323.032 111.001 311.774L393.426 29.5955C401.253 21.7007 405.643 11.0376 405.643 -0.0748166C405.643 -11.1873 401.253 -21.8503 393.426 -29.7451L111.001 -311.867C99.7836 -323.126 93.4856 -338.366 93.4856 -354.253C93.4856 -370.14 99.7836 -385.381 111.001 -396.639L277.001 -562.68" stroke="#61859D" stroke-opacity="0.15" stroke-width="3" stroke-miterlimit="10"/>
<path d="M277 833.773L376.911 733.939C383.672 727.16 387.468 717.979 387.468 708.409C387.468 698.838 383.672 689.658 376.911 682.878L94.5145 400.897C82.1569 388.523 75.2168 371.755 75.2168 354.273C75.2168 336.791 82.1569 320.023 94.5145 307.648L376.911 25.3849C383.672 18.6055 387.468 9.42502 387.468 -0.145632C387.468 -9.71628 383.672 -18.8968 376.911 -25.6762L94.5145 -307.798C82.1569 -320.173 75.2168 -336.941 75.2168 -354.423C75.2168 -371.905 82.1569 -388.673 94.5145 -401.047L277 -583.336" stroke="#61859D" stroke-opacity="0.15" stroke-width="3" stroke-miterlimit="10"/>
<path d="M277 813.06L360.395 729.701C366.037 724.049 369.205 716.392 369.205 708.409C369.205 700.426 366.037 692.769 360.395 687.117L77.9705 404.967C64.487 391.468 56.9141 373.175 56.9141 354.103C56.9141 335.032 64.487 316.739 77.9705 303.24L360.395 21.1747C366.039 15.5179 369.208 7.85616 369.208 -0.131315C369.208 -8.11879 366.039 -15.7805 360.395 -21.4374L77.9705 -303.587C64.487 -317.086 56.9142 -335.379 56.9142 -354.451C56.9142 -373.523 64.487 -391.815 77.9705 -405.314L277 -604.048" stroke="#61859D" stroke-opacity="0.15" stroke-width="3" stroke-miterlimit="10"/>
<path d="M277 792.319L343.965 725.491C348.491 720.956 351.033 714.813 351.033 708.409C351.033 702.005 348.491 695.862 343.965 691.327L61.5406 409.177C46.9312 394.555 38.7257 374.737 38.7257 354.075C38.7257 333.413 46.9312 313.596 61.5406 298.973L343.965 16.9363C346.219 14.6895 348.007 12.0205 349.227 9.08206C350.447 6.14366 351.076 2.99362 351.076 -0.187656C351.076 -3.36894 350.447 -6.51898 349.227 -9.45737C348.007 -12.3958 346.219 -15.0648 343.965 -17.3116L61.5406 -299.434C46.9312 -314.056 38.7257 -333.873 38.7257 -354.535C38.7257 -375.197 46.9312 -395.015 61.5406 -409.637L277 -624.846" stroke="#61859D" stroke-opacity="0.15" stroke-width="3" stroke-miterlimit="10"/>
<path d="M277 771.606L327.394 721.279C330.804 717.863 332.72 713.234 332.72 708.408C332.72 703.582 330.804 698.953 327.394 695.537L44.9691 413.415C29.2769 397.675 20.4661 376.363 20.4661 354.145C20.4661 331.928 29.2769 310.615 44.9691 294.875L327.394 12.7251C330.804 9.30844 332.72 4.67963 332.72 -0.146131C332.72 -4.97189 330.804 -9.60066 327.394 -13.0174L44.9692 -295.139C29.277 -310.879 20.4662 -332.192 20.4662 -354.409C20.4662 -376.627 29.277 -397.939 44.9692 -413.679L276.859 -645.39" stroke="#61859D" stroke-opacity="0.15" stroke-width="3" stroke-miterlimit="10"/>
<path d="M276.999 750.893L310.935 716.985C313.223 714.682 314.507 711.569 314.507 708.324C314.507 705.079 313.223 701.966 310.935 699.663L28.5097 417.541C11.702 400.683 2.26475 377.857 2.26475 354.061C2.26475 330.265 11.702 307.438 28.5097 290.581L310.878 8.5152C313.166 6.21257 314.45 3.09925 314.45 -0.145695C314.45 -3.39064 313.166 -6.50396 310.878 -8.80659L28.4532 -290.928C11.6454 -307.786 2.20821 -330.613 2.20821 -354.409C2.20821 -378.205 11.6454 -401.031 28.4532 -417.889L276.999 -666.215" stroke="#61859D" stroke-opacity="0.15" stroke-width="3" stroke-miterlimit="10"/>
</g>
</g>
<defs>
<clipPath id="clip0">
<rect width="554" height="709" fill="white" transform="translate(554 709) rotate(-180)"/>
</clipPath>
<clipPath id="clip1">
<rect width="1690" height="554" fill="white" transform="translate(554 -668) rotate(90)"/>
</clipPath>
</defs>
</svg>
