<svg width="13" height="354" viewBox="0 0 13 354" fill="none" xmlns="http://www.w3.org/2000/svg">
<path d="M5.17 348.066L0 353.236H3.44L6.49 350.236L9.55 353.236H13L7.83 348.066C7.6554 347.891 7.44807 347.753 7.21986 347.658C6.99165 347.563 6.74704 347.515 6.5 347.515C6.25296 347.515 6.00835 347.563 5.78014 347.658C5.55193 347.753 5.3446 347.891 5.17 348.066V348.066Z" fill="#75858F"/>
<path d="M5.17 326.345L0 331.515H3.44L6.49 328.515L9.55 331.515H13L7.83 326.335C7.47353 325.988 6.99529 325.795 6.49796 325.796C6.00063 325.798 5.52385 325.995 5.17 326.345V326.345Z" fill="#75858F"/>
<path d="M5.17 304.626L0 309.796H3.44L6.49 306.746L9.55 309.796H13L7.83 304.626C7.6554 304.452 7.44807 304.313 7.21986 304.218C6.99165 304.124 6.74704 304.075 6.5 304.075C6.25296 304.075 6.00835 304.124 5.78014 304.218C5.55193 304.313 5.3446 304.452 5.17 304.626V304.626Z" fill="#75858F"/>
<path d="M5.17 282.905L0 288.075H3.44L6.49 285.025L9.55 288.075H13L7.83 282.905C7.6554 282.731 7.44807 282.592 7.21986 282.497C6.99165 282.403 6.74704 282.354 6.5 282.354C6.25296 282.354 6.00835 282.403 5.78014 282.497C5.55193 282.592 5.3446 282.731 5.17 282.905V282.905Z" fill="#75858F"/>
<path d="M5.17 261.184L0 266.354H3.44L6.49 263.294L9.55 266.354H13L7.83 261.184C7.6554 261.009 7.44807 260.871 7.21986 260.776C6.99165 260.682 6.74704 260.633 6.5 260.633C6.25296 260.633 6.00835 260.682 5.78014 260.776C5.55193 260.871 5.3446 261.009 5.17 261.184V261.184Z" fill="#75858F"/>
<path d="M5.17 239.463L0 244.633H3.44L6.49 241.633L9.55 244.633H13L7.83 239.463C7.6554 239.288 7.44807 239.149 7.21986 239.055C6.99165 238.96 6.74704 238.912 6.5 238.912C6.25296 238.912 6.00835 238.96 5.78014 239.055C5.55193 239.149 5.3446 239.288 5.17 239.463V239.463Z" fill="#75858F"/>
<path d="M5.17 217.742L0 222.912H3.44L6.49 219.852L9.55 222.912H13L7.82 217.732C7.46522 217.385 6.98864 217.192 6.49295 217.194C5.99727 217.196 5.52216 217.393 5.17 217.742V217.742Z" fill="#75858F"/>
<path d="M5.17 196.024L0 201.194H3.44L6.49 198.144L9.55 201.194H13L7.83 196.024C7.6554 195.85 7.44807 195.711 7.21986 195.616C6.99165 195.522 6.74704 195.473 6.5 195.473C6.25296 195.473 6.00835 195.522 5.78014 195.616C5.55193 195.711 5.3446 195.85 5.17 196.024V196.024Z" fill="#75858F"/>
<path d="M5.17 174.293L0 179.473H3.44L6.49 176.413L9.55 179.473H13L7.83 174.293C7.47609 173.943 6.99812 173.746 6.5 173.746C6.00188 173.746 5.52391 173.943 5.17 174.293V174.293Z" fill="#75858F"/>
<path d="M5.17 152.576L0 157.746H3.44L6.49 154.686L9.55 157.746H13L7.83 152.576C7.6554 152.401 7.44807 152.263 7.21986 152.168C6.99165 152.073 6.74704 152.025 6.5 152.025C6.25296 152.025 6.00835 152.073 5.78014 152.168C5.55193 152.263 5.3446 152.401 5.17 152.576V152.576Z" fill="#75858F"/>
<path d="M5.17 130.855L0 136.025H3.44L6.49 133.025L9.55 136.025H13L7.83 130.855C7.6554 130.68 7.44807 130.541 7.21986 130.447C6.99165 130.352 6.74704 130.303 6.5 130.303C6.25296 130.303 6.00835 130.352 5.78014 130.447C5.55193 130.541 5.3446 130.68 5.17 130.855V130.855Z" fill="#75858F"/>
<path d="M5.17 109.153L0 114.303H3.44L6.49 111.243L9.55 114.303H13L7.82 109.153C7.46779 108.804 6.99147 108.607 6.495 108.607C5.99853 108.607 5.52221 108.804 5.17 109.153V109.153Z" fill="#75858F"/>
<path d="M5.17 87.4372L0 92.6072H3.44L6.49 89.6072L9.55 92.6072H13L7.82 87.4372C7.46779 87.0873 6.99147 86.8909 6.495 86.8909C5.99853 86.8909 5.52221 87.0873 5.17 87.4372V87.4372Z" fill="#75858F"/>
<path d="M5.17 65.6908L0 70.8908H3.44L6.49 67.8308L9.55 70.8908H13L7.82 65.6908C7.46529 65.3457 6.98991 65.1526 6.495 65.1526C6.00009 65.1526 5.52471 65.3457 5.17 65.6908V65.6908Z" fill="#75858F"/>
<path d="M5.17 43.9826L0 49.1526H3.44L6.49 46.0926L9.55 49.1526H13L7.82 43.9826C7.46779 43.6327 6.99147 43.4363 6.495 43.4363C5.99853 43.4363 5.52221 43.6327 5.17 43.9826V43.9826Z" fill="#75858F"/>
<path d="M5.17 22.2663L0 27.4363H3.44L6.49 24.3863L9.55 27.4363H13L7.82 22.2663C7.46779 21.9164 6.99147 21.72 6.495 21.72C5.99853 21.72 5.52221 21.9164 5.17 22.2663V22.2663Z" fill="#75858F"/>
<path d="M5.17 0.549955L0 5.71995H3.44L6.49 2.65996L9.55 5.71995H13L7.82 0.549955C7.46779 0.200046 6.99147 0.00366211 6.495 0.00366211C5.99853 0.00366211 5.52221 0.200046 5.17 0.549955V0.549955Z" fill="#75858F"/>
</svg>
