<svg width="1175" height="919" viewBox="0 0 1175 919" fill="none" xmlns="http://www.w3.org/2000/svg">
<g clip-path="url(#clip0)">
<path d="M1693.04 459.5L1280.73 47.2478C1252.74 19.3663 1214.84 3.71143 1175.33 3.71143C1135.82 3.71143 1097.92 19.3663 1069.93 47.2478L601.505 515.747C597.689 519.539 592.528 521.668 587.148 521.668C581.768 521.668 576.606 519.539 572.791 515.747L104.275 47.2478C76.2849 19.3663 38.385 3.71143 -1.12492 3.71143C-40.6348 3.71143 -78.5346 19.3663 -106.525 47.2478L-574.947 515.747C-578.762 519.539 -583.924 521.668 -589.304 521.668C-594.684 521.668 -599.845 519.539 -603.66 515.747L-659.961 459.454" stroke="#61859D" stroke-opacity="0.1" stroke-width="5" stroke-miterlimit="10"/>
<path d="M1658.65 459.5L1273.92 74.831C1247.79 48.8 1212.4 34.1844 1175.51 34.1844C1138.63 34.1844 1103.24 48.8 1077.11 74.831L608.449 543.048C602.776 548.706 595.09 551.883 587.078 551.883C579.065 551.883 571.38 548.706 565.707 543.048L97.2845 74.6433C71.1643 48.6038 35.784 33.9814 -1.10103 33.9814C-37.9861 33.9814 -73.3664 48.6038 -99.4866 74.6433L-567.956 543.095C-573.629 548.753 -581.314 551.93 -589.327 551.93C-597.339 551.93 -605.025 548.753 -610.698 543.095L-694.257 459.5" stroke="#61859D" stroke-opacity="0.1" stroke-width="5" stroke-miterlimit="10"/>
<path d="M1624.26 459.5L1266.75 102.039C1242.47 77.7928 1209.57 64.1733 1175.26 64.1733C1140.95 64.1733 1108.04 77.7928 1083.77 102.039L615.487 570.444C607.958 577.952 597.758 582.169 587.125 582.169C576.492 582.169 566.292 577.952 558.763 570.444L90.294 102.039C66.0218 77.7928 33.1152 64.1733 -1.19481 64.1733C-35.5049 64.1733 -68.4114 77.7928 -92.6836 102.039L-561.106 570.491C-568.649 577.99 -578.854 582.2 -589.491 582.2C-600.128 582.2 -610.333 577.99 -617.876 570.491L-728.695 459.5" stroke="#61859D" stroke-opacity="0.1" stroke-width="5" stroke-miterlimit="10"/>
<path d="M1589.86 459.499L1259.71 129.435C1237.29 107.067 1206.92 94.5054 1175.26 94.5054C1143.59 94.5054 1113.22 107.067 1090.81 129.435L622.523 597.84C613.131 607.201 600.41 612.458 587.148 612.458C573.886 612.458 561.165 607.201 551.772 597.84L83.3028 129.435C60.8842 107.079 30.514 94.5247 -1.14831 94.5247C-32.8107 94.5247 -63.1809 107.079 -85.5995 129.435L-554.022 597.886C-563.414 607.248 -576.136 612.505 -589.398 612.505C-602.66 612.505 -615.381 607.248 -624.773 597.886L-763.039 459.499" stroke="#61859D" stroke-opacity="0.1" stroke-width="5" stroke-miterlimit="10"/>
<path d="M1555.43 459.5L1252.72 156.831C1232.17 136.332 1204.33 124.819 1175.3 124.819C1146.28 124.819 1118.44 136.332 1097.89 156.831L629.514 625.189C618.258 636.404 603.015 642.702 587.124 642.702C571.234 642.702 555.991 636.404 544.735 625.189L76.2653 156.831C55.7185 136.332 27.8778 124.819 -1.1482 124.819C-30.1742 124.819 -58.0149 136.332 -78.5618 156.831L-546.937 625.189C-558.179 636.413 -573.417 642.717 -589.304 642.717C-605.19 642.717 -620.428 636.413 -631.67 625.189L-797.429 459.5" stroke="#61859D" stroke-opacity="0.1" stroke-width="5" stroke-miterlimit="10"/>
<path d="M1521.04 459.5L1245.73 184.227C1227.04 165.607 1201.73 155.151 1175.35 155.151C1148.97 155.151 1123.66 165.607 1104.97 184.227L636.599 652.632C623.487 665.697 605.73 673.034 587.219 673.034C568.707 673.034 550.95 665.697 537.838 652.632L69.2748 184.227C50.5876 165.607 25.2809 155.151 -1.10119 155.151C-27.4833 155.151 -52.7899 165.607 -71.4772 184.227L-539.9 652.679C-553.002 665.673 -570.709 672.964 -589.163 672.964C-607.617 672.964 -625.324 665.673 -638.426 652.679L-831.913 459.5" stroke="#61859D" stroke-opacity="0.1" stroke-width="5" stroke-miterlimit="10"/>
<path d="M1486.65 459.5L1238.74 211.576C1221.91 194.835 1199.14 185.437 1175.4 185.437C1151.66 185.437 1128.89 194.835 1112.06 211.576L643.589 680.028C628.64 694.924 608.394 703.288 587.289 703.288C566.183 703.288 545.938 694.924 530.988 680.028L62.2839 211.576C45.4563 194.835 22.6838 185.437 -1.05447 185.437C-24.7927 185.437 -47.5653 194.835 -64.3928 211.576L-532.862 680.028C-547.812 694.924 -568.057 703.288 -589.163 703.288C-610.268 703.288 -630.514 694.924 -645.464 680.028L-865.975 459.547" stroke="#61859D" stroke-opacity="0.1" stroke-width="5" stroke-miterlimit="10"/>
<path d="M1452.26 459.5L1231.74 239.019C1216.8 224.123 1196.55 215.758 1175.44 215.758C1154.34 215.758 1134.09 224.123 1119.14 239.019L650.674 707.424C633.846 724.165 611.074 733.563 587.336 733.563C563.597 733.563 540.825 724.165 523.997 707.424L55.2464 238.972C40.2966 224.076 20.0513 215.711 -1.05437 215.711C-22.1601 215.711 -42.4054 224.076 -57.3551 238.972L-525.777 707.424C-542.605 724.165 -565.378 733.563 -589.116 733.563C-612.854 733.563 -635.627 724.165 -652.454 707.424L-900.647 459.5" stroke="#61859D" stroke-opacity="0.1" stroke-width="5" stroke-miterlimit="10"/>
<path d="M1417.87 459.5L1224.71 266.368C1211.59 253.314 1193.83 245.985 1175.33 245.985C1156.82 245.985 1139.06 253.314 1125.95 266.368L657.524 734.867C638.831 753.476 613.526 763.923 587.148 763.923C560.77 763.923 535.465 753.476 516.772 734.867L48.2558 266.368C35.1477 253.385 17.4432 246.102 -1.00734 246.102C-19.4579 246.102 -37.1624 253.385 -50.2705 266.368L-518.693 734.867C-537.386 753.476 -562.691 763.923 -589.069 763.923C-615.447 763.923 -640.752 753.476 -659.445 734.867L-935.131 459.5" stroke="#61859D" stroke-opacity="0.1" stroke-width="5" stroke-miterlimit="10"/>
<path d="M1383.48 459.5L1217.72 293.764C1206.46 282.549 1191.22 276.251 1175.33 276.251C1159.44 276.251 1144.19 282.549 1132.94 293.764L664.749 762.216C644.203 782.715 616.362 794.228 587.336 794.228C558.31 794.228 530.469 782.715 509.922 762.216L41.2653 293.764C30.0091 282.549 14.7662 276.251 -1.12452 276.251C-17.0152 276.251 -32.2581 282.549 -43.5143 293.764L-511.937 762.216C-532.484 782.715 -560.324 794.228 -589.35 794.228C-618.376 794.228 -646.217 782.715 -666.764 762.216L-969.427 459.5" stroke="#61859D" stroke-opacity="0.1" stroke-width="5" stroke-miterlimit="10"/>
<path d="M1349.08 459.5L1210.68 321.16C1201.29 311.801 1188.58 306.546 1175.33 306.546C1162.07 306.546 1149.36 311.801 1139.97 321.16L671.505 789.659C649.093 812.026 618.72 824.588 587.054 824.588C555.388 824.588 525.015 812.026 502.603 789.659L34.2743 321.16C24.8819 311.798 12.1607 306.542 -1.10132 306.542C-14.3634 306.542 -27.0846 311.798 -36.477 321.16L-504.946 789.659C-527.359 812.026 -557.731 824.588 -589.397 824.588C-621.063 824.588 -651.436 812.026 -673.848 789.659L-1003.82 459.5" stroke="#61859D" stroke-opacity="0.1" stroke-width="5" stroke-miterlimit="10"/>
<path d="M1314.65 459.501L1203.69 348.416C1196.16 340.907 1185.96 336.691 1175.33 336.691C1164.69 336.691 1154.49 340.907 1146.97 348.416L678.496 816.914C654.218 841.149 621.313 854.761 587.007 854.761C552.701 854.761 519.797 841.149 495.518 816.914L27.2368 348.416C23.5062 344.677 19.0747 341.71 14.1959 339.686C9.31715 337.662 4.08697 336.621 -1.19508 336.621C-6.47714 336.621 -11.7073 337.662 -16.5861 339.686C-21.4649 341.71 -25.8964 344.677 -29.627 348.416L-498.049 816.914C-522.328 841.149 -555.232 854.761 -589.538 854.761C-623.844 854.761 -656.749 841.149 -681.027 816.914L-1038.35 459.501" stroke="#61859D" stroke-opacity="0.1" stroke-width="5" stroke-miterlimit="10"/>
<path d="M1280.26 459.5L1196.7 375.905C1191.02 370.247 1183.34 367.07 1175.33 367.07C1167.31 367.07 1159.63 370.247 1153.96 375.905L685.533 844.404C659.399 870.434 624.013 885.05 587.124 885.05C550.235 885.05 514.849 870.434 488.715 844.404L20.2459 375.905C14.573 370.247 6.88754 367.07 -1.12494 367.07C-9.13741 367.07 -16.8228 370.247 -22.4957 375.905L-490.918 844.404C-517.052 870.434 -552.438 885.05 -589.327 885.05C-626.216 885.05 -661.602 870.434 -687.736 844.404L-1072.46 459.734" stroke="#61859D" stroke-opacity="0.1" stroke-width="5" stroke-miterlimit="10"/>
<path d="M1245.87 459.5L1189.57 403.207C1185.74 399.411 1180.57 397.281 1175.19 397.281C1169.8 397.281 1164.63 399.411 1160.81 403.207L692.384 871.706C664.394 899.588 626.494 915.242 586.984 915.242C547.474 915.242 509.574 899.588 481.584 871.706L13.2558 403.301C9.43256 399.505 4.26336 397.375 -1.12441 397.375C-6.51217 397.375 -11.6814 399.505 -15.5046 403.301L-483.927 871.8C-511.917 899.681 -549.817 915.336 -589.327 915.336C-628.837 915.336 -666.736 899.681 -694.726 871.8L-1107.04 459.5" stroke="#61859D" stroke-opacity="0.1" stroke-width="5" stroke-miterlimit="10"/>
</g>
<defs>
<clipPath id="clip0">
<rect width="919" height="1175" fill="white" transform="translate(1175) rotate(90)"/>
</clipPath>
</defs>
</svg>
