<svg width="285" height="223" viewBox="0 0 285 223" fill="none" xmlns="http://www.w3.org/2000/svg">
<g clip-path="url(#clip0)">
<path d="M410.282 111.5L310.364 11.4647C303.581 4.69913 294.396 0.900391 284.821 0.900391C275.246 0.900391 266.062 4.69913 259.279 11.4647L145.762 125.148C144.838 126.069 143.587 126.585 142.283 126.585C140.979 126.585 139.729 126.069 138.804 125.148L25.2648 11.4647C18.4818 4.69913 9.29721 0.900391 -0.27753 0.900391C-9.85227 0.900391 -19.0368 4.69913 -25.8199 11.4647L-139.336 125.148C-140.261 126.069 -141.512 126.585 -142.816 126.585C-144.119 126.585 -145.37 126.069 -146.295 125.148L-159.938 111.489" stroke="#61859D" stroke-opacity="0.1" stroke-width="1.5" stroke-miterlimit="10"/>
<path d="M401.948 111.5L308.715 18.1579C302.382 11.8414 293.806 8.29484 284.867 8.29484C275.927 8.29484 267.352 11.8414 261.018 18.1579L147.445 131.773C146.07 133.146 144.208 133.917 142.266 133.917C140.324 133.917 138.462 133.146 137.087 131.773L23.5707 18.1124C17.2407 11.7938 8.66677 8.24561 -0.271875 8.24561C-9.21052 8.24561 -17.7845 11.7938 -24.1144 18.1124L-137.642 131.785C-139.017 133.157 -140.88 133.928 -142.821 133.928C-144.763 133.928 -146.625 133.157 -148 131.785L-168.25 111.5" stroke="#61859D" stroke-opacity="0.1" stroke-width="1.5" stroke-miterlimit="10"/>
<path d="M393.614 111.5L306.976 24.7606C301.093 18.8771 293.119 15.5723 284.804 15.5723C276.49 15.5723 268.515 18.8771 262.633 24.7606L149.151 138.421C147.326 140.243 144.855 141.266 142.278 141.266C139.701 141.266 137.229 140.243 135.405 138.421L21.8767 24.7606C15.9947 18.8771 8.02018 15.5723 -0.294443 15.5723C-8.60907 15.5723 -16.5836 18.8771 -22.4656 24.7606L-135.982 138.433C-137.81 140.253 -140.283 141.274 -142.861 141.274C-145.439 141.274 -147.912 140.253 -149.74 138.433L-176.595 111.5" stroke="#61859D" stroke-opacity="0.1" stroke-width="1.5" stroke-miterlimit="10"/>
<path d="M385.279 111.5L305.27 31.4084C299.838 25.9809 292.478 22.9326 284.804 22.9326C277.13 22.9326 269.77 25.9809 264.338 31.4084L150.856 145.069C148.58 147.341 145.497 148.616 142.283 148.616C139.069 148.616 135.987 147.341 133.71 145.069L20.1825 31.4084C14.7496 25.9837 7.38976 22.9373 -0.283225 22.9373C-7.95621 22.9373 -15.3161 25.9837 -20.7489 31.4084L-134.265 145.081C-136.542 147.352 -139.624 148.628 -142.838 148.628C-146.052 148.628 -149.135 147.352 -151.411 145.081L-184.918 111.5" stroke="#61859D" stroke-opacity="0.1" stroke-width="1.5" stroke-miterlimit="10"/>
<path d="M376.934 111.5L303.575 38.0559C298.596 33.0817 291.849 30.2881 284.815 30.2881C277.781 30.2881 271.034 33.0817 266.055 38.0559L152.55 151.705C149.822 154.427 146.128 155.955 142.277 155.955C138.426 155.955 134.732 154.427 132.005 151.705L18.4768 38.0559C13.4975 33.0817 6.75067 30.2881 -0.283436 30.2881C-7.31754 30.2881 -14.0644 33.0817 -19.0437 38.0559L-132.549 151.705C-135.273 154.429 -138.966 155.959 -142.816 155.959C-146.666 155.959 -150.358 154.429 -153.083 151.705L-193.252 111.5" stroke="#61859D" stroke-opacity="0.1" stroke-width="1.5" stroke-miterlimit="10"/>
<path d="M368.6 111.5L301.882 44.7032C297.353 40.185 291.22 37.6479 284.827 37.6479C278.433 37.6479 272.301 40.185 267.772 44.7032L154.267 158.364C151.089 161.535 146.786 163.315 142.3 163.315C137.814 163.315 133.511 161.535 130.334 158.364L16.7829 44.7032C12.2543 40.185 6.12153 37.6479 -0.271861 37.6479C-6.66525 37.6479 -12.798 40.185 -17.3266 44.7032L-130.843 158.375C-134.018 161.529 -138.309 163.298 -142.781 163.298C-147.254 163.298 -151.545 161.529 -154.72 158.375L-201.609 111.5" stroke="#61859D" stroke-opacity="0.1" stroke-width="1.5" stroke-miterlimit="10"/>
<path d="M360.266 111.5L300.187 51.3398C296.109 47.2775 290.591 44.9971 284.838 44.9971C279.085 44.9971 273.567 47.2775 269.489 51.3398L155.961 165.012C152.338 168.627 147.432 170.656 142.317 170.656C137.202 170.656 132.296 168.627 128.673 165.012L15.0887 51.3398C11.0107 47.2775 5.49207 44.9971 -0.260603 44.9971C-6.01328 44.9971 -11.5319 47.2775 -15.6099 51.3398L-129.138 165.012C-132.761 168.627 -137.667 170.656 -142.781 170.656C-147.896 170.656 -152.802 168.627 -156.425 165.012L-209.864 111.511" stroke="#61859D" stroke-opacity="0.1" stroke-width="1.5" stroke-miterlimit="10"/>
<path d="M351.932 111.5L298.493 57.9994C294.87 54.3848 289.964 52.3551 284.849 52.3551C279.735 52.3551 274.829 54.3848 271.206 57.9994L157.678 171.66C153.6 175.722 148.081 178.003 142.329 178.003C136.576 178.003 131.057 175.722 126.979 171.66L13.3832 57.988C9.76032 54.3734 4.85412 52.3438 -0.260593 52.3438C-5.3753 52.3438 -10.2815 54.3734 -13.9044 57.988L-127.421 171.66C-131.499 175.722 -137.017 178.003 -142.77 178.003C-148.523 178.003 -154.041 175.722 -158.119 171.66L-218.266 111.5" stroke="#61859D" stroke-opacity="0.1" stroke-width="1.5" stroke-miterlimit="10"/>
<path d="M343.598 111.5L296.788 64.6354C293.609 61.4678 289.307 59.6895 284.821 59.6895C280.336 59.6895 276.034 61.4678 272.855 64.6354L159.338 178.319C154.808 182.835 148.676 185.37 142.283 185.37C135.891 185.37 129.759 182.835 125.229 178.319L11.6893 64.6354C8.51275 61.4851 4.22228 59.7177 -0.248992 59.7177C-4.72027 59.7177 -9.01073 61.4851 -12.1873 64.6354L-125.704 178.319C-130.234 182.835 -136.366 185.37 -142.759 185.37C-149.151 185.37 -155.283 182.835 -159.813 178.319L-226.623 111.5" stroke="#61859D" stroke-opacity="0.1" stroke-width="1.5" stroke-miterlimit="10"/>
<path d="M335.263 111.5L295.094 71.2831C292.366 68.5617 288.672 67.0337 284.821 67.0337C280.97 67.0337 277.276 68.5617 274.549 71.2831L161.089 184.955C156.11 189.93 149.363 192.723 142.329 192.723C135.295 192.723 128.548 189.93 123.568 184.955L9.99503 71.2831C7.26723 68.5617 3.57329 67.0337 -0.277623 67.0337C-4.12854 67.0337 -7.82248 68.5617 -10.5503 71.2831L-124.067 184.955C-129.046 189.93 -135.793 192.723 -142.827 192.723C-149.861 192.723 -156.608 189.93 -161.587 184.955L-234.934 111.5" stroke="#61859D" stroke-opacity="0.1" stroke-width="1.5" stroke-miterlimit="10"/>
<path d="M326.929 111.5L293.388 77.931C291.114 75.6601 288.033 74.3848 284.821 74.3848C281.609 74.3848 278.528 75.6601 276.254 77.931L162.726 191.615C157.295 197.042 149.934 200.09 142.261 200.09C134.587 200.09 127.226 197.042 121.795 191.615L8.3011 77.931C6.02496 75.6594 2.94215 74.3838 -0.27175 74.3838C-3.48565 74.3838 -6.56848 75.6594 -8.84462 77.931L-122.372 191.615C-127.804 197.042 -135.164 200.09 -142.838 200.09C-150.512 200.09 -157.872 197.042 -163.304 191.615L-243.268 111.5" stroke="#61859D" stroke-opacity="0.1" stroke-width="1.5" stroke-miterlimit="10"/>
<path d="M318.584 111.5L291.694 84.5447C289.87 82.7228 287.398 81.6997 284.821 81.6997C282.244 81.6997 279.773 82.7228 277.948 84.5447L164.42 198.228C158.537 204.109 150.563 207.412 142.249 207.412C133.935 207.412 125.962 204.109 120.078 198.228L6.5956 84.5447C5.69154 83.6375 4.61761 82.9177 3.4353 82.4265C2.25299 81.9354 0.985515 81.6826 -0.294526 81.6826C-1.57457 81.6826 -2.84204 81.9354 -4.02435 82.4265C-5.20667 82.9177 -6.28059 83.6375 -7.18465 84.5447L-120.701 198.228C-126.585 204.109 -134.559 207.412 -142.872 207.412C-151.186 207.412 -159.16 204.109 -165.044 198.228L-251.636 111.5" stroke="#61859D" stroke-opacity="0.1" stroke-width="1.5" stroke-miterlimit="10"/>
<path d="M310.25 111.5L290 91.2151C288.625 89.8423 286.763 89.0713 284.821 89.0713C282.88 89.0713 281.017 89.8423 279.642 91.2151L166.126 204.899C159.792 211.215 151.217 214.762 142.278 214.762C133.338 214.762 124.763 211.215 118.429 204.899L4.90148 91.2151C3.52672 89.8423 1.66424 89.0713 -0.277489 89.0713C-2.21922 89.0713 -4.08168 89.8423 -5.45644 91.2151L-118.973 204.899C-125.306 211.215 -133.882 214.762 -142.821 214.762C-151.761 214.762 -160.336 211.215 -166.669 204.899L-259.902 111.557" stroke="#61859D" stroke-opacity="0.1" stroke-width="1.5" stroke-miterlimit="10"/>
<path d="M301.916 111.5L288.272 97.8403C287.345 96.9192 286.093 96.4023 284.787 96.4023C283.481 96.4023 282.229 96.9192 281.302 97.8403L167.786 211.524C161.003 218.29 151.818 222.088 142.243 222.088C132.669 222.088 123.484 218.29 116.701 211.524L3.20727 97.863C2.28076 96.942 1.02807 96.4251 -0.277589 96.4251C-1.58325 96.4251 -2.83594 96.942 -3.76245 97.863L-117.279 211.547C-124.062 218.312 -133.247 222.111 -142.821 222.111C-152.396 222.111 -161.581 218.312 -168.364 211.547L-268.282 111.5" stroke="#61859D" stroke-opacity="0.1" stroke-width="1.5" stroke-miterlimit="10"/>
</g>
<defs>
<clipPath id="clip0">
<rect width="223" height="285" fill="white" transform="translate(285) rotate(90)"/>
</clipPath>
</defs>
</svg>
