<svg width="517" height="554" viewBox="0 0 517 554" fill="none" xmlns="http://www.w3.org/2000/svg">
<g clip-path="url(#clip0)">
<g clip-path="url(#clip1)">
<path d="M-225.699 277L-44.6704 458.23C-32.3812 470.487 -15.7409 477.369 1.60628 477.369C18.9535 477.369 35.5938 470.487 47.8831 458.23L253.548 252.274C255.223 250.606 257.489 249.671 259.852 249.671C262.214 249.671 264.48 250.606 266.155 252.274L471.861 458.23C484.151 470.487 500.791 477.369 518.138 477.369C535.485 477.369 552.126 470.487 564.415 458.23L770.08 252.274C771.755 250.606 774.021 249.67 776.383 249.67C778.746 249.67 781.012 250.606 782.687 252.274L807.406 277.021" stroke="#61859D" stroke-opacity="0.15" stroke-width="3" stroke-miterlimit="10"/>
<path d="M-210.599 277L-41.6833 446.104C-30.2088 457.547 -14.6723 463.972 1.52413 463.972C17.7206 463.972 33.257 457.547 44.7315 446.104L250.5 240.272C252.99 237.784 256.365 236.388 259.883 236.388C263.401 236.388 266.775 237.784 269.266 240.272L474.931 446.186C486.399 457.633 501.933 464.062 518.128 464.062C534.323 464.062 549.857 457.633 561.325 446.186L767.011 240.251C769.502 237.764 772.876 236.367 776.394 236.367C779.912 236.367 783.286 237.764 785.777 240.251L822.465 277" stroke="#61859D" stroke-opacity="0.15" stroke-width="3" stroke-miterlimit="10"/>
<path d="M-195.5 277L-38.5322 434.143C-27.8753 444.801 -13.4274 450.789 1.63675 450.789C16.7009 450.789 31.1488 444.801 41.8057 434.143L247.409 228.228C250.715 224.927 255.193 223.074 259.862 223.074C264.53 223.074 269.008 224.927 272.314 228.228L478 434.143C488.657 444.801 503.105 450.789 518.169 450.789C533.233 450.789 547.681 444.801 558.338 434.142L764.003 228.207C767.315 224.91 771.795 223.06 776.466 223.06C781.136 223.06 785.617 224.91 788.928 228.207L837.584 277" stroke="#61859D" stroke-opacity="0.15" stroke-width="3" stroke-miterlimit="10"/>
<path d="M-180.401 277L-35.442 422.099C-25.6016 431.932 -12.2663 437.454 1.63703 437.454C15.5403 437.454 28.8757 431.932 38.7161 422.099L244.319 216.184C248.443 212.069 254.029 209.758 259.851 209.758C265.674 209.758 271.26 212.069 275.383 216.184L481.069 422.099C490.912 431.927 504.247 437.446 518.148 437.446C532.05 437.446 545.384 431.927 555.227 422.099L760.892 216.164C765.016 212.048 770.602 209.737 776.424 209.737C782.247 209.737 787.833 212.048 791.956 216.164L852.663 277" stroke="#61859D" stroke-opacity="0.15" stroke-width="3" stroke-miterlimit="10"/>
<path d="M-165.28 277L-32.3719 410.056C-23.3506 419.068 -11.1269 424.129 1.61726 424.129C14.3614 424.129 26.5851 419.068 35.6064 410.056L241.251 204.162C246.193 199.232 252.886 196.463 259.863 196.463C266.839 196.463 273.532 199.232 278.474 204.162L484.16 410.056C493.181 419.068 505.405 424.129 518.149 424.129C530.893 424.129 543.117 419.068 552.138 410.056L757.783 204.162C762.719 199.228 769.409 196.457 776.384 196.457C783.359 196.457 790.049 199.228 794.985 204.162L867.763 277" stroke="#61859D" stroke-opacity="0.15" stroke-width="3" stroke-miterlimit="10"/>
<path d="M-150.181 277L-29.3034 398.013C-21.0986 406.198 -9.98751 410.795 1.59581 410.795C13.1791 410.795 24.2902 406.198 32.495 398.013L238.14 192.098C243.897 186.354 251.693 183.129 259.821 183.129C267.948 183.129 275.745 186.354 281.501 192.098L487.229 398.013C495.433 406.198 506.544 410.794 518.128 410.794C529.711 410.794 540.822 406.198 549.027 398.013L754.692 192.077C760.445 186.365 768.219 183.16 776.322 183.16C784.424 183.16 792.198 186.365 797.951 192.077L882.903 277" stroke="#61859D" stroke-opacity="0.15" stroke-width="3" stroke-miterlimit="10"/>
<path d="M-135.081 277L-26.2332 385.99C-18.8449 393.349 -8.8464 397.481 1.57609 397.481C11.9986 397.481 21.9971 393.349 29.3854 385.99L235.071 180.054C241.635 173.506 250.524 169.829 259.79 169.829C269.057 169.829 277.946 173.506 284.51 180.054L490.298 385.99C497.687 393.349 507.685 397.481 518.108 397.481C528.53 397.481 538.529 393.349 545.917 385.99L751.603 180.054C758.167 173.506 767.055 169.829 776.322 169.829C785.589 169.829 794.478 173.506 801.041 180.054L897.859 276.98" stroke="#61859D" stroke-opacity="0.15" stroke-width="3" stroke-miterlimit="10"/>
<path d="M-119.982 277L-23.1645 373.925C-16.6007 380.474 -7.71183 384.151 1.55482 384.151C10.8215 384.151 19.7104 380.474 26.2742 373.925L231.96 168.01C239.348 160.651 249.347 156.519 259.769 156.519C270.192 156.519 280.19 160.651 287.578 168.01L493.388 373.946C499.952 380.494 508.841 384.171 518.107 384.171C527.374 384.171 536.263 380.494 542.827 373.946L748.492 168.01C755.88 160.651 765.878 156.519 776.301 156.519C786.723 156.519 796.722 160.651 804.11 168.01L913.081 277" stroke="#61859D" stroke-opacity="0.15" stroke-width="3" stroke-miterlimit="10"/>
<path d="M-104.883 277.001L-20.0749 361.903C-14.3153 367.642 -6.52 370.863 1.60603 370.863C9.73207 370.863 17.5275 367.642 23.287 361.903L228.952 155.947C237.16 147.766 248.27 143.174 259.851 143.174C271.433 143.174 282.543 147.766 290.751 155.947L496.457 361.903C502.212 367.61 509.986 370.812 518.086 370.812C526.187 370.812 533.961 367.61 539.716 361.903L745.381 155.947C753.589 147.766 764.699 143.174 776.28 143.174C787.862 143.174 798.972 147.766 807.179 155.947L928.222 277" stroke="#61859D" stroke-opacity="0.15" stroke-width="3" stroke-miterlimit="10"/>
<path d="M-89.7831 277L-17.0051 349.859C-12.063 354.79 -5.37049 357.558 1.60646 357.558C8.58341 357.558 15.276 354.79 20.2181 349.859L225.78 143.924C234.802 134.912 247.025 129.851 259.769 129.851C272.514 129.851 284.737 134.912 293.759 143.924L499.527 349.859C504.469 354.79 511.161 357.558 518.138 357.558C525.115 357.558 531.808 354.79 536.75 349.859L742.415 143.924C751.436 134.912 763.66 129.851 776.404 129.851C789.148 129.851 801.372 134.912 810.393 143.924L943.281 277" stroke="#61859D" stroke-opacity="0.15" stroke-width="3" stroke-miterlimit="10"/>
<path d="M-74.6837 277L-13.9153 337.815C-9.79497 341.93 -4.21309 344.24 1.60635 344.24C7.4258 344.24 13.0078 341.93 17.1281 337.815L222.814 131.859C232.654 122.027 245.99 116.504 259.893 116.504C273.796 116.504 287.131 122.027 296.972 131.859L502.596 337.815C506.72 341.931 512.305 344.242 518.128 344.242C523.951 344.242 529.536 341.931 533.66 337.815L739.346 131.859C749.186 122.027 762.521 116.504 776.425 116.504C790.328 116.504 803.663 122.027 813.504 131.859L958.38 277" stroke="#61859D" stroke-opacity="0.15" stroke-width="3" stroke-miterlimit="10"/>
<path d="M-59.5642 277L-10.8464 325.834C-7.54083 329.135 -3.06272 330.988 1.60598 330.988C6.27468 330.988 10.7529 329.135 14.0584 325.834L219.744 119.878C230.404 109.224 244.851 103.24 259.913 103.24C274.976 103.24 289.423 109.224 300.082 119.878L505.686 325.834C507.324 327.478 509.269 328.782 511.411 329.671C513.553 330.561 515.85 331.019 518.169 331.019C520.488 331.019 522.784 330.561 524.926 329.671C527.069 328.782 529.014 327.478 530.652 325.834L736.317 119.878C746.977 109.224 761.424 103.24 776.486 103.24C791.549 103.24 805.996 109.224 816.655 119.878L973.541 277" stroke="#61859D" stroke-opacity="0.15" stroke-width="3" stroke-miterlimit="10"/>
<path d="M-44.4642 277L-7.77656 313.749C-5.28581 316.236 -1.91147 317.633 1.60648 317.633C5.12443 317.633 8.49884 316.236 10.9896 313.749L216.655 107.793C228.129 96.3499 243.666 89.9247 259.862 89.9247C276.059 89.9247 291.595 96.3499 303.069 107.793L508.755 313.749C511.246 316.236 514.62 317.633 518.138 317.633C521.656 317.633 525.031 316.236 527.521 313.749L733.187 107.793C744.661 96.3498 760.197 89.9247 776.394 89.9247C792.59 89.9247 808.127 96.3498 819.601 107.793L988.517 276.897" stroke="#61859D" stroke-opacity="0.15" stroke-width="3" stroke-miterlimit="10"/>
<path d="M-29.3648 277L-4.64539 301.747C-2.96679 303.415 -0.697261 304.352 1.66829 304.352C4.03383 304.352 6.30342 303.415 7.98203 301.747L213.647 95.7905C225.936 83.5336 242.577 76.6516 259.924 76.6516C277.271 76.6516 293.911 83.5336 306.201 95.7905L511.825 301.705C513.503 303.374 515.773 304.31 518.138 304.31C520.504 304.31 522.773 303.374 524.452 301.705L730.117 95.7492C742.406 83.4923 759.047 76.6103 776.394 76.6103C793.741 76.6103 810.381 83.4923 822.671 95.7492L1003.7 277" stroke="#61859D" stroke-opacity="0.15" stroke-width="3" stroke-miterlimit="10"/>
</g>
</g>
<defs>
<clipPath id="clip0">
<rect width="554" height="517" fill="white" transform="translate(0 554) rotate(-90)"/>
</clipPath>
<clipPath id="clip1">
<rect width="1232" height="404" fill="white" transform="translate(1005 479) rotate(180)"/>
</clipPath>
</defs>
</svg>
