<svg width="24" height="24" viewBox="0 0 24 24" fill="none" xmlns="http://www.w3.org/2000/svg">
<g clip-path="url(#clip0)">
<path d="M20.9382 1.74836C18.6071 -0.582785 14.8144 -0.582785 12.4833 1.74836L3.5812 10.6504C3.30647 10.9251 3.30647 11.3702 3.5812 11.6449C3.85594 11.9197 4.30102 11.9197 4.57575 11.6449L13.4778 2.7429C15.2058 1.01621 18.2156 1.01621 19.9436 2.7429C21.726 4.52523 21.726 7.42576 19.9436 9.20809L7.51312 21.7786C6.44991 22.8418 4.5975 22.8418 3.53433 21.7786C2.43745 20.6817 2.43745 18.8973 3.53433 17.8004L15.4676 5.7265C15.8659 5.32815 16.561 5.32815 16.9594 5.7265C17.3707 6.13787 17.3707 6.80757 16.9594 7.219L5.52408 18.7949C5.28689 19.0321 5.28689 19.5522 5.52408 19.7895C5.79881 20.0642 6.24389 20.0642 6.51863 19.7895L17.9539 8.2135C18.9141 7.25326 18.9141 5.69214 17.9539 4.73195C17.0239 3.802 15.4016 3.80336 14.473 4.73195L2.53978 16.8058C0.907312 18.4383 0.907312 21.1405 2.53978 22.7731C3.33722 23.5705 4.39697 24 5.52403 24C6.65109 24 7.71094 23.5705 8.50767 22.7731L20.9382 10.2026C23.2693 7.87145 23.2693 4.07945 20.9382 1.74836Z" fill="#4C86A0"/>
</g>
<defs>
<clipPath id="clip0">
<rect width="24" height="24" fill="white"/>
</clipPath>
</defs>
</svg>
