<svg width="50" height="50" viewBox="0 0 50 50" fill="none" xmlns="http://www.w3.org/2000/svg">
<path d="M45.8239 0H4.18638C1.88233 0 0 1.88233 0 4.18638V45.8136C0 48.1177 1.88233 50 4.18638 50H45.8136C48.1177 50 50 48.1177 50 45.8136V4.18638C50.0103 1.88233 48.128 0 45.8239 0ZM47.5417 45.8239C47.5417 46.7702 46.7702 47.5417 45.8239 47.5417H4.18638C3.24007 47.5417 2.46863 46.7702 2.46863 45.8239V4.18638C2.46863 3.24007 3.24007 2.46863 4.18638 2.46863H45.8136C46.7599 2.46863 47.5314 3.24007 47.5314 4.18638V45.8239H47.5417Z" fill="#4C86A0"/>
<path d="M19.8522 30.9196C19.3687 30.4361 18.587 30.4361 18.1036 30.9196L14.3903 34.6328L10.6771 30.9196C10.1937 30.4361 9.41194 30.4361 8.9285 30.9196C8.44506 31.403 8.44506 32.1848 8.9285 32.6682L12.6417 36.3814L8.9285 40.0946C8.44506 40.5781 8.44506 41.3598 8.9285 41.8432C9.16507 42.0798 9.48394 42.2032 9.8028 42.2032C10.1217 42.2032 10.4302 42.0798 10.6771 41.8432L14.3903 38.13L18.1036 41.8432C18.3401 42.0798 18.659 42.2032 18.9779 42.2032C19.2967 42.2032 19.6053 42.0798 19.8522 41.8432C20.3356 41.3598 20.3356 40.5781 19.8522 40.0946L16.1389 36.3814L19.8522 32.6682C20.3356 32.1848 20.3356 31.403 19.8522 30.9196Z" fill="#4C86A0"/>
<path d="M20.8806 13.5467H15.6348V8.30084C15.6348 7.62197 15.0794 7.06653 14.4005 7.06653C13.7216 7.06653 13.1662 7.62197 13.1662 8.30084V13.5467H7.92035C7.24148 13.5467 6.68604 14.1021 6.68604 14.781C6.68604 15.4599 7.24148 16.0153 7.92035 16.0153H13.1662V21.2611C13.1662 21.94 13.7216 22.4954 14.4005 22.4954C15.0794 22.4954 15.6348 21.94 15.6348 21.2611V16.0153H20.8806C21.5595 16.0153 22.115 15.4599 22.115 14.781C22.115 14.1021 21.5595 13.5467 20.8806 13.5467Z" fill="#4C86A0"/>
<path d="M41.5451 38.1711H30.4877C29.8089 38.1711 29.2534 38.7266 29.2534 39.4055C29.2534 40.0843 29.8089 40.6398 30.4877 40.6398H41.5348C42.2137 40.6398 42.7692 40.0843 42.7692 39.4055C42.7692 38.7266 42.224 38.1711 41.5451 38.1711Z" fill="#4C86A0"/>
<path d="M41.5451 32.1128H30.4877C29.8089 32.1128 29.2534 32.6682 29.2534 33.3471C29.2534 34.026 29.8089 34.5814 30.4877 34.5814H41.5348C42.2137 34.5814 42.7692 34.026 42.7692 33.3471C42.7692 32.6682 42.224 32.1128 41.5451 32.1128Z" fill="#4C86A0"/>
<path d="M40.5881 16.0153C41.267 16.0153 41.8224 15.4598 41.8224 14.7809C41.8224 14.1021 41.267 13.5466 40.5881 13.5466H29.5307C28.8518 13.5466 28.2964 14.1021 28.2964 14.7809C28.2964 15.4598 28.8518 16.0153 29.5307 16.0153H40.5881Z" fill="#4C86A0"/>
</svg>
