<svg width="50" height="50" viewBox="0 0 50 50" fill="none" xmlns="http://www.w3.org/2000/svg">
<path d="M42.6699 7.32831C37.9484 2.60678 31.6774 0 24.9982 0C18.319 0 12.048 2.60678 7.32652 7.32831C-1.78152 16.4363 -2.44107 30.9883 5.67242 40.8501C4.55223 43.1428 3.23314 44.6713 1.73607 45.4041C0.825264 45.8543 0.312282 46.8384 0.458848 47.8434C0.615883 48.8589 1.39059 49.6441 2.40608 49.8011C2.96094 49.8848 3.55768 49.9372 4.17535 49.9372C7.24277 49.9372 10.4672 48.8798 13.1578 47.0268C16.78 48.974 20.8525 50 24.9982 50C31.6774 50 37.9484 47.4037 42.6699 42.6822C47.3914 37.9606 49.9877 31.6792 49.9877 25.0105C49.9877 18.3417 47.3914 12.0498 42.6699 7.32831ZM40.6703 40.6721C36.4827 44.8597 30.9132 47.1629 24.9982 47.1629C21.0409 47.1629 17.1569 46.1055 13.7754 44.1164C13.5556 43.9908 13.3043 43.9175 13.0635 43.9175C12.7599 43.9175 12.4459 44.0222 12.1946 44.2106C8.99109 46.6918 5.76664 47.0582 4.35332 47.0896C6.03883 45.8333 7.45215 43.8861 8.63515 41.1746C8.85499 40.6721 8.76077 40.0858 8.39436 39.6671C0.64729 30.915 1.05558 17.5775 9.3261 9.30695C13.5137 5.11935 19.0832 2.81616 24.9982 2.81616C30.9132 2.81616 36.4827 5.11935 40.6703 9.30695C49.3177 17.9648 49.3177 32.0352 40.6703 40.6721Z" fill="#4C86A0"/>
<path d="M35.4672 16.7504H14.5292C13.744 16.7504 13.1159 17.3785 13.1159 18.1637C13.1159 18.9489 13.744 19.577 14.5292 19.577H35.4672C36.2524 19.577 36.8806 18.9489 36.8806 18.1637C36.8806 17.3785 36.2419 16.7504 35.4672 16.7504Z" fill="#4C86A0"/>
<path d="M35.4672 23.5867H14.5292C13.744 23.5867 13.1159 24.2148 13.1159 25C13.1159 25.7852 13.744 26.4133 14.5292 26.4133H35.4672C36.2524 26.4133 36.8806 25.7852 36.8806 25C36.8806 24.2148 36.2419 23.5867 35.4672 23.5867Z" fill="#4C86A0"/>
<path d="M35.4672 30.423H14.5292C13.744 30.423 13.1159 31.0511 13.1159 31.8363C13.1159 32.6215 13.744 33.2496 14.5292 33.2496H35.4672C36.2524 33.2496 36.8806 32.6215 36.8806 31.8363C36.8806 31.0511 36.2419 30.423 35.4672 30.423Z" fill="#4C86A0"/>
</svg>
