<svg width="15" height="15" viewBox="0 0 15 15" fill="none" xmlns="http://www.w3.org/2000/svg">
<g clip-path="url(#clip0)">
<path d="M8.32868 7.51467L14.8284 1.01494C15.0572 0.7861 15.0572 0.415085 14.8284 0.186277C14.5996 -0.0425316 14.2285 -0.0425609 13.9997 0.186277L7.49999 6.68601L1.00029 0.186277C0.771451 -0.0425609 0.400436 -0.0425609 0.171628 0.186277C-0.0571801 0.415114 -0.0572094 0.786129 0.171628 1.01494L6.67133 7.51464L0.171628 14.0144C-0.0572094 14.2432 -0.0572094 14.6142 0.171628 14.843C0.286032 14.9574 0.436003 15.0146 0.585973 15.0146C0.735943 15.0146 0.885885 14.9574 1.00032 14.843L7.49999 8.34333L13.9997 14.843C14.1141 14.9574 14.2641 15.0146 14.414 15.0146C14.564 15.0146 14.714 14.9574 14.8284 14.843C15.0572 14.6142 15.0572 14.2432 14.8284 14.0144L8.32868 7.51467Z" fill="#243746"/>
</g>
<defs>
<clipPath id="clip0">
<rect width="15" height="15" fill="white"/>
</clipPath>
</defs>
</svg>
