<svg width="25" height="19" viewBox="0 0 25 19" fill="none" xmlns="http://www.w3.org/2000/svg">
<path d="M18.8808 11.8638C17.1431 11.8638 15.7295 13.2774 15.7295 15.015C15.7295 16.7527 17.1431 18.1663 18.8808 18.1663C20.6187 18.1663 22.032 16.7527 22.032 15.015C22.032 13.2774 20.6184 11.8638 18.8808 11.8638ZM18.8808 16.5907C18.0118 16.5907 17.3051 15.884 17.3051 15.015C17.3051 14.1461 18.0118 13.4394 18.8808 13.4394C19.7497 13.4394 20.4564 14.1461 20.4564 15.015C20.4564 15.884 19.7497 16.5907 18.8808 16.5907Z" fill="#4C86A0"/>
<path d="M8.11416 11.8638C6.37651 11.8638 4.96289 13.2774 4.96289 15.015C4.96289 16.7527 6.37651 18.1663 8.11416 18.1663C9.85181 18.1663 11.2654 16.7527 11.2654 15.015C11.2654 13.2774 9.85181 11.8638 8.11416 11.8638ZM8.11416 16.5907C7.24521 16.5907 6.53853 15.884 6.53853 15.015C6.53853 14.1461 7.24521 13.4394 8.11416 13.4394C8.98286 13.4394 9.68979 14.1461 9.68979 15.015C9.68979 15.884 8.9831 16.5907 8.11416 16.5907Z" fill="#4C86A0"/>
<path d="M21.0036 2.84351C20.8697 2.57749 20.5974 2.40967 20.2996 2.40967H16.1504V3.98531H19.8137L21.9589 8.25211L23.367 7.5441L21.0036 2.84351Z" fill="#4C86A0"/>
<path d="M16.5178 14.2529H10.5566V15.8286H16.5178V14.2529Z" fill="#4C86A0"/>
<path d="M5.75127 14.2529H3.02021C2.58506 14.2529 2.23242 14.6056 2.23242 15.0407C2.23242 15.4759 2.58511 15.8285 3.02021 15.8285H5.75132C6.18647 15.8285 6.53911 15.4758 6.53911 15.0407C6.53911 14.6056 6.18643 14.2529 5.75127 14.2529Z" fill="#4C86A0"/>
<path d="M24.8348 9.43691L23.2852 7.44111C23.1363 7.24888 22.9065 7.13647 22.6631 7.13647H16.9383V1.62178C16.9383 1.18662 16.5856 0.833984 16.1505 0.833984H3.02021C2.58506 0.833984 2.23242 1.18667 2.23242 1.62178C2.23242 2.05688 2.58511 2.40957 3.02021 2.40957H15.3626V7.92427C15.3626 8.35942 15.7153 8.71206 16.1504 8.71206H22.2773L23.4246 10.19V14.253H21.245C20.8098 14.253 20.4572 14.6057 20.4572 15.0408C20.4572 15.476 20.8099 15.8286 21.245 15.8286H24.2124C24.6476 15.8286 25.0002 15.4759 25.0002 15.0408V9.92012C25.0002 9.74522 24.9419 9.57505 24.8348 9.43691Z" fill="#4C86A0"/>
<path d="M5.69888 10.2612H2.0749C1.63975 10.2612 1.28711 10.6139 1.28711 11.049C1.28711 11.4842 1.63979 11.8368 2.0749 11.8368H5.69883C6.13398 11.8368 6.48662 11.4841 6.48662 11.049C6.48667 10.6139 6.13398 10.2612 5.69888 10.2612Z" fill="#4C86A0"/>
<path d="M7.5105 7.16309H0.787793C0.352686 7.16309 0 7.51577 0 7.95093C0 8.38608 0.352686 8.73872 0.787793 8.73872H7.5105C7.94565 8.73872 8.29829 8.38603 8.29829 7.95093C8.29829 7.51582 7.94565 7.16309 7.5105 7.16309Z" fill="#4C86A0"/>
<path d="M8.79761 4.06445H2.0749C1.63975 4.06445 1.28711 4.41714 1.28711 4.85225C1.28711 5.2874 1.63979 5.64004 2.0749 5.64004H8.79761C9.23276 5.64004 9.5854 5.28735 9.5854 4.85225C9.58545 4.41714 9.23276 4.06445 8.79761 4.06445Z" fill="#4C86A0"/>
</svg>
