<svg width="15" height="13" viewBox="0 0 15 13" fill="none" xmlns="http://www.w3.org/2000/svg">
<path d="M13.1688 0.792358H1.83426C0.822471 0.792358 0 1.61483 0 2.62662V10.3734C0 11.3852 0.822471 12.2076 1.83426 12.2076H13.1657C14.1775 12.2076 15 11.3852 15 10.3734V2.62973C15.0031 1.61793 14.1806 0.792358 13.1688 0.792358ZM14.1651 10.3734C14.1651 10.9227 13.7182 11.3696 13.1688 11.3696H1.83426C1.28492 11.3696 0.837989 10.9227 0.837989 10.3734V2.62973C0.837989 2.08038 1.28492 1.63345 1.83426 1.63345H13.1657C13.7151 1.63345 14.162 2.08038 14.162 2.62973V10.3734H14.1651Z" fill="#4C86A0"/>
<path d="M9.46007 6.40383L13.1286 3.11395C13.2993 2.95876 13.3148 2.69495 13.1596 2.52115C13.0044 2.35045 12.7406 2.33493 12.5668 2.49011L7.50786 7.03077L6.5209 6.14933C6.51779 6.14623 6.51469 6.14312 6.51469 6.14002C6.49296 6.11829 6.47124 6.09967 6.44641 6.08105L2.43027 2.48701C2.25647 2.33182 1.99265 2.34734 1.83747 2.52115C1.68229 2.69495 1.69781 2.95876 1.87161 3.11395L5.58359 6.43176L1.88713 9.89235C1.71953 10.0506 1.71022 10.3144 1.86851 10.4851C1.95231 10.572 2.06404 10.6186 2.17577 10.6186C2.27819 10.6186 2.38061 10.5814 2.46131 10.5069L6.21364 6.99663L7.23164 7.906C7.31233 7.97739 7.41165 8.01153 7.51097 8.01153C7.61028 8.01153 7.7127 7.97428 7.7903 7.9029L8.83623 6.96559L12.5668 10.51C12.6475 10.5876 12.7531 10.6248 12.8555 10.6248C12.9672 10.6248 13.0758 10.5814 13.1596 10.4945C13.3179 10.3269 13.3117 10.0599 13.1441 9.90166L9.46007 6.40383Z" fill="#4C86A0"/>
</svg>
