<svg width="40" height="40" viewBox="0 0 40 40" fill="none" xmlns="http://www.w3.org/2000/svg">
<path d="M39.6213 37.8241L29.2937 27.6618C31.9982 24.7235 33.6599 20.8376 33.6599 16.5616C33.6586 7.41444 26.1242 0.000244141 16.8293 0.000244141C7.53441 0.000244141 0 7.41444 0 16.5616C0 25.7088 7.53441 33.123 16.8293 33.123C20.8453 33.123 24.5287 31.7339 27.422 29.4246L37.7896 39.627C38.2948 40.1247 39.1149 40.1247 39.6201 39.627C40.1264 39.1294 40.1264 38.3217 39.6213 37.8241ZM16.8293 30.5749C8.96481 30.5749 2.58942 24.301 2.58942 16.5616C2.58942 8.82226 8.96481 2.54831 16.8293 2.54831C24.6938 2.54831 31.0691 8.82226 31.0691 16.5616C31.0691 24.301 24.6938 30.5749 16.8293 30.5749Z" fill="white"/>
<path d="M17.56 15.76V10.84H15.76V15.76H10.96V17.56H15.76V22.48H17.56V17.56H22.36V15.76H17.56Z" fill="white"/>
</svg>
