<svg width="50" height="50" viewBox="0 0 50 50" fill="none" xmlns="http://www.w3.org/2000/svg">
<g clip-path="url(#clip0)">
<path d="M42.1061 19.0126V17.0903C42.1061 12.4895 40.4779 8.21429 37.5262 5.04202C34.501 1.78571 30.3414 0 25.8036 0H24.2174C19.6796 0 15.5199 1.78571 12.4947 5.04202C9.54305 8.21429 7.9149 12.4895 7.9149 17.0903V19.0126C4.33297 19.2542 1.48633 22.2374 1.48633 25.8824V28.8866C1.48633 32.6786 4.57456 35.7668 8.36658 35.7668H12.2426C12.9359 35.7668 13.5031 35.1996 13.5031 34.5063V20.2521C13.5031 19.5588 12.9359 18.9916 12.2426 18.9916H10.4359V17.0903C10.4359 8.78151 16.3603 2.52101 24.2069 2.52101H25.7931C33.6502 2.52101 39.5641 8.78151 39.5641 17.0903V18.9916H37.7573C37.0641 18.9916 36.4968 19.5588 36.4968 20.2521V34.4958C36.4968 35.1891 37.0641 35.7563 37.7573 35.7563H39.522C39.0073 42.3319 34.48 43.855 32.3792 44.2017C31.8015 42.4265 30.1313 41.145 28.167 41.145H25.0157C22.5788 41.145 20.5935 43.1303 20.5935 45.5672C20.5935 48.0042 22.5788 50 25.0157 50H28.1775C30.2153 50 31.9275 48.6134 32.4422 46.7437C33.4716 46.5966 35.0998 46.229 36.7174 45.2836C38.9968 43.9496 41.6964 41.229 42.0536 35.7458C45.6565 35.5252 48.5136 32.5315 48.5136 28.8761V25.8718C48.5241 22.2374 45.688 19.2437 42.1061 19.0126ZM11.0031 33.2353H8.38759C5.98213 33.2353 4.02834 31.2815 4.02834 28.8761V25.8718C4.02834 23.4664 5.98213 21.5126 8.38759 21.5126H11.0031V33.2353ZM28.1775 47.479H25.0157C23.9653 47.479 23.1145 46.6282 23.1145 45.5777C23.1145 44.5273 23.9653 43.6765 25.0157 43.6765H28.1775C29.2279 43.6765 30.0788 44.5273 30.0788 45.5777C30.0788 46.6282 29.2279 47.479 28.1775 47.479ZM46.0031 28.8761C46.0031 31.2815 44.0494 33.2353 41.6439 33.2353H39.0283V21.5126H41.6439C44.0494 21.5126 46.0031 23.4664 46.0031 25.8718V28.8761Z" fill="white"/>
</g>
<defs>
<clipPath id="clip0">
<rect width="50" height="50" fill="white"/>
</clipPath>
</defs>
</svg>
