<svg width="15" height="15" viewBox="0 0 15 15" fill="none" xmlns="http://www.w3.org/2000/svg">
<g clip-path="url(#clip0)">
<path d="M14.862 6.80136L7.80313 0.489093C7.79079 0.476752 7.77845 0.467497 7.76302 0.458241C7.60877 0.310153 7.36195 0.303982 7.19844 0.448986L0.139555 6.76125C-0.0332147 6.91551 -0.0455554 7.17775 0.105618 7.35052C0.188918 7.44308 0.30307 7.48936 0.417221 7.48936C0.515947 7.48936 0.614672 7.45542 0.694887 7.38446L1.96598 6.24603V6.46816V9.76313V13.6073C1.96598 14.1842 2.43493 14.6562 3.01494 14.6562C3.02419 14.6562 3.03036 14.6562 3.03962 14.6562C3.04888 14.6562 3.05505 14.6562 3.0643 14.6562H5.24244C5.78543 14.6562 6.22661 14.215 6.22661 13.672V9.92973C6.22661 9.84643 6.29448 9.77856 6.37778 9.77856H8.62687C8.71017 9.77856 8.77805 9.84643 8.77805 9.92973V13.672C8.77805 14.215 9.21923 14.6562 9.76222 14.6562H11.9897C12.5759 14.6562 13.0387 14.0793 13.0387 13.3419V9.91122V8.86226V6.28614L14.3098 7.42457C14.39 7.49553 14.4887 7.52946 14.5874 7.52946C14.7016 7.52946 14.8157 7.48319 14.899 7.39063C15.0471 7.21786 15.0317 6.95562 14.862 6.80136ZM12.2026 8.85917V9.90813V13.3358C12.2026 13.635 12.0545 13.817 11.9866 13.817H9.75913C9.67583 13.817 9.60796 13.7492 9.60796 13.6659V9.92973C9.60796 9.38674 9.16678 8.94556 8.62379 8.94556H6.3747C5.8317 8.94556 5.39052 9.38674 5.39052 9.92973V13.672C5.39052 13.7553 5.32265 13.8232 5.23935 13.8232H3.06122C3.05196 13.8232 3.04579 13.8232 3.03654 13.8232C3.02728 13.8232 3.02111 13.8232 3.01185 13.8232C2.89462 13.8232 2.79589 13.7276 2.79589 13.6073V9.76005V6.46508V5.49942L7.47919 1.31592L12.2026 5.53953V8.85917Z" fill="#4C86A0"/>
</g>
<defs>
<clipPath id="clip0">
<rect width="15" height="15" fill="white"/>
</clipPath>
</defs>
</svg>
