<svg width="15" height="15" viewBox="0 0 15 15" fill="none" xmlns="http://www.w3.org/2000/svg">
<g clip-path="url(#clip0)">
<path d="M7.5 1.35083C9.50391 1.35083 9.74121 1.35962 10.5293 1.39478C11.2617 1.427 11.6572 1.55005 11.9209 1.65259C12.2695 1.78735 12.5215 1.95142 12.7822 2.21216C13.0459 2.47583 13.207 2.72485 13.3418 3.07349C13.4443 3.33716 13.5674 3.7356 13.5996 4.46509C13.6348 5.2561 13.6436 5.49341 13.6436 7.49438C13.6436 9.49829 13.6348 9.7356 13.5996 10.5237C13.5674 11.2561 13.4443 11.6516 13.3418 11.9153C13.207 12.2639 13.043 12.5159 12.7822 12.7766C12.5186 13.0403 12.2695 13.2014 11.9209 13.3362C11.6572 13.4387 11.2588 13.5618 10.5293 13.594C9.73828 13.6292 9.50098 13.6379 7.5 13.6379C5.49609 13.6379 5.25879 13.6292 4.4707 13.594C3.73828 13.5618 3.34277 13.4387 3.0791 13.3362C2.73047 13.2014 2.47852 13.0374 2.21777 12.7766C1.9541 12.5129 1.79297 12.2639 1.6582 11.9153C1.55566 11.6516 1.43262 11.2532 1.40039 10.5237C1.36523 9.73267 1.35645 9.49536 1.35645 7.49438C1.35645 5.49048 1.36523 5.25317 1.40039 4.46509C1.43262 3.73267 1.55566 3.33716 1.6582 3.07349C1.79297 2.72485 1.95703 2.4729 2.21777 2.21216C2.48145 1.94849 2.73047 1.78735 3.0791 1.65259C3.34277 1.55005 3.74121 1.427 4.4707 1.39478C5.25879 1.35962 5.49609 1.35083 7.5 1.35083ZM7.5 0.000244141C5.46387 0.000244141 5.20898 0.0090332 4.40918 0.0441895C3.6123 0.0793457 3.06445 0.208252 2.58984 0.392822C2.09473 0.586182 1.67578 0.841064 1.25977 1.26001C0.84082 1.67603 0.585938 2.09497 0.392578 2.58716C0.208008 3.0647 0.0791016 3.60962 0.0439453 4.40649C0.00878906 5.20923 0 5.46411 0 7.50024C0 9.53638 0.00878906 9.79126 0.0439453 10.5911C0.0791016 11.3879 0.208008 11.9358 0.392578 12.4104C0.585938 12.9055 0.84082 13.3245 1.25977 13.7405C1.67578 14.1565 2.09473 14.4143 2.58691 14.6047C3.06445 14.7893 3.60938 14.9182 4.40625 14.9534C5.20605 14.9885 5.46094 14.9973 7.49707 14.9973C9.5332 14.9973 9.78809 14.9885 10.5879 14.9534C11.3848 14.9182 11.9326 14.7893 12.4072 14.6047C12.8994 14.4143 13.3184 14.1565 13.7344 13.7405C14.1504 13.3245 14.4082 12.9055 14.5986 12.4133C14.7832 11.9358 14.9121 11.3909 14.9473 10.594C14.9824 9.79419 14.9912 9.53931 14.9912 7.50317C14.9912 5.46704 14.9824 5.21216 14.9473 4.41235C14.9121 3.61548 14.7832 3.06763 14.5986 2.59302C14.4141 2.09497 14.1592 1.67603 13.7402 1.26001C13.3242 0.843994 12.9053 0.586182 12.4131 0.395752C11.9355 0.211182 11.3906 0.0822754 10.5938 0.0471191C9.79102 0.00903321 9.53613 0.000244141 7.5 0.000244141Z" fill="white" fill-opacity="0.75"/>
<path d="M7.5 3.64771C5.37305 3.64771 3.64746 5.37329 3.64746 7.50024C3.64746 9.6272 5.37305 11.3528 7.5 11.3528C9.62695 11.3528 11.3525 9.6272 11.3525 7.50024C11.3525 5.37329 9.62695 3.64771 7.5 3.64771ZM7.5 9.99927C6.12012 9.99927 5.00098 8.88013 5.00098 7.50024C5.00098 6.12036 6.12012 5.00122 7.5 5.00122C8.87988 5.00122 9.99902 6.12036 9.99902 7.50024C9.99902 8.88013 8.87988 9.99927 7.5 9.99927Z" fill="white" fill-opacity="0.75"/>
<path d="M12.4043 3.49536C12.4043 3.99341 12 4.39478 11.5049 4.39478C11.0068 4.39478 10.6055 3.99048 10.6055 3.49536C10.6055 2.99731 11.0098 2.59595 11.5049 2.59595C12 2.59595 12.4043 3.00024 12.4043 3.49536Z" fill="white" fill-opacity="0.75"/>
</g>
<defs>
<clipPath id="clip0">
<rect width="15" height="15" fill="white" transform="translate(0 0.000244141)"/>
</clipPath>
</defs>
</svg>
