<svg id="Слой_1" data-name="Слой 1" xmlns="http://www.w3.org/2000/svg" viewBox="0 0 287.67 57.65"><defs><style>.cls-1{fill:#fff;}.cls-2{isolation:isolate;}</style></defs><polygon class="cls-1" points="138.23 18.05 132.9 18.05 126.16 25.49 119.72 18.05 114.47 18.05 123.37 28.13 113.58 39.1 118.9 39.1 126.05 31.09 132.95 39.01 133.03 39.1 138.28 39.1 128.85 28.41 138.23 18.05"/><path class="cls-1" d="M180.46,18.05h-2.91c-6.49,0-9.92,3.66-9.92,10.57s3.43,10.48,9.92,10.48h2.91c6.49,0,9.92-3.62,9.92-10.48S187,18.05,180.46,18.05Zm0,17h-2.91c-4,0-5.66-1.85-5.66-6.38s1.7-6.47,5.66-6.47h2.91c3.94,0,5.63,1.93,5.63,6.44S184.46,35,180.46,35Z"/><path class="cls-1" d="M195.61,25.4V39.1h4.27V25.43c0-2.21,1.34-3.28,4.1-3.28h8.56v-4.1h-8.78C198.51,18.05,195.61,20.66,195.61,25.4Z"/><path class="cls-1" d="M227.21,18.05H216v4.1h11.37A2.38,2.38,0,0,1,230,24.26a2.41,2.41,0,0,1,0,.38,2.45,2.45,0,0,1-2.31,2.58,2.67,2.67,0,0,1-.4,0H219.6c-2.5,0-3.62,1.08-3.62,3.51V39.1h4.26V31.42c0-.21.06-.26.28-.26h6.65c5.26,0,7.13-3.61,7.13-6.71S232.47,18.05,227.21,18.05Z"/><polygon class="cls-1" points="71.02 22.15 77.26 22.15 77.26 39.1 81.56 39.1 81.56 22.15 87.8 22.15 87.8 18.05 71.02 18.05 71.02 22.15"/><path class="cls-1" d="M91.54,28.59c0,6.88,3.43,10.51,9.92,10.51H110V35h-8.53c-3.37,0-5.06-1.32-5.52-4.43h11v-4H96c.46-3.11,2.16-4.43,5.52-4.43H110V18.05h-8.53C95,18.05,91.54,21.7,91.54,28.59Z"/><path class="cls-1" d="M247.06,17.69c-2.48,0-3.94.86-4.75,2.81l-7.64,18.6h4.68l6.84-16.67a.81.81,0,0,1,.83-.55.76.76,0,0,1,.8.53l3.56,9.07h-6v4H253l1.42,3.63h4.72l-7.36-18.6C251,18.58,249.49,17.69,247.06,17.69Z"/><path class="cls-1" d="M284.93,35.11,279.16,20.5c-.76-1.92-2.25-2.81-4.68-2.81s-3.94.86-4.74,2.81l-6,14.61H261v4h26.67v-4Zm-16.52,0,5.2-12.68a.82.82,0,0,1,.84-.55.73.73,0,0,1,.79.53l5,12.7Z"/><polygon class="cls-1" points="157.91 26.58 146.46 26.58 146.46 18.05 142.19 18.05 142.19 39.1 146.46 39.1 146.46 30.57 157.91 30.57 157.91 39.1 162.21 39.1 162.21 18.05 157.91 18.05 157.91 26.58"/><polygon class="cls-1" points="19.88 22.63 26.07 22.63 26.07 39.46 30.34 39.46 30.34 22.63 36.53 22.63 36.53 18.56 19.88 18.56 19.88 22.63"/><path class="cls-1" d="M10,33.48,4.64,28.16,10,22.84v-6l-9,9a3.27,3.27,0,0,0-1,2.32,3.23,3.23,0,0,0,1,2.3l9,9Z"/><path class="cls-1" d="M22.89,10l5.32-5.32L33.53,10h6l-9-9a3.25,3.25,0,0,0-4.6,0l-9,9Z"/><path class="cls-1" d="M55.46,25.86l-9-9v6l5.32,5.32L46.46,33.5v6l9-9a3.25,3.25,0,0,0,0-4.6Z"/><path class="cls-1" d="M33.53,46.41l-5.32,5.32-5.32-5.32h-6l9,9a3.25,3.25,0,0,0,4.6,0l9-9Z"/><g class="cls-2"><g class="cls-2"><path class="cls-1" d="M118.59,47.1a4.19,4.19,0,0,1,.76.42l-.73,1.15a4.46,4.46,0,0,0-.58-.28,3.94,3.94,0,0,0-1.41-.26,3,3,0,1,0,0,6,3.55,3.55,0,0,0,1.51-.33,3.76,3.76,0,0,0,.6-.33l.73,1.15a4.7,4.7,0,0,1-.8.48,5,5,0,0,1-2.16.48,4.46,4.46,0,1,1,0-8.92A5.51,5.51,0,0,1,118.59,47.1Z"/></g><g class="cls-2"><path class="cls-1" d="M123.45,49.09a3.26,3.26,0,1,1-3.38,3.26A3.26,3.26,0,0,1,123.45,49.09Zm0,1.33a1.93,1.93,0,1,0,1.75,1.93A1.79,1.79,0,0,0,123.45,50.42Z"/></g><g class="cls-2"><path class="cls-1" d="M130.56,51.32h.06l1.38-2h1.75l-2.11,3,2.29,3.07h-1.75l-1.56-2h-.06l-1.57,2h-1.75l2.29-3.07-2.11-3h1.75Z"/><path class="cls-1" d="M136.47,57.65H134.9v-8c.26-.1.54-.19.83-.27a7.1,7.1,0,0,1,1.88-.27,3.27,3.27,0,1,1,0,6.51,5.22,5.22,0,0,1-.77-.08l-.37-.1Zm.37-7.15-.37.1v3.49c.12,0,.24.06.37.09a3.07,3.07,0,0,0,.77.09,1.93,1.93,0,1,0,0-3.85A5.22,5.22,0,0,0,136.84,50.5Z"/><path class="cls-1" d="M148,51.74v3.44c-.28.08-.57.16-.89.22a12,12,0,0,1-2.06.2c-2.11,0-3-.9-3-2.11s.91-2.11,3-2.11a8.75,8.75,0,0,1,1,.06c.14,0,.27,0,.39.06,0-.67-.42-1.08-1.38-1.08a4.16,4.16,0,0,0-1.21.2,2.67,2.67,0,0,0-.48.22l-.6-1.09a3.91,3.91,0,0,1,2.29-.66C147,49.09,148,50.1,148,51.74Zm-2,2.44a3.82,3.82,0,0,0,.42-.09V52.83a2.49,2.49,0,0,0-.42-.06,6.75,6.75,0,0,0-1-.06c-1,0-1.39.36-1.39.78s.36.78,1.39.78A5.05,5.05,0,0,0,146.05,54.18Z"/><path class="cls-1" d="M149.79,49.33h1.57V51.8h2.83V49.33h1.57v6h-1.57V53.07h-2.83v2.29h-1.57Z"/><path class="cls-1" d="M161.49,55.36V53.49h-1.57l-1.33,1.87h-1.74l1.56-2.23v-.06a2.36,2.36,0,0,1-.54-.4,1.69,1.69,0,0,1-.54-1.29c0-1.2.95-2.17,3.07-2.17a15.25,15.25,0,0,1,1.82.12c.3,0,.58.07.83.12v5.91Zm-2.53-4c0,.48.36.85,1.32.85h1.21V50.6l-.38,0-.83,0C159.32,50.54,159,50.9,159,51.38Z"/><path class="cls-1" d="M168.78,55.36V53.49h-1.56l-1.33,1.87h-1.75l1.57-2.23v-.06a2,2,0,0,1-.54-.4,1.7,1.7,0,0,1-.55-1.29c0-1.2,1-2.17,3.08-2.17a15.4,15.4,0,0,1,1.82.12c.3,0,.58.07.83.12v5.91Zm-2.53-4c0,.48.36.85,1.33.85h1.2V50.6l-.37,0-.83,0C166.61,50.54,166.25,50.9,166.25,51.38Z"/><path class="cls-1" d="M176.87,50.54a2.16,2.16,0,0,1,.48-.42,2.36,2.36,0,0,1,1.38-.43,3,3,0,1,1-3.37,3V50.9c0-2.42,1.32-3.75,3.25-4l2.72-.3.18,1.33-2.72.3a2.16,2.16,0,0,0-2,2.29Zm1.74.54a1.57,1.57,0,1,0,1.69,1.57A1.54,1.54,0,0,0,178.61,51.08Z"/><path class="cls-1" d="M188.62,51.74v3.44a8.91,8.91,0,0,1-.89.22,12,12,0,0,1-2.06.2c-2.11,0-3-.9-3-2.11s.9-2.11,3-2.11a8.75,8.75,0,0,1,1,.06c.14,0,.27,0,.39.06,0-.67-.42-1.08-1.38-1.08a4.22,4.22,0,0,0-1.21.2,3,3,0,0,0-.48.22l-.6-1.09a4.14,4.14,0,0,1,.6-.33,4.21,4.21,0,0,1,1.69-.33C187.61,49.09,188.62,50.1,188.62,51.74Zm-2,2.44a3.82,3.82,0,0,0,.42-.09V52.83a2.49,2.49,0,0,0-.42-.06,6.65,6.65,0,0,0-1-.06c-1,0-1.39.36-1.39.78s.36.78,1.39.78A5.05,5.05,0,0,0,186.63,54.18Z"/><path class="cls-1" d="M196.4,49.33v6h-1.57V50.6h-2l-.24,2.23c-.19,1.88-1.08,2.77-2.35,2.77a2.26,2.26,0,0,1-.53-.06l-.25-.06V54.21h.12A1.34,1.34,0,0,0,191,52.83l.42-3.5Z"/><path class="cls-1" d="M203.7,51.74v3.44a9.14,9.14,0,0,1-.9.22,11.78,11.78,0,0,1-2.06.2c-2.11,0-3-.9-3-2.11s.9-2.11,3-2.11a8.45,8.45,0,0,1,1,.06,3.8,3.8,0,0,1,.4.06c0-.67-.42-1.08-1.39-1.08a4.15,4.15,0,0,0-1.2.2,2.67,2.67,0,0,0-.48.22l-.61-1.09a4.29,4.29,0,0,1,.61-.33,4.16,4.16,0,0,1,1.68-.33C202.68,49.09,203.7,50.1,203.7,51.74Zm-2,2.44c.15,0,.29,0,.42-.09V52.83a2.65,2.65,0,0,0-.42-.06,6.8,6.8,0,0,0-1-.06c-1,0-1.38.36-1.38.78s.36.78,1.38.78A5.17,5.17,0,0,0,201.71,54.18Z"/><path class="cls-1" d="M205.45,49.33H207V51.8h2.84V49.33h1.57v6h-1.57V53.07H207v2.29h-1.56Z"/><path class="cls-1" d="M218.59,54.88a3.69,3.69,0,0,1-2.23.72,3.27,3.27,0,1,1,0-6.51,4.09,4.09,0,0,1,1.58.33,5.39,5.39,0,0,1,.59.33l-.6,1.09a2.56,2.56,0,0,0-.4-.22,2.76,2.76,0,0,0-1.05-.2,1.93,1.93,0,1,0,0,3.85,2.3,2.3,0,0,0,1.1-.24,2,2,0,0,0,.41-.24Z"/><path class="cls-1" d="M223.3,55.36v-6h1.56v3.8h.06l2.84-3.8h1.56v6h-1.56v-3.8h-.06l-2.84,3.8Z"/><path class="cls-1" d="M231.14,49.33h1.56V51.8h2.84V49.33h1.56v6h-1.56V53.07H232.7v2.29h-1.56Z"/></g><g class="cls-2"><path class="cls-1" d="M244.06,49.33V50.6h-2.17v4.76h-1.57V50.6h-2.17V49.33Z"/></g><g class="cls-2"><path class="cls-1" d="M250.21,53.07h-3.93a1.85,1.85,0,0,0,1.94,1.2,2.51,2.51,0,0,0,1.14-.24,2.19,2.19,0,0,0,.43-.24l.6,1.09a4.16,4.16,0,0,1-.63.36,4,4,0,0,1-1.66.36,3.23,3.23,0,0,1-3.5-3.25,3.2,3.2,0,1,1,6.39,0Zm-.91-1.27a1.52,1.52,0,0,0-3,0Z"/><path class="cls-1" d="M253.89,57.65h-1.57v-8c.27-.1.54-.19.83-.27a7.16,7.16,0,0,1,1.88-.27,3.27,3.27,0,1,1,0,6.51,5.37,5.37,0,0,1-.77-.08l-.37-.1Zm.37-7.15-.37.1v3.49c.12,0,.24.06.37.09a3.07,3.07,0,0,0,.77.09,1.93,1.93,0,1,0,0-3.85A5.37,5.37,0,0,0,254.26,50.5Z"/><path class="cls-1" d="M265.16,53.07h-3.93a1.86,1.86,0,0,0,1.94,1.2,2.59,2.59,0,0,0,1.15-.24,2.42,2.42,0,0,0,.42-.24l.6,1.09a4.59,4.59,0,0,1-.62.36,4.05,4.05,0,0,1-1.67.36,3.22,3.22,0,0,1-3.49-3.25,3.2,3.2,0,1,1,6.39,0Zm-.9-1.27a1.52,1.52,0,0,0-3,0Z"/></g><g class="cls-2"><path class="cls-1" d="M272.63,54.88a4.33,4.33,0,0,1-.6.36,3.86,3.86,0,0,1-1.63.36,3.27,3.27,0,1,1,0-6.51,4.09,4.09,0,0,1,1.58.33,6.52,6.52,0,0,1,.59.33l-.6,1.09a3.11,3.11,0,0,0-.4-.22,2.8,2.8,0,0,0-1.05-.2,1.93,1.93,0,1,0,0,3.85,2.56,2.56,0,0,0,1.51-.48Z"/></g><g class="cls-2"><path class="cls-1" d="M276.67,49.09a3.26,3.26,0,1,1-3.38,3.26A3.26,3.26,0,0,1,276.67,49.09Zm0,1.33a1.93,1.93,0,1,0,1.75,1.93A1.79,1.79,0,0,0,276.67,50.42Z"/><path class="cls-1" d="M285.77,52.23a3,3,0,0,1,.76.26,1.22,1.22,0,0,1,.75,1.12c0,1-.86,1.87-3.07,1.87a11.53,11.53,0,0,1-1.93-.16,6.85,6.85,0,0,1-.85-.14V49.51c.24-.06.5-.11.77-.15a10,10,0,0,1,1.76-.15c2.11,0,2.9.79,2.9,1.81a1.08,1.08,0,0,1-.55.92,2.74,2.74,0,0,1-.54.23Zm-1.69-.61c.91,0,1.15-.24,1.15-.54s-.24-.54-1.27-.54a3.23,3.23,0,0,0-.66.06,1.45,1.45,0,0,0-.3.06v1ZM283,53V54a2.2,2.2,0,0,0,.37.06,5.26,5.26,0,0,0,.84.06c1.14,0,1.44-.31,1.44-.6s-.3-.6-1.31-.6Z"/></g></g></svg>