<svg id="Слой_1" data-name="Слой 1" xmlns="http://www.w3.org/2000/svg" viewBox="0 0 287.64 56.41"><defs><style>.cls-1{fill:#485463;}.cls-2{fill:#61859d;}</style></defs><polygon class="cls-1" points="138.23 18.1 132.9 18.1 126.16 25.54 119.72 18.1 114.47 18.1 123.37 28.18 113.58 39.15 118.9 39.15 126.05 31.14 132.95 39.06 133.03 39.15 138.28 39.15 128.85 28.46 138.23 18.1"/><path class="cls-1" d="M180.46,18.1h-2.91c-6.49,0-9.92,3.66-9.92,10.57s3.43,10.48,9.92,10.48h2.91c6.49,0,9.92-3.62,9.92-10.48S187,18.1,180.46,18.1Zm0,16.95h-2.91c-4,0-5.66-1.85-5.66-6.38s1.7-6.47,5.66-6.47h2.91c3.94,0,5.63,1.93,5.63,6.44S184.46,35.05,180.46,35.05Z"/><path class="cls-1" d="M195.61,25.45v13.7h4.27V25.48c0-2.21,1.34-3.28,4.1-3.28h8.56V18.1h-8.78C198.51,18.1,195.61,20.71,195.61,25.45Z"/><path class="cls-1" d="M227.21,18.1H216v4.1h11.37A2.38,2.38,0,0,1,230,24.69a2.45,2.45,0,0,1-2.71,2.57h-7.69c-2.5,0-3.62,1.08-3.62,3.51v8.38h4.26V31.47c0-.21.06-.26.28-.26h6.65c5.26,0,7.13-3.61,7.13-6.71S232.47,18.1,227.21,18.1Z"/><polygon class="cls-1" points="71.02 22.2 77.26 22.2 77.26 39.15 81.56 39.15 81.56 22.2 87.8 22.2 87.8 18.1 71.02 18.1 71.02 22.2"/><path class="cls-1" d="M91.54,28.64c0,6.88,3.43,10.51,9.92,10.51H110v-4.1h-8.53c-3.37,0-5.06-1.32-5.52-4.43h11v-4h-11c.46-3.11,2.16-4.43,5.52-4.43H110V18.1h-8.53C95,18.1,91.54,21.75,91.54,28.64Z"/><path class="cls-1" d="M247.06,17.74c-2.48,0-3.94.86-4.75,2.81l-7.64,18.6h4.68l6.84-16.67a.81.81,0,0,1,.83-.55.76.76,0,0,1,.8.53l3.56,9.07h-6v4H253l1.42,3.63h4.72l-7.36-18.6C251,18.63,249.49,17.74,247.06,17.74Z"/><path class="cls-1" d="M284.93,35.16l-5.77-14.61c-.76-1.92-2.25-2.81-4.68-2.81s-3.94.86-4.74,2.81l-6,14.61H261v4h26.67v-4Zm-16.52,0,5.2-12.68a.83.83,0,0,1,.84-.55.74.74,0,0,1,.79.53l5,12.7Z"/><polygon class="cls-1" points="157.91 26.63 146.46 26.63 146.46 18.1 142.19 18.1 142.19 39.15 146.46 39.15 146.46 30.62 157.91 30.62 157.91 39.15 162.21 39.15 162.21 18.1 157.91 18.1 157.91 26.63"/><polygon class="cls-2" points="19.88 22.68 26.07 22.68 26.07 39.51 30.34 39.51 30.34 22.68 36.53 22.68 36.53 18.61 19.88 18.61 19.88 22.68"/><path class="cls-2" d="M10,33.53,4.64,28.21,10,22.89v-6l-9,9A3.28,3.28,0,0,0,0,28.21a3.24,3.24,0,0,0,1,2.3l9,9Z"/><path class="cls-2" d="M22.89,10l5.32-5.32L33.53,10h6l-9-9a3.26,3.26,0,0,0-4.6,0l-9,9Z"/><path class="cls-2" d="M55.46,25.91l-9-9v6l5.32,5.32-5.32,5.32v6l9-9A3.25,3.25,0,0,0,55.46,25.91Z"/><path class="cls-2" d="M33.53,46.46l-5.32,5.32-5.32-5.32h-6l9,9a3.26,3.26,0,0,0,4.6,0l9-9Z"/></svg>