<svg width="60" height="51" viewBox="0 0 60 51" fill="none" xmlns="http://www.w3.org/2000/svg">
<path d="M3.64626 47.5277L3.62265 47.4006L3.54071 47.352L3.44516 47.3162L3.37072 47.1675L3.41164 47.1715L3.45266 47.1675L3.32109 46.944L3.26896 46.8115L3.24785 46.6748L3.27952 46.4178L3.27146 46.3255L3.20313 46.2522V46.181L3.25711 46.1736L3.29378 46.1515L3.37072 46.0572L3.34091 46.0158L3.30424 45.95L3.28498 45.8887L3.30859 45.8621L3.36387 45.836L3.35026 45.7766L3.30989 45.7095L3.28813 45.6602L3.3223 45.4403L3.34655 45.3379L3.37072 45.2693L3.47257 45.1534L3.59858 45.0771L3.71404 44.964L3.78107 44.7418L3.67061 44.5943L3.57626 44.4211L3.6433 44.3417L3.66811 44.1343L3.74015 44.0945L3.737 44.0505L3.73265 44.0391L3.72209 44.0386L3.69848 44.0292L3.73755 43.9208L3.7419 43.6107L3.78098 43.4343L3.89458 43.1681L3.97338 43.0454L4.06772 42.9763L3.99884 42.8123L3.91375 42.4494L3.86412 42.3296L3.85792 42.2189L3.83366 42.1078L3.76042 42.0573L3.70394 42.0324L3.66793 41.9715L3.63756 41.8932L3.59784 41.8186L3.48488 41.751L3.19999 41.7597L3.08333 41.7232L2.91639 41.394L2.94055 41.3601L2.95731 41.2449L2.93435 41.1724L2.8338 41.2688L2.79408 41.2233L2.73445 41.174L2.71084 41.1312L2.62826 41.2297L2.57113 41.2191L2.51715 41.1641L2.44206 41.1312L2.35577 41.1641L2.33836 41.1481L2.38243 41.0592V40.9994L2.25642 40.9862L1.88338 40.8479L1.80459 40.7694L1.7121 40.805L1.28008 40.6898L1.14472 40.6043L1.19249 40.4326L1.17323 40.3056L1.1074 40.2105L1.06277 40.1735L1.01861 40.1369L1 40.1324L1.27869 39.5705L1.38915 39.4005L1.62997 39.1096L2.36123 37.999L2.89074 37.564L3.42275 37.2579L4.4265 36.9756L5.22415 36.4385L5.46312 36.1478L5.54571 35.7307L5.5333 35.4374L5.48302 34.2515L5.46747 34.1766L5.4433 34.1272L5.42284 34.0684L5.41729 33.9633L5.43404 33.886L5.50043 33.7537L5.51849 33.6931L5.51599 33.6146L5.46506 33.3413L5.46441 33.2786L5.47867 33.1606L5.46877 33.0852L5.39988 32.9397L5.21804 32.7089L5.16647 32.5422L5.17452 32.3502L5.2323 32.2147L5.30489 32.0961L5.35886 31.9542L5.37257 31.7154L5.30924 31.5967L5.20619 31.5177L5.09878 31.4012L5.0274 31.2485L4.98083 31.1049L4.92185 30.9654L4.8138 30.8223L4.70769 30.541L4.46743 29.6057L4.34697 29.2924L4.06393 28.7111L3.55432 27.1644L3.4109 26.4688L3.39729 25.8558H3.39664L3.25072 25.644L3.18739 25.4383L3.13212 24.906L3.07064 24.6539L2.9912 24.4228L2.92907 24.1777L2.92167 23.8836L3.12897 23.937L3.66839 24.2595L3.77144 24.2957L3.86458 24.288L4.16068 24.1625L4.53622 24.1096L4.64047 24.0339L4.73297 23.9976L4.77454 24.0059L4.88259 24.0687L4.93351 24.0843L4.98009 24.0765L5.43877 23.8156L5.52941 23.7985L5.62311 23.8369L5.80005 23.9495L5.89874 23.9728L6.28363 23.9682L6.46112 23.9195L6.83231 23.7217L7.02971 23.6865L7.21905 23.7514L7.38728 23.9532L7.49098 24.2415L7.55496 24.3379L7.67107 24.3603L7.87402 24.3514L8.06457 24.4079L8.28057 24.41L8.49778 24.3011L9.18618 23.6921L9.48913 23.5188L9.87272 23.4445L10.0161 23.3354L10.0385 23.3312L10.0608 23.337L10.0825 23.351L10.1601 23.5468L10.2489 23.6335L10.3588 23.6413L10.748 23.5785L10.8542 23.5219L10.9305 23.3511L10.9312 23.3501L10.9318 23.3491L10.9325 23.3486L10.9442 23.0737L10.8908 22.8823L10.8101 22.7101L10.7387 22.4926L10.7107 22.339L10.7213 22.3052L10.7592 22.3015L10.8126 22.2348L10.9249 22.165L10.928 22.1265L10.9205 22.0592L10.9212 21.9826L10.9454 21.919L11.1221 21.8139L11.1521 21.796L11.4301 21.7652L11.7063 21.8043L12.1799 21.9863L12.4494 21.9425L12.7113 21.7752L12.9571 21.5034L13.0565 21.2925L13.1793 20.8167L13.2557 20.6839L13.3631 20.6662L13.7442 20.801L14.2377 20.7738L14.3836 20.6803L14.6244 20.3293L14.7759 20.2576L14.8523 20.2754L14.892 20.3141L14.9209 20.3711L15.3442 20.9421L15.2933 20.9803L15.153 20.9688L15.0302 21.0383L15.0159 21.1387L15.1605 21.2154L15.194 21.302L15.1506 21.3772L14.9793 21.4357L14.9346 21.5067L14.9799 21.6871L15.1164 21.816L15.2785 21.8947L15.8104 21.9817L15.942 21.9775L16.0046 21.941L16.0996 21.8101L16.1648 21.7809L16.3902 21.8111L16.4616 21.8007L16.6 21.6979L16.6478 21.5393L16.6533 21.0772L16.6719 21.0308L16.7427 20.9368L16.7569 20.8918L16.7414 20.8302L16.7122 20.8087L16.6793 20.7967L16.6552 20.7633L16.6154 20.6514L16.5683 20.5604L16.5149 20.4861L16.4571 20.4228L16.4298 20.4165L16.3609 20.439L16.3368 20.4333L16.3138 20.3961L16.2498 20.2161L16.2319 20.1171L16.197 20.0338L16.1151 19.9867L16.0251 20.0103L15.665 20.1972L15.4043 20.2145L15.2739 20.1648L15.192 20.0338L15.2001 19.7787L15.313 19.5596L15.5886 19.2313L15.696 19.0109L15.7184 18.815L15.714 18.6033L15.7401 18.3368L15.806 18.1306L15.8978 18.0081L16.2653 17.7928L16.3801 17.6764L16.4639 17.5179L16.4949 17.315L16.4607 17.1178L16.3118 16.7554L16.2714 16.5532L16.2782 16.4244L16.3044 16.323L16.336 16.229L16.3596 16.1206L16.369 16.0148L16.3485 15.4921L16.3671 15.355L16.431 15.2634L16.562 15.1474L16.621 15.1177L16.662 15.1166L16.6924 15.097L16.7191 15.0106L16.7153 14.9258L16.6638 14.7212L16.6551 14.6294L16.7178 14.4362L16.8369 14.3136L16.9765 14.2069L17.1019 14.0609L17.1404 13.9556L17.151 13.8626L17.1727 13.7855L17.2435 13.7255L17.4694 13.6303L17.5793 13.6335L17.7978 13.6835L17.9096 13.6856L18.6389 13.5383L18.8555 13.4153L18.9455 13.3169L19.0458 13.165L19.151 13.0055L19.372 12.5297L19.4005 12.4416L19.4117 12.3174L19.4061 12.0613L19.4223 11.9438L19.611 11.6495L19.8816 11.6025L20.547 11.7735L20.5979 11.7724L20.6569 11.7538L20.6941 11.7131L20.7295 11.6522L20.7804 11.6014L20.8661 11.5918L21.4998 11.8722L21.6321 11.8487L21.7246 11.6981L21.7916 11.3977L21.8301 11.1105L21.8735 11.0003L21.9685 10.8707L22.1411 10.7021L22.2336 10.6479L22.4667 10.5863L22.621 10.5456L22.7656 10.4368L22.832 10.2696L22.7771 10.0947L22.6393 9.99012L21.6427 9.81737L21.2802 9.91395L21.1785 9.90857L20.8203 9.776L20.726 9.71159L20.6987 9.60317L20.757 9.40983L20.9004 9.14706L20.942 9.04866L21.0214 8.6608L21.0729 8.54564L21.2858 8.33235L21.305 8.21117L21.1921 7.99287L21.2187 7.74158L21.3361 7.55116L21.4832 7.38334L21.5998 7.20084L21.6576 6.97015L21.6725 6.69444L21.6496 6.41364L21.5937 6.16518L21.7204 5.94524L21.8675 5.86561L22.0282 5.88237L22.3479 6.0092L22.4857 5.9989L22.965 5.75509L23.0848 5.61633L23.4293 4.99285L23.7757 4.57365L23.9055 4.49256L23.9154 4.48637L24.6944 4.38742L24.9387 4.42769L25.0693 4.49839L25.4436 4.81282L25.6087 4.90356L25.7254 4.85464L26.0059 4.58431L26.1289 4.44081L26.2788 4.61319L26.4665 4.72353L26.6646 4.78248L27.42 4.8509L27.5889 4.82976L27.6417 4.66813L27.6935 4.44364L27.7357 3.94252L27.9031 3.47567L28.5001 3.08626L28.6957 2.74132L28.7212 2.48784L28.9092 2.29606L29.3183 1.98546L29.3908 1.84542L29.4436 1.71568L29.5032 1.60015L29.5969 1.50348L29.6727 1.4643L29.921 1.41173L30.178 1.28846L30.342 1.17165L30.445 1.09831L30.7015 1L30.9293 1.1527L31.0507 1.33465L31.4672 1.78647L31.6529 2.04504L31.7757 2.16786L31.9024 2.20941L32.0377 2.12932L32.2363 1.82374L32.3759 1.7236L33.2651 1.62666L33.6068 1.68306L33.7074 1.7247L33.763 1.78274L33.8614 1.9655L34.0705 2.26353L34.1227 2.37122L34.1791 2.61959L34.212 2.87051L34.2775 3.08499L34.4308 3.22275L34.8935 3.35176L35.0251 3.31905L35.0382 3.07305L35.1983 2.9096L35.5732 2.74387L35.5739 2.74332L35.5751 2.74277L35.9258 2.51773L36.2256 2.40512L36.5732 2.41523L36.9143 2.53349L37.1995 2.74378L37.3864 2.89119L38.3075 3.1463L38.4168 3.21282L38.5217 3.31559L38.6328 3.46118L38.6899 3.55876L38.7101 3.64322L38.6869 3.71046L38.6459 3.72112L38.5968 3.7162L38.5477 3.73716L38.4899 3.78071L38.4409 3.80167L38.395 3.83866L38.3477 3.9274L38.3273 4.01915L38.2969 4.27654L38.2746 4.38614L38.1318 4.73902L38.1045 4.90584L38.1474 5.12578L38.2234 5.27885L38.5216 5.52786L38.8097 5.95225L38.9288 6.01731L39.0924 5.9713L39.5564 5.42016L40.1498 5.07795L40.3099 5.04479L40.7246 5.14929L40.8797 5.06893L41.1144 4.63679L41.2627 4.44755L41.493 4.31435L41.7326 4.26187L41.9759 4.27654L42.6847 4.53839L42.8415 4.48618L43.1112 4.22834L43.2493 4.15873L43.3545 4.18862L43.5572 4.37302L43.6729 4.44646L44.8622 4.83696L44.9137 4.89782L44.9162 4.9883L44.8802 5.07412L44.865 5.1615L44.9336 5.2527L45.4675 5.50936L45.5308 5.55929L45.5749 5.62708L45.5997 5.75937L45.5804 5.85476L45.5525 5.93932V6.0379L45.6282 6.18304L45.7499 6.26531L45.8852 6.2962L46.1304 6.2767L46.213 6.32053L46.2707 6.42339L46.329 6.5873L46.5041 6.92523L46.6754 6.95493L46.8758 6.84195L47.1375 6.75112L47.3687 6.86145L47.4946 7.09898L47.5289 7.16349L47.5704 7.55116L47.4481 7.92016L47.5381 7.98112L47.5685 7.99132L47.5313 8.12288L47.3749 8.24415L47.3395 8.41763L47.3864 8.6055L47.4835 8.73625L47.5636 8.874L47.5617 9.08055L47.4876 9.2031L47.1254 9.46158L46.9187 9.75314L46.8343 9.94848L46.8169 10.1432L46.8758 10.2735L46.9795 10.3625L47.1924 10.4756L47.2706 10.5993L47.3709 10.9827L47.4563 11.1111L47.7356 11.3262L47.8111 11.4171L47.8195 11.4588L47.7934 11.5524L47.8051 11.6048L47.8256 11.6208L47.8871 11.6417L47.9026 11.6556L47.9293 11.7101L47.9566 11.7448L47.9653 11.7972L47.9362 11.9056L47.8884 11.9756L47.8741 12.0493L47.8909 12.1268L47.9362 12.2058L48.0178 12.4047L48.0911 12.6586L48.0864 12.8589L47.9363 12.9037L47.6532 12.8318L47.5315 12.8424L47.4918 12.9665L47.5539 13.1369L47.6408 13.2487L47.6688 13.3716L47.5564 13.5701L47.449 13.6482L47.0833 13.7221L46.9406 13.8369L46.9561 13.9437L47.0163 14.0989L47.0082 14.3564L46.9157 14.5204L46.7785 14.6621L46.6599 14.8445L46.6271 15.1312L46.6748 15.295L46.7676 15.3633L47.0153 15.4486L47.9362 16.1178L48.0255 16.2795L48.0466 16.4687L48.1782 16.4449L48.6841 16.4998L48.825 16.7849L49.0612 16.977L48.8902 17.3719L48.5904 17.8507L48.4408 18.2948L48.6145 18.4257L49.0608 18.5514L49.1276 18.6908L49.1288 18.6932L49.3078 18.7447L49.4059 18.948L49.5462 19.4685L49.6244 19.5933L49.6989 19.673L49.7628 19.7667L49.8062 19.9302L49.8491 20.5242L49.913 20.8102L50.0024 20.9628L50.9391 21.6963L51.0936 21.8245L51.2407 21.8902L51.5545 21.97L52.0579 22.2488L52.2435 22.2883L52.4115 22.293L52.4773 22.3264L52.5456 22.4056L52.5915 22.5201L52.6324 22.6674L52.6845 22.786L52.7581 22.8136L52.908 22.7111L52.9403 22.7002L52.993 22.7367L53.0005 22.77L52.9987 22.8168L53.1365 23.3517L53.1061 23.4296L53.0955 23.5034L53.093 23.5782L53.085 23.655L53.0161 23.8755L52.918 24.4532L52.8125 24.7055L52.5797 25.0843L52.5248 25.332L52.7809 25.3367L53.2967 25.5093L54.5606 25.1841L54.6953 25.211L55.0485 25.4638L55.8027 25.6721L56.0153 25.826L56.2049 26.0831L56.2915 26.1362L56.5904 26.1222L56.7139 26.1408L56.8305 26.2121L56.9448 26.3591L56.9882 26.4329L57.0025 26.5082L56.9882 26.5829L56.9448 26.6551L56.4976 26.8844L56.4554 26.9246L56.4489 27.0039L56.4675 27.179L56.5299 27.4527L56.6376 27.6595L56.7788 27.8106L56.9448 27.9175L57.2464 28.0588L57.3874 28.1646L57.4811 28.3454V28.3474L57.5226 28.4105L57.5676 28.4285L57.617 28.4064L57.6654 28.3474L57.771 28.3289L57.8765 28.3448L57.964 28.3947L57.9479 28.4773L57.9122 28.5799L57.943 28.6891L58.0119 28.7122L58.1937 28.647L58.2701 28.648L58.38 28.8727L58.3695 28.9563L58.2894 29.5971L58.3676 29.9087L58.2503 29.9982L58.1534 29.9893L58.0628 29.9443L57.9616 29.9212L57.5417 30.0132L57.5628 30.0444L57.6134 30.1372L57.6375 30.1724L57.4768 30.2657L57.2856 30.303L57.0953 30.282L56.9448 30.203L56.7903 30.2498L56.7443 30.3652L56.7971 30.4737L56.9362 30.5021L56.8766 30.6943L56.7953 30.8798L56.6029 31.1983L56.4943 31.314L56.3956 31.3638L56.1777 31.4347L55.9822 31.609L55.8313 31.8249L55.6681 31.9834L55.354 31.976L55.323 32.0129L55.3143 32.0663L55.3001 32.1052L55.2989 32.1302L55.302 32.1765L55.2955 32.2238L55.2666 32.2512L55.2443 32.2494L55.1915 32.2346L54.9737 32.2631L54.8188 32.3824L54.7632 32.4132L54.5559 32.4048L54.1183 32.2276L53.942 32.2466L53.7868 32.3257L53.6429 32.3422L53.5013 32.3069L53.191 32.1266L53.1137 32.1075L52.8986 32.1289L52.8353 32.1055L52.7403 31.9531L52.6757 31.5452L52.5951 31.3744L52.4886 31.3156L52.2239 31.312L52.1066 31.2891L51.7407 31.1458L51.6181 31.1366L51.4983 31.172L51.2717 31.2926L51.1283 31.3005L50.8397 31.2421H50.5535L50.3263 31.4193L50.2146 31.8942L50.222 32.0177L50.2245 32.0302L50.2444 32.1317L50.2574 32.238L50.2372 32.3379L50.1798 32.4035L50.0315 32.4308L49.97 32.46L49.6702 32.9315L49.5368 33.0694L49.9906 33.4353L50.0899 33.6224L50.2526 34.1079L50.383 34.3094L50.5643 34.4832L50.7617 34.6107L50.9398 34.6721L51.0869 34.6921L51.1329 34.769L51.1471 34.8928L51.1999 35.0562L51.2865 35.1717L51.3597 35.2217L51.4214 35.2967L51.4736 35.4878L51.4779 35.9003L51.3439 36.0912L50.9398 36.3172L51.0062 36.4676L51.2731 36.8243L51.4519 37.2169L51.5307 37.3368L51.7479 37.5239L51.8287 37.6261L51.8026 37.7233L51.7213 37.7434L51.5028 37.6922L51.4122 37.6992L51.4383 37.7331L51.5122 37.8528L51.4054 37.8987L51.3598 37.9775L51.3743 38.0711L51.4494 38.1644L51.5841 38.2617L51.5928 38.5002L51.5565 38.7885L51.5538 39.0359L51.5988 39.1418L51.6599 39.2236L51.7051 39.3294L51.7083 39.5039L51.6732 39.6347L51.6102 39.7537L51.5342 39.8513L51.4607 39.9203L51.6395 40.182L51.7388 40.291L51.8456 40.3707L51.9493 40.4071L52.1579 40.4438L52.2541 40.4992L52.1908 40.5788L52.1488 40.7019L52.1342 40.8428L52.1516 40.9771L52.1945 41.077L52.2497 41.136L52.552 41.3432L52.6333 41.4791L52.6576 41.6695L52.6439 41.9534L51.9567 41.9893L50.9052 41.7879L50.354 41.7906L49.8816 41.9831L49.7606 42.1394L49.6681 42.3317L49.5694 42.4926L49.4285 42.553L49.2839 42.4981L49.0095 42.2657L48.8631 42.1834L48.6319 42.1551L47.809 42.2025L47.6594 42.2503L47.5657 42.3516L47.6011 42.514L47.5713 42.5622L47.5539 42.6094L47.5405 42.6553L47.5203 42.7035L47.696 42.7273L47.7538 42.8551L47.7003 42.9796L47.5439 42.9913L47.5028 42.936L47.4693 42.9204L47.434 42.9363L47.3849 42.9744L47.3377 43.0337L47.3265 43.0927L47.3302 43.1421L47.3283 43.1731L47.2668 43.2559L47.2005 43.3268L47.1259 43.387L47.0403 43.4393L46.8702 43.5042L46.867 43.5386L46.8832 43.598L46.9155 43.6379V43.703L46.8342 43.8147L46.7807 43.8733L46.7286 43.8991L46.5498 43.8828L46.5014 43.8991L46.4785 43.9597L46.4747 44.0493L46.4586 44.1306L46.3351 44.1954L46.2966 44.2585L46.2681 44.3218L46.2352 44.3507L46.2185 44.3838L46.0874 44.5528L46.0489 44.6218L46.0228 44.6502L46.0247 44.6868L46.0687 44.7779L46.0743 44.9263L45.9675 45.0352L45.8335 45.1223L45.7596 45.2052L45.8794 45.2646L45.9278 45.2701V45.3413L45.8611 45.4118L45.8427 45.5235L45.834 45.6416L45.8005 45.7318L45.7335 45.7622L45.5473 45.7681L45.4722 45.7908L45.5064 45.9196L45.4362 46.1208L45.4722 46.2523L45.4312 46.2922L45.3821 46.364L45.3498 46.3886L45.3672 46.4253L45.3899 46.5177L45.3132 46.551L45.1406 46.7076V46.7781L45.2573 46.8772L45.3088 46.9082V46.9671L45.2617 46.9801L45.2365 46.9964L45.2163 47.0155L45.1853 47.0381V47.097L45.2548 47.187L45.4547 47.2439L45.5543 47.2916L45.5087 47.3973L45.4789 47.442L45.4274 47.4862L45.5006 47.5404L45.5627 47.6037L45.5888 47.6741L45.5543 47.7514L45.5838 47.8655L45.634 47.9371L45.6961 47.9793L45.7594 48.0048V48.0758L45.6793 48.0609L45.6116 48.0829L45.5664 48.1498L45.5542 48.2696L45.5775 48.3821L45.6238 48.4048L45.6865 48.4085L45.7594 48.4638L45.7861 48.5265L45.8451 48.793L45.8755 48.8438L45.9177 48.8998L45.9239 48.9492L45.8451 48.981L45.8804 49.2483L45.7131 49.4215L45.5297 49.5527L45.5136 49.6912L45.4062 49.8773L45.3897 49.8963L45.3819 50.1216L45.3779 50.1306L45.3541 50.1845L45.2879 50.2L45.2422 50.1107L45.1749 50.0373L45.0985 49.9875L45.0179 49.9663L44.9341 49.9763L44.84 49.9473L44.7062 49.7478L44.6181 49.6655L44.5306 49.6439L44.3518 49.645L44.2599 49.6096L44.1799 49.5378L43.9962 49.3042L43.9514 49.2037L43.9682 49.1941L44.0185 48.9966L44.029 48.922L44.0297 48.8239L44.0232 48.749L44.0062 48.6861L43.9701 48.6215L43.8932 48.5503L43.59 48.4038L43.5053 48.3152L43.2805 48.0109L43.112 47.8875L42.9398 47.8407L42.0993 47.863L41.9615 47.903L41.5972 48.0927L41.5221 48.0969L41.4259 48.0326L41.3642 48.027L41.2881 48.0802L41.1869 48.2635L41.1261 48.3294L41.0181 48.3573L40.4731 48.2669L40.3974 48.163L40.3446 48.0187L40.2452 47.8476L40.1415 47.7764L40.01 47.758L39.8715 47.7794L39.7529 47.8291L39.6288 47.9399L39.5438 48.0646L39.4538 48.1708L39.3147 48.2274L39.1583 48.245L39.077 48.2862L39.0174 48.3982L38.9293 48.6293L38.8418 48.7828L38.7222 48.7842L38.46 48.6778L38.3216 48.7214L38.1629 48.8586L38.0866 48.9244L37.9628 48.9673L37.8251 48.8902L37.7505 48.7194L37.6996 48.5126L37.6319 48.3295L37.5091 48.1874L37.4092 48.1141L37.3688 48.0065L37.4253 47.7606L37.4017 47.512L37.3315 47.3562L37.131 47.0563L37.0047 46.711L36.9299 46.5937L36.7853 46.5042L36.5438 46.4454L36.421 46.4513L36.303 46.4934L36.1832 46.609L36.0411 46.91L35.9263 47.0331L35.7686 47.092L35.3981 47.0957L35.2224 47.1333L35.0319 47.2344L34.8395 47.3832L34.6712 47.5859L34.5533 47.8477L34.5365 48.0076L34.5496 48.369L34.5204 48.5089L34.4124 48.6296L34.349 48.5314L34.3062 48.3548L34.2633 48.2375L34.1864 48.2299L34.1069 48.2807L34.0206 48.3194L33.9213 48.2718L33.8629 48.1711L33.8244 48.0383L33.7301 47.5073L33.7152 47.3139L33.6624 47.1845L33.5072 47.1221L32.9685 47.0088L32.8055 47.0123L32.65 47.0649L32.3508 47.2653L32.1953 47.4144L32.1187 47.4544L32.0404 47.4237L32.0063 47.3478L31.9417 47.0855L31.9027 46.9857L31.8281 46.9046L31.6553 46.7972L31.5836 46.7259L31.5331 46.6182L31.5271 46.5324L31.5302 46.4515L31.5075 46.356L31.4191 46.2559L31.2968 46.248L31.1621 46.3125L31.0335 46.4276L30.9162 46.6058L30.7213 46.9748L30.5767 47.1038L30.4606 47.1458L29.874 47.144L29.7635 47.1158L29.6512 47.0566L29.2881 46.6663L29.1596 46.5969L29.0218 46.6198L28.9094 46.7236L28.8312 46.8836L28.7933 47.0754L28.7964 47.1962L28.8116 47.2987L28.8169 47.4025L28.7893 47.5289L28.7579 47.5895L28.477 47.9645L28.4143 48.0238L28.319 48.0376L28.2337 48.0013L28.1359 47.9256L28.0552 47.8373L28.0303 47.7863L28.018 47.7611L28.2172 47.283L28.2644 47.0437L28.1893 46.8452L28.0943 46.7921L27.7567 46.7818L27.1069 46.5229L27.1061 46.5227L26.8957 46.5175L26.7846 46.5762L26.6176 46.7577L26.4856 46.8216L26.3618 46.831L26.0055 46.7718L25.7666 46.8477L25.6356 46.8618L25.5548 46.7868L25.589 46.6258L25.6778 46.4212L25.6957 46.2561L25.5183 46.213L25.3723 46.2317L25.2519 46.2179L25.1644 46.1357L25.1166 45.9486L25.1191 45.6938L25.1352 45.4905L25.0974 45.3413L24.9366 45.2488L24.6896 45.1948L24.1589 45.1746L23.5536 45.3848L23.157 45.3196L22.0217 44.8225L20.6995 44.7823L20.6151 44.7381L20.5412 44.6358L20.5275 44.5429L20.5454 44.4559L20.5442 44.3877L20.4722 44.3519L19.0762 44.2935L18.8962 44.2156L18.5082 43.8728L18.3269 43.833L17.9098 43.8458L16.6292 43.6059L16.1221 43.7064L15.3049 43.6928L14.1311 43.6732L13.1181 43.4022L12.8463 43.4099L12.5738 43.498L12.0337 43.7786L10.3466 44.0481L10.2218 44.0426L9.85365 43.9543L8.35835 44.0703L8.23113 44.1173L8.10077 44.2509L7.88226 44.5723L7.78976 44.758L7.64699 45.3812L7.47756 45.6167L6.79657 46.0783L5.89902 46.8761L5.65876 46.9149L5.48802 46.7564L5.31979 46.5537L5.08202 46.4591L4.93185 46.4453L4.50789 46.3196L4.36697 46.3158L3.78283 46.4664L3.70894 46.507L3.64746 46.5705L3.57488 46.6957L3.56867 46.7719L3.60349 46.8478L3.76672 47.305L3.78098 47.3969L3.75366 47.5424L3.70154 47.5689L3.64626 47.5277Z" stroke="#4C86A0" stroke-width="1.5" stroke-linecap="round" stroke-linejoin="round"/>
<path d="M52.646 41.4788L51.9587 41.5147L50.9072 41.3133L50.356 41.316L49.8835 41.5085L49.7625 41.6648L49.67 41.8572L49.5713 42.0181L49.4304 42.0784L49.2858 42.0236L49.0114 41.7911L48.8649 41.7088L48.6337 41.6805L47.8109 41.728L47.6612 41.7757L47.5675 41.877L47.6029 42.0394L47.5731 42.0876L47.5557 42.1348L47.5423 42.1807L47.5221 42.2289L47.6978 42.2528L47.7556 42.3806L47.7022 42.5051L47.5457 42.5168L47.5047 42.4615L47.4711 42.4459L47.4358 42.4617L47.3867 42.4999L47.3395 42.5592L47.3283 42.6182L47.332 42.6676L47.3301 42.6986L47.2686 42.7814L47.2022 42.8523L47.1277 42.9125L47.0421 42.9648L46.872 43.0297L46.8688 43.0641L46.8849 43.1235L46.9172 43.1635V43.2286L46.8359 43.3402L46.7825 43.3989L46.7304 43.4247L46.5516 43.4084L46.5032 43.4247L46.4802 43.4853L46.4765 43.5749L46.4604 43.6562L46.3369 43.721L46.2984 43.7841L46.2698 43.8474L46.237 43.8763L46.2202 43.9094L46.0892 44.0785L46.0507 44.1474L46.0246 44.1759L46.0264 44.2124L46.0705 44.3035L46.076 44.452L45.9693 44.5609L45.8352 44.648L45.7613 44.7309L45.8811 44.7903L45.9296 44.7958V44.867L45.8628 44.9375L45.8445 45.0492L45.8358 45.1673L45.8026 45.2578L45.7356 45.2882L45.5494 45.2941L45.4743 45.3168L45.5084 45.4456L45.4383 45.6468L45.4743 45.7783L45.4333 45.8182L45.3842 45.8901L45.3519 45.9147L45.3693 45.9513L45.392 46.0438L45.3153 46.0771L45.1427 46.2337V46.3042L45.2594 46.4033L45.3109 46.4343V46.4932L45.2637 46.5062L45.2385 46.5225L45.2184 46.5416L45.1873 46.5642V46.6231L45.2569 46.7131L45.4568 46.77L45.5564 46.8177L45.5108 46.9235L45.4809 46.9681L45.4295 47.0123L45.5027 47.0665L45.5647 47.1299L45.5909 47.2003L45.5564 47.2776L45.5859 47.3916L45.6361 47.4633L45.6982 47.5054L45.7615 47.531V47.602L45.6814 47.5871L45.6137 47.6091L45.5684 47.676L45.5563 47.7958L45.5796 47.9083L45.6259 47.9311L45.6885 47.9347L45.7615 47.99L45.7882 48.0527L45.8472 48.3192L45.8776 48.3701L45.9198 48.4261L45.926 48.4755L45.8472 48.5073L45.8825 48.7745L45.7152 48.9479L45.5318 49.0791L45.5157 49.2176L45.4083 49.4036L45.3918 49.4227L45.384 49.6479L45.38 49.6569L45.3561 49.7109L45.2899 49.7264L45.2443 49.6371L45.177 49.5636L45.1006 49.5139L45.0199 49.4927L44.9361 49.5027L44.8421 49.4736L44.7083 49.2741L44.6201 49.1919L44.5326 49.1702L44.3538 49.1714L44.262 49.1359L44.1819 49.0641L43.9982 48.8305L43.9534 48.73L43.9702 48.7204L44.0205 48.5229L44.031 48.4483L44.0317 48.3501L44.0252 48.2752L44.0082 48.2123L43.9721 48.1477L43.8952 48.0765L43.592 47.9301L43.5072 47.8414L43.2825 47.5371L43.114 47.4137L42.9418 47.3668L42.1012 47.3892L41.9634 47.4292L41.5991 47.6189L41.524 47.6231L41.4278 47.5588L41.366 47.5532L41.29 47.6064L41.1888 47.7897L41.128 47.8556L41.0199 47.8835L40.4749 47.7931L40.3992 47.6892L40.3464 47.5449L40.247 47.3738L40.1433 47.3026L40.0118 47.2842L39.8733 47.3055L39.7547 47.3553L39.6306 47.4661L39.5456 47.5908L39.4556 47.697L39.3165 47.7536L39.1601 47.7712L39.0788 47.8124L39.0192 47.9244L38.931 48.1556L38.8435 48.309L38.724 48.3105L38.4618 48.2041L38.3233 48.2476L38.1646 48.3848L38.0883 48.4507L37.9645 48.4935L37.8268 48.4165L37.7522 48.2457L37.7013 48.0389L37.6336 47.8557L37.5107 47.7136L37.4108 47.6403L37.3705 47.5327L37.427 47.2868L37.4033 47.0382L37.3332 46.8823L37.1327 46.5824L37.0064 46.2371L36.9316 46.1198L36.787 46.0302L36.5455 45.9715L36.4226 45.9774L36.3046 46.0195L36.1848 46.1351L36.0427 46.4361L35.9279 46.5592L35.7702 46.6181L35.3996 46.6218L35.224 46.6594L35.0334 46.7605L34.841 46.9093L34.6728 47.1121L34.5548 47.3739L34.5381 47.5338L34.5511 47.8952L34.522 48.0351L34.4139 48.1558L34.3506 48.0576L34.3077 47.881L34.2648 47.7637L34.1879 47.7561L34.1084 47.8069L34.0221 47.8456L33.9228 47.798L33.8644 47.6973L33.8259 47.5645L33.7316 47.0334L33.7167 46.84L33.6639 46.7106L33.5087 46.6482L32.9699 46.5349L32.8069 46.5384L32.6515 46.591L32.3522 46.7914L32.1968 46.9405L32.1201 46.9805L32.0419 46.9498L32.0077 46.8739L31.9432 46.6116L31.9041 46.5118L31.8295 46.4307L31.6567 46.3233L31.585 46.252L31.5344 46.1443L31.5285 46.0585L31.5316 45.9776L31.5089 45.8821L31.4205 45.7819L31.2981 45.774L31.1634 45.8385L31.0349 45.9537L30.9176 46.1318L30.7227 46.5009L30.5781 46.6299L30.4619 46.6719L29.8753 46.6702L29.7648 46.6419L29.6525 46.5827L29.2894 46.1923L29.1608 46.123L29.0231 46.1459L28.9106 46.2496L28.8324 46.4096L28.7945 46.6015L28.7977 46.7224L28.8129 46.8248L28.8181 46.9287L28.7906 47.055L28.7592 47.1156L28.4782 47.4907L28.4156 47.55L28.3203 47.5638L28.2349 47.5275L28.1371 47.4518L28.0564 47.3635L28.0313 47.3125L28.0192 47.2872L28.2184 46.8091L28.2656 46.5698L28.1906 46.3713L28.0956 46.3182L27.7579 46.3079L27.1081 46.049L27.108 46.046L27.1061 45.9926L27.0903 45.2627L27.149 45.1131L27.2225 45.1053L27.2514 45.0905L27.2821 45.0461L27.3129 44.9778L27.3641 44.8365L27.379 44.7349L27.3883 44.449L27.3828 44.3641L27.3716 44.3049L27.3418 44.25L27.3036 44.2018L27.1202 44.0276L27.0745 43.973L27.0518 43.9361L27.0512 43.9064L27.0624 43.8797L27.1006 43.8294L27.1173 43.8012L27.1462 43.7376L27.1928 43.576L27.2254 43.3991L27.2272 43.3379L27.2244 43.2879L27.1863 43.1686L27.1723 43.0888L27.176 43.0385L27.1872 42.9967L27.5442 42.5398L27.5684 42.5018L27.5936 42.4507L27.6281 42.3594L27.6336 42.3068L27.629 42.2677L27.6141 42.2403L27.5964 42.2155L27.5759 42.1917L27.4279 42.0696L27.3475 41.975L27.232 41.8659L27.2134 41.841L27.2004 41.8117L27.1939 41.7471L27.1808 41.2683L27.1696 41.1464L27.1799 40.8915L27.1762 40.8103L27.1622 40.7281L27.1585 40.6806L27.1641 40.6375L27.1762 40.6028L27.192 40.5722L27.2311 40.5084L27.2525 40.4651L27.2748 40.3865L27.2804 40.3493L27.2776 40.3144L27.2682 40.2875L27.2543 40.2605L27.218 40.2087L27.1723 40.1657L26.5776 39.7993L26.4118 39.7291L26.3765 39.6926L26.3418 39.6394L26.2738 39.4598L26.2515 39.4154L26.231 39.3917L26.2059 39.3709L26.1752 39.355L26.1407 39.3418L25.8239 39.3325L25.7848 39.3155L25.7485 39.2745L25.7081 39.173L25.6944 39.1025V39.0445L25.6606 38.968L26.0421 38.4305L26.1092 38.2675L26.0729 38.1758L26.0533 38.1114L26.0391 38.0417L26.0347 37.999L26.0329 37.9499L26.0409 37.8812L26.0627 37.8471L26.0962 37.8316L26.2629 37.8225L26.3076 37.8069L26.329 37.7783L26.3618 37.6494L26.4066 37.5172L26.4475 37.4667L26.4904 37.4417L26.6478 37.4489L26.6748 37.4668L26.6909 37.4939L26.7008 37.5259L26.7132 37.5886L26.7231 37.6032L26.7365 37.6017L27.1483 37.2538L27.2014 37.2357L27.2358 37.2417L27.3243 37.4127L27.3364 37.443L27.3662 37.5033L27.383 37.5273L27.4047 37.5423L27.4168 37.5215L27.455 37.4186L27.5025 37.3322L27.5443 37.3003L27.5872 37.2903L27.6207 37.3029L27.6403 37.3265L27.6478 37.3614L27.6487 37.4013L27.6329 37.6296V37.7342L27.6347 37.7726L27.6412 37.8072L27.6543 37.8373L27.671 37.8629L27.6896 37.8859L27.8892 38.0429L28.1949 38.2052L28.2303 38.2157L28.2703 38.2212L28.7448 38.2087L28.9404 38.2518L29.6077 38.1906L29.6841 38.1571L29.7055 38.1281L29.7362 38.1045L29.8119 38.0645L29.8371 38.0424L29.853 38.0133L29.8576 37.9783L29.8567 37.9422L29.8408 37.7937L29.8325 37.7607L29.8222 37.729L29.7654 37.6237L29.7617 37.6057L29.7719 37.57L29.799 37.5277L29.8679 37.4697L29.9163 37.4451L29.9629 37.4335L30.4775 37.5454L30.5418 37.5751L30.5641 37.5926L30.5836 37.6137L30.5873 37.62L30.6208 37.7148L30.6748 37.8315L30.7251 37.9142L30.7719 37.9328L30.8436 37.9438L32.0832 37.8059L32.4663 37.4738L32.4849 37.4478L32.4961 37.4161L32.498 37.381L32.4952 37.3067L32.4589 37.0167L32.4465 36.8264L32.458 36.5006L32.4692 36.3723L32.4766 36.3307L32.5101 36.2832L32.5659 36.2323L32.6972 36.1563L32.7525 36.1138L32.773 36.0748L32.7562 36.0511L32.747 36.0181L32.7386 35.9944L32.8311 35.8765L32.8544 35.8657L33.2309 35.8287L33.5255 35.8748L33.5702 35.8718L33.613 35.8554L33.6586 35.8151L33.6875 35.7824L33.7247 35.7557L33.7688 35.7413L33.8526 35.7461L34.0211 35.7919L34.0602 35.7904L34.1002 35.776L34.1452 35.7345L34.1927 35.7047L34.2514 35.6826L34.5376 35.6788L34.5842 35.6619L34.6382 35.611L34.6949 35.5406L34.7294 35.521L34.7781 35.5121L34.927 35.5177L34.9792 35.5043L35.0239 35.4616L35.05 35.4236L35.0677 35.3842L35.0761 35.3477V35.3108L35.0658 35.2796L35.0445 35.2552L35.0146 35.237L34.8638 35.1924L34.8349 35.1743L34.8154 35.1548L34.8023 35.1352L34.7955 35.1228L34.7948 35.1034L34.801 35.0784L34.8199 35.0577L34.8479 35.0368L34.9559 34.9772L35.8042 34.7103L35.8358 34.6481L35.8489 34.6122L35.8554 34.5723L35.8637 34.449L35.8545 34.0546L35.8582 34.0161L35.8861 33.9842L35.942 33.9696L36.5404 33.9544L36.5795 33.9351L36.613 33.8789L36.626 33.8326L36.6353 33.7888L36.6576 33.7533L36.6967 33.7266L36.814 33.6729L36.8441 33.645L36.9223 33.5366L37.0648 33.3005L37.1086 33.2516L37.135 33.2315L37.1881 33.2168L37.2654 33.2103L37.5161 33.2301L38.1049 33.4059L38.1254 33.4237L38.1309 33.4404L38.1282 33.4729L38.1132 33.5493L38.1123 33.5848L38.13 33.6046L38.1654 33.6101L38.3966 33.5123L38.4273 33.4771L38.4404 33.4388L38.4367 33.4028L38.4199 33.3759L38.3733 33.3328L38.3612 33.3085L38.3677 33.2806L38.3863 33.2557L38.4226 33.2405L38.472 33.236L38.5589 33.2552L38.6045 33.2773L38.6353 33.3039L38.7108 33.4467L38.7294 33.4726L38.7601 33.4883L38.802 33.489L39.0314 33.356L39.0789 33.3167L39.1218 33.2394L39.1482 33.2156L39.1817 33.1988L39.3083 33.1674L39.9515 33.176L40.0073 33.1884L40.0483 33.2065L40.0707 33.2292L40.1237 33.2703L40.1545 33.2875L40.1911 33.2999L40.2386 33.3002L40.2889 33.2891L40.355 33.249L40.3904 33.2146L40.4165 33.1806L40.4872 33.029L40.4928 33.0082L40.4959 32.9777L40.4845 32.9503L40.4621 32.9275L40.2135 32.7936L40.1639 32.7551L40.1425 32.7335L40.0996 32.6784L40.054 32.6322L39.8789 32.5241L39.8571 32.5053L39.8583 32.4753L39.8723 32.4494L39.9933 32.2869L40.0092 32.2549L40.0213 32.2194L40.025 32.1815L40.0232 32.1449L40.0185 32.1081L40.0101 32.075L39.9952 32.0468L39.972 32.0282L39.9068 32.0119L39.8825 31.9941L39.8676 31.9657L39.8304 31.8329L39.8235 31.7999L39.8189 31.7693L39.8272 31.7424L39.8378 31.7286L40.0212 31.6441L40.051 31.6065L40.0557 31.5731L40.037 31.5475L39.9682 31.4853L39.9654 31.4634L40.0232 31.4528L40.5396 31.5029L40.5722 31.4726L40.5927 31.4416L40.6048 31.4108L40.5983 31.3833L40.576 31.3618L40.4771 31.3132L40.4538 31.2908L40.4389 31.2643L40.4529 31.2286L40.4883 31.1932L40.5658 31.143L40.5984 31.0979L40.618 31.0512L40.6394 30.8907L40.63 30.8601L40.6133 30.8323L40.5183 30.7428L40.4978 30.7185L40.4863 30.6933L40.5127 30.6742L40.5685 30.6714L40.6905 30.6963L40.7557 30.6973L40.8004 30.6698L40.8069 30.6356L40.8032 30.5986L40.7845 30.5326L40.6803 30.2922L40.658 30.2286L40.6254 30.093L40.5816 29.9655L40.5722 29.9326L40.5592 29.8626L40.5536 29.7869L40.5555 29.7469L40.5695 29.6176L40.5788 29.5775L40.5928 29.5432L40.6123 29.5151L40.7064 29.426L40.7799 29.3078L40.8022 29.2843L40.8274 29.2651L40.8572 29.25L40.9013 29.2474L40.9562 29.2589L41.0503 29.3129L41.095 29.3512L41.1462 29.4115L41.1733 29.4281L41.2061 29.4314L41.2452 29.4114L41.301 29.3674L41.3355 29.3608L41.3765 29.3741L41.4277 29.4258L41.4417 29.4664L41.4398 29.5048L41.4612 29.5316L41.5128 29.5506L41.6553 29.5465L41.7196 29.5265L41.7661 29.5009L41.7866 29.4739L41.8548 29.4028L41.8809 29.3834L41.9415 29.3568L41.9806 29.3583L42.0244 29.3757L42.0793 29.4274L42.1323 29.4995L42.1808 29.5306L42.4185 29.616L42.4874 29.6531L42.5265 29.6906L42.5315 29.7673L42.5358 29.8035L42.552 29.8306L42.5976 29.8475L42.7941 29.8608L42.8667 29.8771L42.9266 29.9205L42.9498 29.9568L42.9769 30.0242L43.0644 30.3194L43.0905 30.3786L43.1296 30.4035L43.1913 30.423L43.479 30.4204L43.5414 30.4173L43.591 30.3239L43.6833 30.2933L43.9071 30.2887L44.214 30.1588L44.3245 30.154L44.3021 30.0718L44.2909 29.9913L44.2835 29.8649L44.3248 29.847L44.4065 29.8342L44.4326 29.8148L44.4531 29.7888L44.4689 29.7558L44.482 29.7182L44.4987 29.6891L44.521 29.6701L44.5614 29.6676L44.7187 29.6822L44.7774 29.6789L44.8212 29.6661L44.8774 29.6309L44.938 29.6064L44.979 29.6013L45.6296 29.774L45.7264 29.8453L45.7674 29.9268L45.814 29.9562L45.8907 29.9822L46.0592 30.0144L46.2017 30.0167L46.2327 30.0029L46.2587 29.984L46.2783 29.9562L46.3044 29.8821L46.323 29.8496L46.3462 29.8251L46.3742 29.8073L46.418 29.8119L46.4758 29.8364L46.5698 29.899L46.6353 29.9241L46.7098 29.9221L46.7927 29.8993L47.2334 29.9762L47.2915 29.9708L47.3055 29.9422L47.3129 29.8701L47.3213 29.8329L47.3344 29.7966L47.3511 29.7644L47.3707 29.7368L47.3949 29.7149L47.4238 29.7006L47.4573 29.6919L47.4955 29.6894L47.9998 29.7436L48.0241 29.7515L48.0409 29.7684L48.0548 29.8087L48.0623 29.8412L48.0782 29.9623L48.0875 29.9947L48.1098 30.0317L48.1927 30.1422L48.2067 30.1928L48.2132 30.2364L48.2113 30.2717L48.2132 30.308L48.2169 30.3431L48.2234 30.3763L48.2355 30.4036L48.2635 30.4299L48.3075 30.4503L48.3932 30.4702L48.4425 30.4944L48.4742 30.5372L48.4854 30.5755L48.5171 30.6204L48.5627 30.6681L48.6664 30.7461L48.6925 30.793L48.6981 30.8338L48.6841 30.8684L48.6738 30.9052L48.671 30.9439L48.6729 30.9806L48.6794 31.0158L48.6886 31.0484L48.6998 31.0795L48.7101 31.1114L48.7129 31.1443L48.7055 31.1784L48.6906 31.2095L48.671 31.237L48.6012 31.3033L48.5845 31.3308L48.5789 31.3586L48.587 31.3874L48.6037 31.4128L48.6255 31.4365L48.6636 31.4535L48.7121 31.4606L48.9694 31.3939L49.0094 31.3955L49.0522 31.4067L49.1044 31.4418L49.1323 31.4736L49.1854 31.5603L49.2235 31.6122L49.2909 31.6829L49.315 31.697H49.3411L49.3663 31.6604L49.4008 31.5871L49.4194 31.5588L49.4435 31.5347L49.4706 31.5171L49.5059 31.512L49.5441 31.5187L49.5937 31.5537L49.6198 31.5858L49.658 31.6451L49.6831 31.6657L49.8348 31.6573L50.2262 31.5548L50.2272 31.5546L50.2471 31.6561L50.2601 31.7624L50.2399 31.8624L50.1825 31.928L50.0342 31.9552L49.9727 31.9845L49.6729 32.456L49.5395 32.5939L49.9933 32.9598L50.0926 33.147L50.2553 33.6324L50.3857 33.834L50.567 34.0078L50.7644 34.1353L50.9425 34.1967L51.0897 34.2167L51.1356 34.2936L51.1498 34.4174L51.2026 34.5809L51.2892 34.6963L51.3624 34.7464L51.4242 34.8214L51.4763 35.0125L51.4807 35.425L51.3466 35.6159L50.9425 35.842L51.0089 35.9923L51.2759 36.349L51.4547 36.7417L51.5335 36.8616L51.7507 37.0487L51.8314 37.151L51.8054 37.2482L51.7241 37.2683L51.5056 37.217L51.4149 37.2241L51.441 37.258L51.5149 37.3777L51.4082 37.4236L51.3625 37.5024L51.3771 37.596L51.4522 37.6893L51.5869 37.7866L51.5956 38.0251L51.5593 38.3135L51.5565 38.5609L51.6015 38.6667L51.6626 38.7486L51.7079 38.8544L51.711 39.0289L51.676 39.1597L51.613 39.2787L51.537 39.3764L51.4635 39.4454L51.6422 39.707L51.7416 39.8161L51.8484 39.8958L51.9521 39.9322L52.1607 39.9689L52.2569 40.0243L52.1935 40.1039L52.1516 40.2271L52.137 40.3679L52.1544 40.5022L52.1972 40.6021L52.2525 40.6612L52.5548 40.8684L52.6361 41.0043L52.6604 41.1947L52.646 41.4788Z" stroke="#4C86A0" stroke-width="0.5" stroke-linecap="round" stroke-linejoin="round"/>
<path d="M15.3056 43.2181L14.1318 43.1985L13.1187 42.9276L12.8469 42.9352L12.5744 43.0234L12.0343 43.304L10.347 43.5735L10.2222 43.568L9.85408 43.4797L8.35871 43.5957L8.23149 43.6427L8.10112 43.7763L7.8826 44.0977L7.7901 44.2835L7.64732 44.9067L7.47788 45.1422L6.79686 45.6039L5.89926 46.4017L5.65899 46.4406L5.48824 46.282L5.32 46.0794L5.08223 45.9847L4.93204 45.9709L4.50806 45.8452L4.36713 45.8414L3.78296 45.9921L3.70908 46.0326L3.64759 46.0961L3.575 46.2213L3.5688 46.2975L3.60361 46.3735L3.76685 46.8307L3.78111 46.9226L3.7538 47.0681L3.70167 47.0946L3.64639 47.0539L3.62278 46.9268L3.54084 46.8781L3.44528 46.8423L3.37084 46.6937L3.41176 46.6976L3.45278 46.6937L3.32121 46.4701L3.26908 46.3376L3.24796 46.2009L3.27963 45.9439L3.27158 45.8516L3.20324 45.7782V45.707L3.25722 45.6997L3.29389 45.6775L3.37084 45.5832L3.34102 45.5418L3.30435 45.4761L3.28509 45.4147L3.30871 45.3881L3.36398 45.362L3.35037 45.3026L3.31 45.2355L3.28824 45.1862L3.32241 44.9662L3.34667 44.8639L3.37084 44.7953L3.47269 44.6793L3.59871 44.6031L3.71417 44.49L3.78121 44.2677L3.67074 44.1202L3.57639 43.947L3.64343 43.8676L3.66824 43.6602L3.74028 43.6203L3.73713 43.5763L3.73278 43.5649L3.72222 43.5645L3.69861 43.5551L3.73769 43.4467L3.74204 43.1365L3.78111 42.9601L3.89472 42.6939L3.97352 42.5712L4.06787 42.502L3.99898 42.338L3.91389 41.9751L3.86426 41.8554L3.85806 41.7446L3.8338 41.6335L3.76056 41.583L3.70408 41.5581L3.66806 41.4972L3.63769 41.4189L3.59797 41.3443L3.485 41.2767L3.20009 41.2854L3.08343 41.2489L2.91648 40.9197L2.94065 40.8858L2.95741 40.7705L2.93445 40.6981L2.83389 40.7945L2.79417 40.7489L2.73454 40.6996L2.71093 40.6568L2.62834 40.7554L2.5712 40.7447L2.51722 40.6897L2.44213 40.6568L2.35583 40.6897L2.33843 40.6737L2.3825 40.5848V40.525L2.25648 40.5118L1.88343 40.3735L1.80463 40.295L1.71213 40.3306L1.28009 40.2154L1.14472 40.1298L1.1925 39.9582L1.17324 39.8312L1.10741 39.736L1.06269 39.6991L1.01861 39.6624L1 39.6579L1.2787 39.096L1.38917 38.926L1.63 38.635L2.3613 37.5244L2.89084 37.0893L3.42287 36.7832L4.42667 36.5009L5.22436 35.9637L5.46334 35.673L5.54593 35.2559L5.53352 34.9626L5.64278 34.9405L6.44047 35.0058L6.5038 34.9821L6.56093 34.9497L6.74158 34.7958L6.8788 34.7129L6.93463 34.7024L6.97463 34.7095L6.99889 34.7307L7.01565 34.7575L7.04269 34.8176L7.07528 34.8742L7.12463 34.9035L7.19945 34.9315L7.45269 34.9747L7.5163 34.9727L7.76584 34.8823L7.81519 34.8778L7.84593 34.8843L7.85899 34.9005L7.86676 34.9272L7.87047 34.9636L7.8826 34.9997L7.90963 35.0312L7.9413 35.0362L7.97112 35.0267L7.99908 35.0103L8.02325 34.9888L8.06139 34.9663L8.2088 34.9191L8.26649 34.9166L8.31121 34.9251L8.34288 34.9405L8.61139 35.1301L8.66167 35.1823L8.69149 35.2052L8.82556 35.2709L8.97862 35.2961L9.12667 35.288L9.2601 35.2503L9.30195 35.2264L9.33084 35.2047L9.34482 35.1823L9.35315 35.1603L9.35964 35.1311L9.36334 35.0937L9.35778 35.0154L9.3438 34.9437L9.31769 34.8821L9.26834 34.7993L9.25899 34.7711L9.26084 34.7407L9.30649 34.6533L9.35399 34.5144L9.37075 34.4846L9.39121 34.4595L9.52001 34.3632L9.53556 34.3359L9.54112 34.299L9.53741 34.2641L9.52621 34.2315L9.5113 34.2034L9.44704 34.1326L9.43028 34.1081L9.42658 34.08L9.44056 34.0557L9.56566 33.9115L9.58334 33.8831L9.62436 33.8441L9.68491 33.798L9.82362 33.7246L9.88538 33.681L9.92538 33.6405L9.93565 33.605L9.93751 33.566L9.93103 33.5318L9.90871 33.5088L9.87519 33.4961L9.7138 33.4724L9.68121 33.4581L9.65704 33.4384L9.64871 33.409L9.65612 33.3786L9.67473 33.3527L9.69797 33.3304L9.99065 33.1651L10.0726 33.1362L10.1312 33.1301L10.5031 33.3179L10.8246 33.3952L11.0223 33.3912L11.0838 33.3765L11.1257 33.3547L11.1443 33.3274L11.1601 33.2967L11.2011 33.1839L11.2271 33.1402L11.2796 33.0826L11.3262 33.0631L11.3728 33.0568L11.5264 33.094L11.5909 33.1229L11.6431 33.1635L11.6849 33.2121L11.7017 33.2387L11.7324 33.2968L11.7567 33.3606L11.7762 33.4275L11.7827 33.4628L11.7845 33.4995L11.7836 33.5349L11.7771 33.5724L11.7585 33.6428L11.7557 33.6743L11.7688 33.6978L11.7893 33.7137L12.042 33.8182L12.1136 33.8289L12.1527 33.817L12.1807 33.7936L12.1974 33.7633L12.2443 33.6625L12.2675 33.6286L12.3075 33.5891L12.3447 33.5835L12.3792 33.5891L12.4034 33.6068L12.4146 33.6304L12.41 33.6612L12.3244 33.9521L12.317 33.9901L12.3132 34.0265L12.317 34.0584L12.3514 34.1095L12.356 34.1434L12.3532 34.1806L12.343 34.2188L12.3374 34.2567L12.3346 34.2926L12.3551 34.3265L12.3951 34.3513L12.4733 34.3743L12.5171 34.368L12.55 34.3504L12.5748 34.3266L12.6058 34.3044L12.847 34.2098L12.9153 34.2022L12.9842 34.2073L13.0726 34.2314L13.1275 34.2352L13.1704 34.2296L13.1983 34.214L13.2192 34.1886L13.317 34.1127L13.451 34.0616L13.5236 34.05L13.573 34.0575L13.5854 34.0889L13.5957 34.1628L13.6124 34.1916L13.632 34.2158L13.6869 34.2532L13.78 34.2937L13.8732 34.3165L13.9225 34.3115L13.9591 34.2962L13.9852 34.277L14.0075 34.2558L14.0261 34.23L14.0326 34.1951L14.0335 34.1567L14.0252 34.1223L14.0066 34.0957L13.907 34.0544L13.8833 34.0316L13.8684 34.0023L13.8583 33.9699L13.8519 33.9365L13.8537 33.9016L13.8668 33.8733L13.8891 33.851L13.9387 33.812L13.9536 33.7877L13.9518 33.7578L13.9387 33.7305L13.8434 33.6434L13.8258 33.6165L13.8118 33.5872L13.8034 33.5533L13.8016 33.5133L13.8174 33.4656L13.85 33.4159L13.9332 33.3597L13.9807 33.3511L14.0319 33.3625L14.0812 33.384L14.2042 33.3946L14.2976 33.3693L14.4512 33.3047L14.5006 33.2522L14.5238 33.2071V33.1691L14.5313 33.1326L14.5453 33.1011L14.5633 33.0727L14.6284 33.0009L14.6666 32.9464L14.7345 32.8284L14.797 32.7381L14.8351 32.6967L14.8594 32.677L15.1697 32.4947L15.2108 32.4429L15.2275 32.4124L15.3758 31.9876L15.5668 31.6259L15.6173 31.484L15.6238 31.4452L15.6266 31.404L15.6238 31.3666L15.6173 31.3312L15.6061 31.2982L15.5763 31.2391L15.5583 31.2111L15.4969 31.1388L15.4708 31.1189L15.4401 31.1021L15.3182 31.0771L15.2911 31.0577L15.2799 31.0266L15.2827 30.9889L15.2976 30.9543L15.3208 30.9232L15.4484 30.8075L15.549 30.7366L15.5974 30.6932L15.6275 30.652L15.6349 30.6142V30.5762L15.6275 30.5413L15.6117 30.5127L15.5875 30.4906L15.4727 30.4173L15.4513 30.3944L15.4364 30.3668L15.4345 30.3301L15.4708 30.1677L15.4885 30.1213L15.5239 30.0661L15.5639 30.0462L15.7439 30.0262L15.7849 30.0076L15.8138 29.9828L15.8278 29.9511L15.8352 29.9112L15.8669 29.6153L15.879 29.5493L15.8855 29.5263L15.9091 29.4644L16.0822 29.1697L16.1111 29.1042L16.1233 29.0697L16.1446 29.0254L16.1782 28.9742L16.2511 28.8933L16.2995 28.8595L16.3433 28.8411L16.4197 28.8525L16.4551 28.8651L16.5026 28.874L16.565 28.8725L16.7534 28.8292L16.8102 28.8267L16.8465 28.8374L16.8772 28.8533L16.9558 28.9137L16.9986 28.9219L17.0554 28.9193L17.1522 28.8955L17.2128 28.8924L17.2606 28.8994L17.2872 28.9199L17.309 28.9432L17.3276 28.9701L17.3508 28.9916L17.3797 29.0095L17.4123 29.0238L18.2594 29.093L18.3854 29.0602L18.5195 29.0504L18.8392 29.127L19.3529 29.1564L19.5009 29.2023L19.6276 29.2659L19.6643 29.2777L19.8217 29.2644L20.2857 29.14L20.2754 29.2173L20.2605 29.5877L20.2735 29.6301L20.2981 29.6726L20.353 29.7406L20.3856 29.7984L20.4117 29.8888L20.4163 29.9476L20.4191 30.1213L20.4163 30.1598L20.406 30.1964L20.3883 30.225L20.366 30.2485L20.339 30.2658L20.308 30.2798L20.2735 30.2893L20.0268 30.2954L19.9914 30.3089L19.9241 30.3612L19.8738 30.4122L19.79 30.5181L19.6885 30.6984L19.6438 30.8019L19.6333 30.8346L19.6258 30.8733L19.6233 30.914L19.6383 30.9543L19.6699 30.9907L19.7434 31.0266L19.7974 31.0399L19.844 31.0418L19.9492 31.0236L19.982 31.0328L20.0007 31.0603L20.0091 31.1546L20.0221 31.1923L20.1144 31.2524L20.1414 31.286L20.1517 31.338L20.1638 31.4612L20.1815 31.4973L20.2085 31.5299L20.2709 31.561L20.3206 31.5763L20.7353 31.5997L20.7725 31.6078L20.807 31.6281L21.0094 31.8652L21.0345 31.9074L21.1183 32.1047L21.1304 32.1758L21.1248 32.2257L21.0978 32.2434L21.0689 32.2534L21.0149 32.2587L20.7707 32.2305L20.6943 32.2414L20.6309 32.2686L20.6027 32.2866L20.5795 32.3072L20.5422 32.3633L20.5087 32.4248L20.4669 32.5228L20.4203 32.6665L20.4082 32.6949L20.3811 32.7335L20.3616 32.7497L20.2803 32.7918L20.2617 32.8197L20.2608 32.8699L20.2747 32.9378L20.3271 33.0512L20.5842 33.4813L20.6103 33.5441L20.6158 33.5805L20.6186 33.6195L20.6242 33.656L20.6354 33.7011L20.6804 33.8216L20.6739 33.8606L20.6578 33.8902L20.506 34.0079L20.4856 34.0336L20.4707 34.063L20.4716 34.1075L20.493 34.1612L20.6674 34.4143L20.6916 34.4343L20.7177 34.4447L20.7606 34.4293L20.8118 34.3783L20.8304 34.3507L20.8723 34.3009L20.9189 34.2562L20.9459 34.2398L20.9758 34.2289L21.1772 34.2302L21.1949 34.2229L21.2126 34.2049L21.2247 34.1746L21.2331 34.1367L21.2508 34.0061L21.2592 33.9657L21.2704 33.9287L21.2908 33.9029L21.3191 33.8877L21.496 33.8522L21.5472 33.8643L21.6115 33.8935L21.7245 33.9737L21.879 34.044L21.9051 34.0759L21.9237 34.1397L21.9331 34.2757L21.9396 34.3111L21.9619 34.344L21.9963 34.3738L22.0683 34.4026L22.1168 34.4086L22.1606 34.407L22.3518 34.3378L22.3834 34.332L22.4225 34.355L22.4616 34.4015L22.6087 34.682L22.7432 34.8923L22.7721 34.9241L22.8279 34.9575L23.4346 35.148L23.6423 35.2674L23.7106 35.2914L23.7422 35.2946L23.7693 35.2828L23.7935 35.2627L23.8149 35.239L23.8903 35.1293L23.9108 35.1073L23.9369 35.0977L23.9648 35.1053L24.157 35.235L24.1793 35.2622L24.1951 35.2947L24.196 35.3505L24.1839 35.3868L24.1513 35.4509L24.1495 35.4927L24.1597 35.5417L24.3546 35.8557L24.4031 35.8992L24.4487 35.9272L24.6545 35.9675H24.9723L25.009 35.9778L25.0425 36.0024L25.1012 36.0886L25.1673 36.2051L25.1776 36.2479L25.1841 36.3012L25.1813 36.3938L25.1721 36.4497L25.1599 36.4964L25.1441 36.5271L25.1198 36.5472L25.0882 36.5593L24.3752 36.5934L24.3423 36.6037L24.32 36.6263L24.3033 36.6578L24.2604 36.8056L24.2595 36.846L24.2697 36.8867L24.3902 36.9965L24.4097 37.0237L24.4209 37.0561L24.4117 37.1041L24.3921 37.1337L24.2764 37.2469L24.3081 37.318L24.3903 37.4285L24.651 37.6972L24.8888 37.883L24.9214 37.925L24.9577 38.0123L24.9698 38.0694L24.9726 38.1198L24.9652 38.1571L24.9531 38.1925L24.9391 38.2258L24.9223 38.2559L24.819 38.3766L24.8032 38.4021L24.8013 38.4307L24.8907 38.5017L25.6613 38.9682L25.6951 39.0447V39.1027L25.7088 39.1732L25.7492 39.2747L25.7855 39.3157L25.8246 39.3327L26.1414 39.3419L26.1758 39.3552L26.2066 39.3711L26.2317 39.3919L26.2521 39.4156L26.2745 39.46L26.3424 39.6396L26.3771 39.6928L26.4125 39.7293L26.5783 39.7995L27.173 40.1659L27.2186 40.2088L27.2549 40.2607L27.2689 40.2877L27.2783 40.3146L27.281 40.3495L27.2755 40.3867L27.2532 40.4653L27.2318 40.5086L27.1927 40.5724L27.1769 40.603L27.1647 40.6377L27.1592 40.6808L27.1629 40.7283L27.1769 40.8105L27.1806 40.8917L27.1703 41.1466L27.1815 41.2685L27.1946 41.7473L27.201 41.8119L27.2141 41.8412L27.2327 41.8661L27.3482 41.9752L27.4285 42.0698L27.5766 42.1919L27.5971 42.2157L27.6147 42.2405L27.6296 42.2679L27.6343 42.307L27.6287 42.3596L27.5943 42.4509L27.5691 42.502L27.5448 42.54L27.1879 42.9969L27.1767 43.0387L27.173 43.089L27.187 43.1688L27.2251 43.2881L27.2279 43.3381L27.226 43.3993L27.1934 43.5762L27.1469 43.7378L27.118 43.8014L27.1012 43.8295L27.0631 43.8799L27.0519 43.9066L27.0525 43.9363L27.0752 43.9731L27.1208 44.0278L27.3043 44.202L27.3424 44.2502L27.3722 44.3051L27.3834 44.3643L27.389 44.4492L27.3796 44.7351L27.3647 44.8367L27.3135 44.978L27.2828 45.0463L27.2521 45.0907L27.2232 45.1055L27.1496 45.1133L27.0909 45.2629L27.1068 45.9928L27.1086 46.0462L27.1087 46.0492L27.108 46.0489L26.8975 46.0437L26.7864 46.1025L26.6194 46.284L26.4874 46.3479L26.3636 46.3573L26.0073 46.298L25.7683 46.374L25.6373 46.3881L25.5566 46.3131L25.5908 46.1521L25.6796 45.9474L25.6975 45.7823L25.52 45.7392L25.3741 45.7579L25.2536 45.7441L25.1661 45.6619L25.1183 45.4748L25.1209 45.22L25.137 45.0166L25.0991 44.8675L24.9383 44.775L24.6913 44.721L24.1606 44.7007L23.5553 44.9109L23.1586 44.8458L22.0233 44.3486L20.701 44.3084L20.6166 44.2642L20.5427 44.1619L20.529 44.069L20.547 43.982L20.5458 43.9137L20.4737 43.8779L19.0776 43.8196L18.8976 43.7417L18.5096 43.3988L18.3283 43.359L17.9112 43.3719L16.6306 43.1319L16.1234 43.2324L15.3056 43.2181Z" stroke="#4C86A0" stroke-width="0.5" stroke-linecap="round" stroke-linejoin="round"/>
<path d="M21.5952 5.68795L21.7219 5.46799L21.869 5.38835L22.0298 5.40512L22.3495 5.53196L22.4873 5.52166L22.9665 5.27783L23.0864 5.13905L23.4309 4.51553L23.7773 4.09629L23.9071 4.01519L23.917 4.009L24.6961 3.91004L24.9403 3.95032L25.071 4.02103L25.4453 4.33548L25.6104 4.42623L25.7271 4.3773L26.0077 4.10695L26.1306 3.96344L26.2805 4.13584L26.4683 4.24618L26.6664 4.30513L27.4218 4.37356L27.5907 4.35243L27.6435 4.19078L27.6953 3.96626L27.7376 3.46511L27.9049 2.99822L28.502 2.60878L28.5959 2.44321L28.6976 2.2638L28.723 2.01031L28.9111 1.8185L29.3202 1.50788L29.3927 1.36783L29.4455 1.23808L29.5052 1.12254L29.5989 1.02586L29.6746 0.98668L29.9229 0.934105L30.18 0.810821L30.344 0.694007L30.4469 0.620656L30.7034 0.522339L30.9312 0.675054L31.0526 0.857018L31.4691 1.30888L31.6548 1.56747L31.7777 1.6903L31.9043 1.73185L32.0396 1.65176L32.2382 1.34614L32.3778 1.246L33.2671 1.14905L33.6089 1.20546L33.7094 1.2471L33.765 1.30514L33.8634 1.48792L34.0726 1.78597L34.1247 1.89368L34.1812 2.14207L34.2141 2.39301L34.2795 2.6075L34.4328 2.74527L34.8956 2.8743L35.0272 2.84158L35.0403 2.59556L35.2004 2.4321L35.5754 2.26635L35.576 2.26581L35.5772 2.26526L35.9279 2.0402L36.2278 1.92757L36.5754 1.93769L36.9165 2.05596L37.2017 2.26626L37.3886 2.41369L38.3098 2.66882L38.4191 2.73534L38.524 2.83812L38.6351 2.98373L38.6922 3.08132L38.7124 3.16579L38.6892 3.23303L38.6481 3.24369L38.5991 3.23877L38.55 3.25973L38.4922 3.30328L38.4431 3.32424L38.3972 3.36124L38.35 3.44999L38.3295 3.54174L38.2992 3.79915L38.2768 3.90877L38.1341 4.26167L38.1067 4.42851L38.1496 4.64847L38.2256 4.80155L38.5239 5.05058L38.8119 5.47501L38.9311 5.54007L39.0947 5.49405L39.5587 4.94288L40.1521 4.60063L40.3123 4.56747L40.7269 4.67198L40.8821 4.59161L41.1167 4.15944L41.2651 3.97018L41.4954 3.83697L41.735 3.78448L41.9783 3.79915L42.6872 4.06103L42.844 4.00882L43.1137 3.75095L43.2518 3.68134L43.357 3.71122L43.5597 3.89565L43.6755 3.96909L44.8648 4.35962L44.9163 4.42049L44.9188 4.51097L44.8828 4.59681L44.8676 4.68419L44.9362 4.7754L45.4701 5.03208L45.5334 5.08201L45.5775 5.14981L45.6023 5.28211L45.583 5.37751L45.5551 5.46207V5.56066L45.6308 5.70581L45.7525 5.78809L45.8879 5.81898L46.133 5.79948L46.2156 5.84331L46.2733 5.94618L46.3317 6.11011L46.5068 6.44807L46.678 6.47777L46.8785 6.36478L47.1402 6.27394L47.3714 6.38428L47.4973 6.62183L47.5316 6.68634L47.5731 7.07405L47.4508 7.44308L47.5408 7.50404L47.5712 7.51425L47.534 7.64582L47.3776 7.7671L47.3422 7.94059L47.3891 8.12848L47.4862 8.25923L47.5663 8.39701L47.5644 8.60357L47.4903 8.72613L47.1281 8.98463L46.9214 9.27621L46.8369 9.47157L46.8195 9.66629L46.8785 9.79659L46.9822 9.88561L47.1951 9.99869L47.2733 10.1224L47.3736 10.5059L47.459 10.6343L47.7383 10.8494L47.8138 10.9403L47.8222 10.982L47.7961 11.0756L47.8079 11.128L47.8283 11.1441L47.8898 11.1649L47.9054 11.1789L47.932 11.2334L47.9593 11.2681L47.9681 11.3205L47.9389 11.4289L47.8911 11.4989L47.8768 11.5726L47.8936 11.65L47.9389 11.729L48.0206 11.928L48.0938 12.1819L48.0892 12.3823L47.939 12.427L47.6559 12.3551L47.5343 12.3658L47.4945 12.4899L47.5566 12.6603L47.6435 12.7721L47.6715 12.895L47.5591 13.0934L47.4517 13.1716L47.086 13.2455L46.9432 13.3603L46.9588 13.4671L47.019 13.6223L47.0109 13.8799L46.9184 14.0439L46.7812 14.1856L46.6626 14.368L46.6297 14.6548L46.6775 14.8185L46.7703 14.8868L47.018 14.9721L47.9389 15.6414L48.0282 15.8031L48.0493 15.9923L48.1809 15.9685L48.6868 16.0235L48.8278 16.3086L49.064 16.5007L48.893 16.8957L48.5931 17.3745L48.4435 17.8186L48.6173 17.9495L49.0636 18.0752L49.1304 18.2146L49.0946 18.2275L48.9996 18.2317L48.8671 18.2055L48.8122 18.2076L48.7647 18.2244L48.6316 18.3358L48.5884 18.3546L48.4348 18.4003L48.3845 18.4239L48.3529 18.4517L48.3473 18.4832L48.3538 18.5142L48.377 18.5788L48.3863 18.6124L48.39 18.6473L48.3909 18.6819L48.3723 18.71L48.3425 18.725L48.2838 18.7116L48.2456 18.6927L48.1876 18.6465L48.0675 18.5762L47.8577 18.5106L47.7003 18.4137L47.6649 18.4008L47.6128 18.4035L47.5492 18.4244L47.4849 18.4775L47.4663 18.5184L47.4644 18.5578L47.4738 18.5908L47.4803 18.6228L47.4766 18.6535L47.4617 18.68L47.4365 18.6997L47.4048 18.7131L47.2791 18.7289L46.8753 18.7187L46.5732 18.6628L46.3395 18.5447L46.3014 18.5342L46.2443 18.5416L46.18 18.5621L46.0719 18.6209L46.031 18.6534L46.0078 18.6952L45.9956 18.7707L45.9761 18.8022L45.9463 18.8271L45.6834 18.9113L45.6248 18.9394L45.5876 18.9716L45.5745 19.006L45.5714 19.0432L45.5819 19.0747L45.6024 19.1009L45.7263 19.2175L45.7412 19.2459L45.744 19.2779L45.7309 19.3078L45.7114 19.3342L45.6313 19.395L45.6099 19.4216L45.5922 19.4531L45.5782 19.4893L45.5435 19.6107L45.5286 19.6458L45.51 19.6767L45.4643 19.7259L45.4141 19.7696L45.3861 19.7885L45.2015 19.8777L45.1586 19.8861L45.1046 19.8855L45.0143 19.8636L44.9259 19.818L44.8222 19.7295L44.7403 19.6401L44.73 19.6238L44.6331 19.4186L44.6015 19.3611L44.5782 19.3375L44.5509 19.3171L44.5155 19.31L44.4793 19.3215L44.4467 19.365L44.4393 19.4042L44.4337 19.4797L44.4206 19.5111L44.402 19.5389L44.3788 19.5632L44.214 19.6748L44.0907 19.7305L43.9874 19.7366L43.6454 19.6591L43.6202 19.6458L43.5988 19.6246L43.5848 19.5965L43.5773 19.5662L43.5867 19.5358L43.6053 19.5086L43.757 19.325L43.7933 19.2636L43.825 19.1939L43.839 19.1575L43.9017 19.0223L43.91 18.9913L43.8905 18.9751L43.8482 18.9826L43.5586 19.1837L43.5117 19.1974L43.4512 19.2063L43.3385 19.2019L43.1951 19.1704L43.1678 19.1817L43.1519 19.232L43.1389 19.3237L43.1277 19.362L43.1072 19.3892L43.0755 19.4028L43.0383 19.4049L42.989 19.3824L42.9135 19.303L42.6962 19.1749L42.6831 19.1503L42.6906 19.1231L42.7372 19.0842L42.7503 19.0591L42.7438 19.0316L42.7195 19.0119L42.6851 18.9969L42.6413 18.9988L42.6022 19.0166L42.5622 19.0677L42.5414 19.1078L42.5315 19.1414L42.5246 19.1707L42.5134 19.2048L42.4799 19.2685L42.4352 19.3188L42.2322 19.4427L42.2043 19.4825L42.1937 19.5218L42.2136 19.6695L42.222 19.704L42.2462 19.7674L42.262 19.7961L42.276 19.8268L42.2872 19.8589L42.2928 19.8945L42.2937 19.9326L42.2843 19.9708L42.2704 20.0054L42.2518 20.0347L42.1974 20.0551L42.1154 20.0642L41.9404 20.0546L41.8678 20.0326L41.8342 19.9981L41.8442 19.9248L41.8349 19.8934L41.7874 19.8738L41.5537 19.863L41.4826 19.8478L41.4397 19.8263L41.436 19.7944L41.4518 19.7326L41.4463 19.7033L41.4267 19.6776L41.3485 19.6137L41.3327 19.5868L41.3299 19.5556L41.3411 19.4843L41.3337 19.4524L41.3151 19.4257L41.2834 19.4079L41.0531 19.3343L41.0141 19.3358L40.9768 19.3529L40.9433 19.3995L40.9378 19.4388L40.9545 19.4666L41.0383 19.5263L41.0551 19.5472L41.0486 19.5718L41.03 19.5954L41.0039 19.6164L40.8623 19.6614L40.3263 19.7457L40.2379 19.7365L40.0625 19.7745L39.9778 19.7634L39.6273 19.6119L39.5444 19.5943L39.4622 19.5954L39.4193 19.6158L39.3765 19.6556L39.3234 19.7551L39.2834 19.8705L39.2573 19.9066L39.0913 19.9555L38.9823 19.9712L38.9497 19.99L38.9227 20.0204L38.863 20.1823L38.846 20.2155L38.7696 20.2986L38.5322 20.4663L38.3438 20.529L38.3075 20.5254L38.2609 20.5094L38.2329 20.4765L38.1976 20.4232L38.1817 20.3801L38.1767 20.3349L38.1929 20.1198L38.1984 20.0806L38.2105 20.0451L38.2282 20.0139L38.2478 19.9869L38.4266 19.8389L38.4536 19.8091L38.4772 19.7693L38.502 19.7059L38.5032 19.6622L38.4945 19.6268L38.3726 19.4347L38.3326 19.3957L38.3028 19.375L38.245 19.319V19.2948L38.2505 19.2807L38.2934 19.243L38.3166 19.2083L38.3362 19.1638L38.3548 19.0904L38.3743 19.0495L38.4023 19.0244L38.4358 19.0144L38.4753 18.9096L38.515 18.7236L38.5944 17.8726L38.6084 17.8366L38.641 17.7746L38.6642 17.7425L38.709 17.6926L38.7322 17.6602L38.7554 17.6192L38.7815 17.5553L38.7833 17.5094L38.7721 17.4736L38.6865 17.3631L38.666 17.3231L38.6669 17.2897L38.68 17.2591L38.7693 17.1577L38.9717 16.9733L38.996 16.9337L38.9969 16.8771L38.9569 16.6601L38.9206 16.6005L38.8834 16.561L38.8058 16.5415L38.7714 16.5436L38.7518 16.5647L38.7472 16.598L38.7509 16.7172L38.7472 16.7588L38.7388 16.7993L38.7229 16.8328L38.7025 16.8599L38.6764 16.8803L38.6438 16.8932L38.6066 16.8979L38.4396 16.8631L38.2943 16.8054L38.2133 16.7912L38.1748 16.7947L38.1105 16.8205L38.0528 16.855L37.8972 16.9786L37.8683 16.9901L37.8345 16.9849L37.7088 16.9205L37.6399 16.9052L37.4384 16.9016L37.4077 16.8913L37.3983 16.8599L37.3965 16.8215L37.4029 16.7342L37.4011 16.6628L37.3927 16.5725L37.3573 16.4016L37.3182 16.3367L37.2763 16.304L37.2381 16.3088L37.2037 16.3182L37.0814 16.3765L36.9436 16.4175L36.9045 16.4186L36.8654 16.4091L36.831 16.3829L36.8227 16.3484L36.827 16.3168L36.846 16.2883L36.8944 16.2423L36.9084 16.2146L36.8889 16.2075L36.8591 16.2086L36.7275 16.2566L36.6092 16.3211L36.5851 16.3448L36.5646 16.3707L36.4771 16.5316L36.4548 16.5575L36.4284 16.5776L36.4023 16.5918L36.2924 16.62L36.1276 16.6213L35.3491 16.4789L35.3156 16.4842L35.2895 16.5027L35.2737 16.5322L35.2485 16.6472L35.228 16.7189L35.2317 16.7521L35.2448 16.7806L35.3463 16.9108L35.3584 16.9388L35.3528 16.9719L35.3407 17.0046L35.2886 17.101L35.2681 17.1282L35.2411 17.148L35.1731 17.1685L35.088 17.1795L35.0322 17.1706L35.0127 17.14L35.0071 17.101L35.008 17.0547L35.0006 17.0106L34.9866 16.9608L34.9522 16.9392L34.9103 16.9276L34.6483 16.8934L34.6092 16.897L34.5776 16.9107L34.5105 16.986L34.4853 17.0074L34.4565 17.0239L34.4227 17.0319L34.3873 17.0295L34.0285 16.9001L33.9856 16.8627L33.9577 16.8263L33.9288 16.7235L33.9241 16.6851L33.9232 16.6465L33.9288 16.6049L33.9409 16.569L34.0275 16.4081L34.0293 16.3574L34.0144 16.2951L33.9418 16.1765L33.8943 16.1362L33.8599 16.1293L33.8348 16.1488L33.7088 16.3119L33.6808 16.337L33.6501 16.3541L33.6081 16.3605L33.5858 16.341L33.5728 16.3101L33.5569 16.2381L33.5448 16.198L33.528 16.1579L33.4991 16.1082L33.4666 16.0985L33.4328 16.0993L32.9557 16.2461L32.9268 16.2635L32.9064 16.2914L32.8905 16.326L32.8291 16.5178L32.8132 16.5516L32.7859 16.6254L32.776 16.666L32.5885 17.1836L32.5653 17.2199L32.5094 17.2371L32.4002 17.2311L32.1692 17.111L32.1254 17.0707L32.1 17.0075L32.0919 16.9724L32.0777 16.9302L32.0414 16.8803L31.9715 16.8054L31.7654 16.686L31.7207 16.6375L31.6816 16.5842L31.6369 16.494L31.6257 16.461L31.6015 16.4127L31.5679 16.3568L31.4851 16.267L31.4432 16.2335L31.401 16.2145L31.2343 16.2018L30.9379 16.2569L30.8076 16.3068L30.6722 16.4036L30.649 16.4284L30.608 16.4453L30.554 16.4537L30.2772 16.3796L30.239 16.3761L29.5829 16.5708L29.4879 16.5819L29.4647 16.5587L29.4516 16.5257L29.4479 16.4859L29.447 16.3986L29.4424 16.3535L29.4238 16.3066L29.393 16.2807L29.3173 16.2524L29.2801 16.2445L29.2447 16.2469L29.2167 16.2627L29.1115 16.3973L29.0883 16.4221L29.0191 16.4324L28.914 16.4264L28.5728 16.3256L28.5328 16.285L28.5152 16.237L28.4742 16.1749L28.3268 16.0524L28.2765 15.9969L28.2552 15.9417L28.2496 15.8965L28.2264 15.8387L28.137 15.7423L28.1063 15.6833L28.097 15.6368L28.1287 15.5712L28.1566 15.4988L28.1771 15.4173L28.1845 15.3758L28.1864 15.3353L28.1528 15.284L28.0877 15.2229L27.7773 15.0239L27.1956 14.9297L27.1527 14.9008L27.1378 14.8605L27.1443 14.8176L27.1751 14.6955L27.1825 14.656L27.1815 14.6179L27.1722 14.584L27.1508 14.5537L26.6837 14.1645L26.6669 14.1427L26.6306 14.0737L26.5757 13.9989L26.5199 13.9429L26.4733 13.923L26.4277 13.9142L26.1033 13.9477L25.9819 13.9398L25.9484 13.9162L25.9307 13.8827L25.9261 13.8434L25.9224 13.7624L25.9177 13.7239L25.9085 13.6878L25.8973 13.6544L25.8675 13.5938L25.7576 13.4206L25.7098 13.3653L25.5534 13.2403L25.532 13.2105L25.5302 13.1813L25.5423 13.1515L25.7 12.9206L25.7137 12.8871L25.7196 12.8514L25.7019 12.8062L25.6652 12.7569L25.5842 12.6806L25.5302 12.6523L25.4846 12.6443L25.1565 12.7241L24.7241 12.6011L24.6683 12.5979L24.4771 12.7438L24.4631 12.7728L24.4622 12.8061L24.4687 12.8407L24.4985 12.9455L24.504 12.9827L24.5068 13.0216L24.5013 13.0577L24.4845 13.0864L24.4565 13.1029L24.3877 13.1253L23.9317 13.1513L23.6943 13.1295L23.6512 13.1082L23.6204 13.0827L23.5823 13.0167L23.505 12.9103L23.4575 12.8852L23.4118 12.8725L22.8003 12.9741L22.7351 13.0012L22.5514 13.1491L22.4741 13.1848L22.4089 13.197L22.3699 13.1863L22.3435 13.1637L22.3093 13.0898L22.2774 13.0427L22.2085 12.9733L22.1573 12.9421L22.1061 12.9245L21.9224 12.9112L21.7874 12.9224L21.7325 12.936L21.7185 12.9472L21.6914 12.9996L21.6595 13.0419L21.6055 13.0818L21.5431 13.106L21.4565 13.1109L21.3988 13.0906L21.3504 13.0593L21.2942 13.0084L21.2375 12.9901L20.9103 13.0087L20.738 12.9829L20.6129 12.9375L20.3866 12.8166L20.3261 12.799L20.2838 12.806L20.2476 12.8274L20.2187 12.8657L20.201 12.9147L20.1963 12.9636L20.2028 13.0085L20.2159 13.0471L20.2224 13.0774L20.2187 13.1046L20.1991 13.1338L20.1768 13.1559L20.1153 13.2029L20.024 13.1396L19.9604 13.1529L19.9046 13.1781L19.7742 13.3119L19.7351 13.3366L19.6923 13.3501L19.6438 13.335L19.5998 13.2927L19.5476 13.1746L19.5169 12.9879L19.5132 12.9299L19.4657 12.8788L19.4303 12.8533L19.065 12.7128L19.0474 12.6885L19.1526 12.5291L19.3736 12.0531L19.4021 11.9651L19.4133 11.8408L19.4077 11.5847L19.4238 11.4673L19.6125 11.1729L19.8832 11.1259L20.5487 11.297L20.5996 11.2959L20.6586 11.2772L20.6958 11.2365L20.7312 11.1756L20.7821 11.1248L20.8677 11.1152L21.5015 11.3956L21.6338 11.3721L21.7263 11.2215L21.7933 10.9211L21.8318 10.6339L21.8752 10.5236L21.9702 10.3941L22.1428 10.2254L22.2353 10.1713L22.4685 10.1097L22.6227 10.0689L22.7674 9.96015L22.8338 9.79285L22.7789 9.618L22.6411 9.51339L21.6444 9.34063L21.2819 9.43722L21.1801 9.43184L20.822 9.29926L20.7276 9.23484L20.7003 9.12641L20.7587 8.93306L20.9021 8.67027L20.9437 8.57186L21.0231 8.18397L21.0746 8.0688L21.2875 7.85549L21.3067 7.7343L21.1938 7.51598L21.2204 7.26467L21.3377 7.07423L21.4849 6.90639L21.6015 6.72388L21.6593 6.49317L21.6742 6.21744L21.6513 5.93662L21.5952 5.68795Z" stroke="#4C86A0" stroke-width="0.5" stroke-linecap="round" stroke-linejoin="round"/>
<path d="M11.1233 21.3381L11.1533 21.3203L11.4313 21.2895L11.7075 21.3285L12.1811 21.5105L12.4506 21.4668L12.7125 21.2994L12.9584 21.0276L13.0577 20.8167L13.1806 20.3408L13.257 20.2081L13.3644 20.1903L13.7455 20.3251L14.239 20.298L14.3849 20.2044L14.6258 19.8534L14.7773 19.7817L14.8536 19.7995L14.8934 19.8382L14.9223 19.8952L15.3456 20.4663L15.2947 20.5045L15.1544 20.493L15.0315 20.5625L15.0173 20.6628L15.1619 20.7396L15.1954 20.8262L15.152 20.9014L14.9807 20.9599L14.936 21.0309L14.9812 21.2114L15.1178 21.3402L15.2799 21.4189L15.8118 21.506L15.9434 21.5018L16.0061 21.4652L16.1011 21.3344L16.1662 21.3051L16.3916 21.3354L16.463 21.3249L16.6014 21.2221L16.6492 21.0635L16.6548 20.6014L16.6734 20.5549L16.7441 20.4609L16.7584 20.416L16.7428 20.3543L16.7136 20.3329L16.6808 20.3209L16.6566 20.2874L16.6169 20.1755L16.5698 20.0845L16.5163 20.0102L16.4586 19.9469L16.4312 19.9406L16.3624 19.9631L16.3382 19.9574L16.3152 19.9202L16.2512 19.7402L16.2333 19.6412L16.1985 19.5579L16.1165 19.5108L16.0265 19.5344L15.6664 19.7213L15.4057 19.7386L15.2753 19.6889L15.1934 19.5579L15.2014 19.3028L15.3144 19.0836L15.59 18.7553L15.6974 18.5349L15.7198 18.339L15.7154 18.1273L15.7415 17.8607L15.8074 17.6545L15.8992 17.532L16.2667 17.3167L16.3815 17.2003L16.4653 17.0418L16.4963 16.8388L16.4622 16.6417L16.3132 16.2792L16.2728 16.077L16.2797 15.9482L16.3058 15.8467L16.3374 15.7527L16.3611 15.6444L16.3704 15.5386L16.3499 15.0158L16.3686 14.8787L16.4324 14.787L16.5635 14.671L16.6224 14.6413L16.6635 14.6402L16.6938 14.6207L16.7205 14.5343L16.7168 14.4494L16.6652 14.2448L16.6565 14.153L16.7192 13.9599L16.8384 13.8372L16.978 13.7305L17.1034 13.5844L17.1419 13.4792L17.1524 13.3862L17.1742 13.3091L17.2449 13.249L17.4709 13.1538L17.5808 13.157L17.7993 13.207L17.9111 13.2091L18.6404 13.0618L18.8571 12.9389L18.9471 12.8405L19.0474 12.6885L19.065 12.7127L19.4303 12.8532L19.4657 12.8787L19.5132 12.9299L19.5169 12.9879L19.5476 13.1746L19.5998 13.2927L19.6438 13.335L19.6923 13.3501L19.7351 13.3365L19.7742 13.3118L19.9046 13.1781L19.9604 13.1528L20.024 13.1395L20.1153 13.2028L20.065 13.2568L19.9561 13.3142L19.9334 13.3347L19.9231 13.365L19.9287 13.4041L20.0062 13.5442L20.0473 13.6536L20.0603 13.7434L20.0491 13.9523L20.0519 14.0236L20.091 14.1091L20.1282 14.1675L20.186 14.2322L20.2512 14.2882L20.3241 14.3359L20.3939 14.368L20.4545 14.3849L20.5429 14.3939L20.5774 14.4128L20.7108 14.5721L21.0333 15.061L21.0659 15.0936L21.1069 15.1176L21.2298 15.1687L21.2624 15.188L21.2782 15.2132L21.294 15.277L21.2968 15.3455L21.2661 15.4949L21.2614 15.5576L21.2763 15.6388L21.2962 15.6933L21.3736 15.8466L21.4294 15.9882L21.4574 16.0426L21.4872 16.0911L21.5104 16.1408L21.5272 16.1957L21.5449 16.2786L21.5681 16.3242L21.597 16.3514L21.7118 16.3891L21.817 16.4563L21.8561 16.4632L21.9026 16.4513L22.051 16.3767L22.0799 16.3751L22.0901 16.4142L22.0883 16.4918L22.065 16.664L22.0809 16.7739L22.1041 16.8419L22.1237 16.8877L22.1227 16.9303L22.0864 16.9862L22.0492 17.0019L22.0088 17.0014L21.9753 16.9919L21.9446 16.9896L21.9232 17.0156L21.9064 17.0683L21.9009 17.3405L21.8906 17.3985L21.858 17.4258L21.818 17.4222L21.7687 17.4011L21.5868 17.2764L21.5636 17.2711L21.5468 17.2743L21.5375 17.2917L21.5393 17.3186L21.5663 17.4007L21.571 17.4307L21.5747 17.5344L21.5905 17.5888L21.6175 17.6422L21.6756 17.7393L21.697 17.809L21.711 17.9063L21.7025 18.0653L21.6867 18.1667L21.65 18.2384L21.6202 18.271L21.5094 18.3513L21.488 18.3776L21.4712 18.4091L21.4014 18.649L21.0296 19.6243L20.9148 19.868L20.8402 19.9857L20.6052 20.2263L20.5437 20.3126L20.5233 20.3335L20.4972 20.3534L20.4646 20.367L19.7982 20.4922L19.5111 20.4381L19.4273 20.4397L19.3258 20.472L18.9769 20.7761L18.9471 20.7912L18.9126 20.8006L18.8736 20.8053L18.7041 20.7894L18.6724 20.7954L18.652 20.8195L18.6343 20.8493L18.5353 21.1399L18.4804 21.3845L18.4786 21.4247L18.4861 21.4617L18.5214 21.4919L18.5559 21.5135L18.7248 21.5906L18.7564 21.5953L18.7807 21.5851L18.7956 21.5546L18.8263 21.4396L18.8412 21.4057L18.8617 21.3836L18.8859 21.3736L18.9148 21.3815L19.0463 21.4423L19.0752 21.4641L19.0966 21.4949L19.092 21.558L19.0622 21.7002L19.0417 22.0445L19.0436 22.1269L19.0575 22.1862L19.0818 22.2583L19.1479 22.3855L19.1982 22.4305L19.2457 22.451L19.6259 22.3948L19.6569 22.38L19.682 22.3596L19.695 22.3268L19.6987 22.2831L19.6941 22.2253L19.723 22.1952L19.7593 22.1879L20.0278 22.2222L20.0641 22.2396L20.0883 22.3081L20.1553 22.6274L20.1973 22.7074L20.2363 22.7498L20.5933 22.7615L20.624 22.8124L20.6327 22.9046L20.6036 23.1313L20.5756 23.2248L20.5421 23.2824L20.327 23.3312L20.2981 23.3473L20.2736 23.3709L20.254 23.3973L20.2224 23.4625L20.159 23.6414L20.1283 23.7077L20.0929 23.7673L20.0715 23.7932L20.0231 23.8362L19.966 23.8725L19.9026 23.9015L19.4936 24.0248L19.379 24.0919L19.3549 24.1155L19.3362 24.1429L19.3241 24.1937L19.3167 24.262L19.3117 24.4502L19.3204 24.5084L19.3586 24.555L19.4293 24.6025L19.8421 24.7727L19.8682 24.795L19.8859 24.8229L19.8719 24.8757L19.857 24.914L19.8374 24.9497L19.8188 24.9784L19.7946 25.0014L19.7629 25.014L19.6344 25.0117L19.5959 25.0171L19.5708 25.0592L19.5587 25.1326V25.2839L19.5437 25.4202L19.5456 25.4631L19.5754 25.5167L19.5996 25.5529L19.6462 25.6066L19.7247 25.668L19.7899 25.7L19.9978 25.726L20.0295 25.7412L20.0537 25.7621L20.0677 25.8037L20.0742 25.8604L20.0649 25.9636L20.0639 26.0378L20.0713 26.1059L20.103 26.1812L20.1337 26.2188L20.1682 26.2449L20.5493 26.3554L20.7992 26.4909L20.8225 26.5151L20.842 26.5409L20.8737 26.5991L20.8849 26.6393L20.8942 26.6872L20.9137 26.8571L20.9222 26.8931L20.9473 26.9543L21.0398 27.0958L21.0687 27.1508L21.1125 27.2678L21.1069 27.3288L21.0846 27.4162L21.0017 27.5934L20.984 27.7013L20.9865 27.7601L21.0148 27.7783L21.0352 27.7818L21.066 27.7803L21.2028 27.7531L21.2382 27.7553L21.2642 27.7679L21.2856 27.7823L21.295 27.7923L21.3018 27.8031L21.3093 27.829L21.3155 27.8665L21.3187 27.9245L21.3155 27.9748L21.2801 28.2888V28.3701L21.2913 28.4442L21.31 28.5108L21.3323 28.5764L21.3596 28.6385L21.395 28.6923L21.434 28.741L21.3847 28.7763L20.2856 29.1394L19.8216 29.2638L19.6642 29.2771L19.6275 29.2654L19.5009 29.2017L19.3528 29.1558L18.8391 29.1264L18.5194 29.0499L18.3853 29.0596L18.2593 29.0924L17.4123 29.0233L17.3797 29.0089L17.3508 28.991L17.3275 28.9695L17.3089 28.9426L17.2872 28.9193L17.2605 28.8988L17.2127 28.8919L17.1522 28.895L17.0553 28.9187L16.9986 28.9213L16.9557 28.9131L16.8772 28.8527L16.8464 28.8368L16.8101 28.8261L16.7534 28.8286L16.5649 28.8719L16.5025 28.8735L16.455 28.8645L16.4197 28.8519L16.3433 28.8405L16.2995 28.8589L16.2511 28.8927L16.1781 28.9736L16.1446 29.0248L16.1232 29.0691L16.1111 29.1036L16.0822 29.1691L15.909 29.4638L15.8854 29.5257L15.8789 29.5487L15.8668 29.6147L15.8351 29.9107L15.8277 29.9505L15.8137 29.9822L15.7849 30.007L15.7438 30.0256L15.5638 30.0456L15.5238 30.0656L15.4885 30.1207L15.4708 30.1672L15.4345 30.3295L15.4363 30.3663L15.4512 30.3938L15.4726 30.4167L15.5874 30.49L15.6116 30.5121L15.6274 30.5407L15.6349 30.5756V30.6136L15.6274 30.6514L15.5974 30.6926L15.5489 30.736L15.4484 30.8069L15.3208 30.9226L15.2975 30.9537L15.2826 30.9883L15.2799 31.026L15.2911 31.0571L15.3181 31.0765L15.44 31.1015L15.4708 31.1183L15.4968 31.1382L15.5583 31.2106L15.5762 31.2385L15.6061 31.2976L15.6173 31.3307L15.6237 31.366L15.6265 31.4035L15.6237 31.4446L15.6173 31.4834L15.5667 31.6253L15.3758 31.987L15.2274 32.4118L15.2107 32.4423L15.1697 32.4941L14.8593 32.6764L14.835 32.6962L14.7969 32.7375L14.7345 32.8278L14.6665 32.9458L14.6284 33.0003L14.5632 33.0721L14.5452 33.1005L14.5312 33.132L14.5237 33.1685V33.2065L14.5005 33.2516L14.4511 33.3041L14.2975 33.3687L14.2041 33.394L14.0811 33.3834L14.0318 33.3619L13.9806 33.3505L13.9331 33.3591L13.8499 33.4154L13.8174 33.465L13.8015 33.5127L13.8034 33.5527L13.8117 33.5866L13.8257 33.6159L13.8434 33.6428L13.9386 33.7299L13.9517 33.7572L13.9536 33.7871L13.9386 33.8115L13.889 33.8504L13.8667 33.8727L13.8536 33.901L13.8518 33.9359L13.8583 33.9694L13.8686 34.0023L13.8835 34.0316L13.9071 34.0544L14.0067 34.0957L14.0253 34.1223L14.0336 34.1566L14.0327 34.1951L14.0262 34.23L14.0076 34.2557L13.9853 34.277L13.9592 34.2962L13.9226 34.3114L13.8733 34.3164L13.7801 34.2937L13.687 34.2532L13.6321 34.2157L13.6125 34.1915L13.5958 34.1627L13.5855 34.0888L13.5731 34.0575L13.5237 34.0499L13.4511 34.0616L13.3171 34.1127L13.2193 34.1886L13.1985 34.2139L13.1705 34.2296L13.1276 34.2352L13.0727 34.2313L12.9843 34.2073L12.9154 34.2022L12.8472 34.2097L12.606 34.3043L12.5749 34.3265L12.5501 34.3503L12.5173 34.368L12.4735 34.3743L12.3952 34.3512L12.3552 34.3265L12.3348 34.2926L12.3375 34.2567L12.3431 34.2188L12.3534 34.1806L12.3561 34.1434L12.3515 34.1095L12.3171 34.0584L12.3134 34.0265L12.3171 33.99L12.3245 33.952L12.4101 33.6612L12.4148 33.6303L12.4036 33.6068L12.3793 33.589L12.3448 33.5835L12.3076 33.589L12.2676 33.6286L12.2444 33.6625L12.1975 33.7632L12.1808 33.7936L12.1528 33.8169L12.1137 33.8289L12.0421 33.8182L11.7894 33.7137L11.7689 33.6977L11.7559 33.6742L11.7586 33.6428L11.7773 33.5724L11.7837 33.5349L11.7847 33.4995L11.7828 33.4627L11.7763 33.4275L11.7568 33.3606L11.7325 33.2967L11.7018 33.2387L11.685 33.2121L11.6432 33.1634L11.5911 33.1229L11.5265 33.094L11.3729 33.0567L11.3263 33.0631L11.2798 33.0826L11.2273 33.1402L11.2012 33.1838L11.1602 33.2966L11.1444 33.3273L11.1258 33.3547L11.0839 33.3765L11.0224 33.3911L10.8248 33.3951L10.5032 33.3179L10.1313 33.1301L10.0727 33.1362L9.99077 33.1651L9.69809 33.3303L9.67485 33.3527L9.65623 33.3785L9.64883 33.409L9.65716 33.4383L9.68133 33.4581L9.71392 33.4723L9.87531 33.4961L9.90883 33.5088L9.93114 33.5318L9.93762 33.566L9.93577 33.605L9.92549 33.6404L9.8855 33.681L9.82374 33.7245L9.68503 33.798L9.62448 33.8441L9.58346 33.8831L9.56577 33.9114L9.44068 34.0557L9.4267 34.08L9.4304 34.108L9.44716 34.1326L9.51142 34.2034L9.52633 34.2314L9.53753 34.264L9.54124 34.2989L9.53568 34.3358L9.52012 34.3632L9.39133 34.4595L9.37086 34.4845L9.35411 34.5143L9.30661 34.6533L9.26096 34.7407L9.25911 34.771L9.26846 34.7993L9.31781 34.8821L9.34392 34.9437L9.3579 35.0154L9.36346 35.0937L9.35975 35.131L9.35327 35.1603L9.34494 35.1822L9.33096 35.2047L9.30207 35.2263L9.26022 35.2503L9.12679 35.2879L8.97873 35.2961L8.82568 35.2708L8.6916 35.2052L8.66179 35.1822L8.61151 35.13L8.34299 34.9405L8.31133 34.9251L8.2666 34.9165L8.20892 34.9191L8.06151 34.9663L8.02336 34.9888L7.9992 35.0102L7.97123 35.0266L7.94142 35.0362L7.90975 35.0312L7.88271 34.9996L7.87059 34.9636L7.86688 34.9272L7.8591 34.9004L7.84605 34.8843L7.81531 34.8777L7.76595 34.8823L7.51642 34.9727L7.45281 34.9747L7.19956 34.9315L7.12475 34.9034L7.0754 34.8742L7.04281 34.8176L7.01577 34.7574L6.99901 34.7307L6.97475 34.7094L6.93475 34.7023L6.87892 34.7129L6.74169 34.7957L6.56105 34.9497L6.50392 34.9821L6.44058 35.0057L5.6429 34.9404L5.53364 34.9626L5.48336 33.7765L5.4678 33.7016L5.44364 33.6522L5.42317 33.5934L5.41762 33.4883L5.43438 33.411L5.50077 33.2787L5.51882 33.2181L5.51632 33.1395L5.4654 32.8662L5.46475 32.8035L5.47901 32.6855L5.4691 32.6101L5.40021 32.4646L5.21836 32.2337L5.16679 32.0671L5.17484 31.8751L5.23262 31.7395L5.30521 31.621L5.35919 31.479L5.3729 31.2402L5.30956 31.1214L5.20651 31.0424L5.0991 30.926L5.02771 30.7733L4.98114 30.6297L4.92216 30.4902L4.8141 30.347L4.70799 30.0657L4.46771 29.1303L4.34725 28.817L4.06419 28.2356L3.55456 26.6888L3.41114 25.9932L3.39752 25.38H3.39688L3.25095 25.1683L3.18762 24.9625L3.13234 24.4302L3.07086 24.1781L2.99141 23.947L2.92928 23.7018L2.92188 23.4077L3.12919 23.4611L3.66864 23.7836L3.77169 23.8199L3.86484 23.8122L4.16095 23.6867L4.53651 23.6338L4.64077 23.558L4.73327 23.5218L4.77484 23.5301L4.8829 23.5928L4.93382 23.6084L4.9804 23.6007L5.4391 23.3397L5.52975 23.3226L5.62345 23.361L5.8004 23.4737L5.8991 23.497L6.28401 23.4923L6.46151 23.4436L6.83271 23.2459L7.03012 23.2106L7.21947 23.2755L7.38771 23.4773L7.49142 23.7657L7.5554 23.8621L7.67151 23.8844L7.87447 23.8756L8.06503 23.9321L8.28105 23.9342L8.49827 23.8253L9.1867 23.2162L9.48966 23.0429L9.87327 22.9686L10.0167 22.8595L10.039 22.8553L10.0613 22.8611L10.0831 22.8751L10.1607 23.0709L10.2495 23.1577L10.3594 23.1654L10.7486 23.1026L10.8548 23.046L10.9311 22.8752L10.9318 22.8742L10.9324 22.8732L10.9331 22.8726L10.9448 22.5977L10.8914 22.4064L10.8107 22.2342L10.7393 22.0166L10.7113 21.863L10.7219 21.8291L10.7598 21.8255L10.8132 21.7588L10.9255 21.689L10.9286 21.6505L10.9211 21.5832L10.9218 21.5066L10.9461 21.443L11.1233 21.3381Z" stroke="#4C86A0" stroke-width="0.5" stroke-linecap="round" stroke-linejoin="round"/>
<path d="M49.1304 18.2144L49.1316 18.2169L49.3106 18.2684L49.4087 18.4716L49.549 18.9922L49.6272 19.117L49.7017 19.1967L49.7656 19.2904L49.8091 19.4539L49.8519 20.048L49.9158 20.334L50.0052 20.4866L50.9419 21.2201L51.0965 21.3484L51.2436 21.4141L51.5574 21.4939L52.0608 21.7727L52.2465 21.8122L52.4144 21.817L52.4803 21.8503L52.5485 21.9295L52.5944 22.044L52.6354 22.1914L52.6875 22.31L52.761 22.3376L52.9109 22.2351L52.9432 22.2242L52.996 22.2606L53.0035 22.294L53.0017 22.3408L53.1394 22.8758L53.1091 22.9537L53.0985 23.0274L53.096 23.1022L53.088 23.179L53.0191 23.3996L52.921 23.9773L52.8154 24.2296L52.5827 24.6085L52.5278 24.8562L52.7839 24.8609L53.2997 25.0335L54.5636 24.7083L54.6983 24.7351L55.0516 24.988L55.8058 25.1963L56.0184 25.3502L56.208 25.6073L56.2946 25.6604L56.5935 25.6465L56.717 25.6651L56.8337 25.7363L56.948 25.8834L56.9914 25.9572L57.0056 26.0325L56.9914 26.1072L56.948 26.1794L56.5007 26.4087L56.4585 26.4489L56.452 26.5283L56.4706 26.7033L56.5331 26.9771L56.6407 27.1839L56.7819 27.335L56.948 27.4419L57.2496 27.5832L57.3906 27.689L57.4843 27.8698V27.8718L57.5258 27.935L57.5708 27.9529L57.6202 27.9309L57.6686 27.8718L57.7742 27.8533L57.8797 27.8693L57.9672 27.9191L57.9511 28.0017L57.9155 28.1043L57.9462 28.2136L58.0151 28.2366L58.1969 28.1715L58.2733 28.1725L58.3832 28.3972L58.3728 28.4808L58.2926 29.1217L58.3708 29.4333L58.2535 29.5228L58.1567 29.5139L58.066 29.4688L57.9648 29.4458L57.5449 29.5378L57.566 29.569L57.6166 29.6617L57.6407 29.697L57.48 29.7903L57.2888 29.8276L57.0985 29.8066L56.948 29.7276L56.7934 29.7744L56.7475 29.8898L56.8003 29.9983L56.9393 30.0267L56.8797 30.2189L56.7984 30.4045L56.606 30.723L56.4974 30.8387L56.3987 30.8885L56.1808 30.9594L55.9853 31.1337L55.8344 31.3496L55.6712 31.5082L55.3571 31.5008L55.3261 31.5377L55.3174 31.5911L55.3031 31.63L55.3019 31.655L55.3051 31.7013L55.2986 31.7485L55.2697 31.776L55.2474 31.7741L55.1946 31.7594L54.9768 31.7879L54.8218 31.9072L54.7663 31.938L54.559 31.9296L54.1213 31.7524L53.945 31.7714L53.7898 31.8505L53.6455 31.8672L53.5039 31.8318L53.1935 31.6515L53.1162 31.6325L52.9011 31.6539L52.8378 31.6305L52.7428 31.478L52.6782 31.0701L52.5976 30.8993L52.4911 30.8405L52.2264 30.8369L52.1091 30.8139L51.7431 30.6706L51.6205 30.6614L51.5007 30.6969L51.2741 30.8175L51.1307 30.8254L50.8421 30.767H50.5559L50.3287 30.9441L50.2169 31.4191L50.2243 31.5426L50.2268 31.5551L50.2259 31.5554L49.8345 31.6579L49.6828 31.6663L49.6577 31.6457L49.6195 31.5864L49.5934 31.5543L49.5438 31.5192L49.5056 31.5125L49.4703 31.5176L49.4432 31.5352L49.4191 31.5594L49.4004 31.5876L49.366 31.6609L49.3408 31.6975H49.3147L49.2905 31.6835L49.2232 31.6128L49.1851 31.5608L49.132 31.4741L49.1041 31.4423L49.0519 31.4072L49.0091 31.396L48.9691 31.3945L48.7117 31.4612L48.6633 31.454L48.6252 31.437L48.6034 31.4133L48.5866 31.3879L48.5786 31.3591L48.5841 31.3313L48.6009 31.3038L48.6707 31.2375L48.6903 31.21L48.7052 31.179L48.7126 31.1448L48.7098 31.1119L48.6995 31.08L48.6883 31.0489L48.6791 31.0163L48.6726 30.9811L48.6707 30.9444L48.6735 30.9057L48.6838 30.869L48.6978 30.8343L48.6922 30.7935L48.6661 30.7466L48.5624 30.6686L48.5167 30.6209L48.4851 30.576L48.4739 30.5378L48.4422 30.4949L48.3928 30.4707L48.3072 30.4508L48.2631 30.4304L48.2352 30.4042L48.223 30.3768L48.2166 30.3437L48.2129 30.3085L48.211 30.2722L48.2129 30.237L48.2064 30.1933L48.1924 30.1428L48.1095 30.0322L48.0872 29.9952L48.0778 29.9628L48.062 29.8417L48.0545 29.8093L48.0405 29.7689L48.0238 29.752L47.9995 29.7441L47.4952 29.6899L47.457 29.6924L47.4235 29.7011L47.3946 29.7154L47.3703 29.7374L47.3508 29.765L47.3341 29.7971L47.321 29.8334L47.3126 29.8707L47.3052 29.9428L47.2912 29.9714L47.2331 29.9767L46.7924 29.8998L46.7095 29.9226L46.635 29.9246L46.5695 29.8996L46.4754 29.837L46.4177 29.8125L46.3739 29.8078L46.3459 29.8257L46.3227 29.8502L46.304 29.8826L46.2779 29.9567L46.2584 29.9846L46.2324 30.0034L46.2014 30.0172L46.0589 30.0149L45.8903 29.9828L45.8137 29.9567L45.7671 29.9274L45.7261 29.8458L45.6292 29.7745L44.9787 29.6018L44.9377 29.6069L44.8771 29.6314L44.8209 29.6667L44.7771 29.6794L44.7184 29.6827L44.5611 29.6681L44.5207 29.6707L44.4984 29.6896L44.4816 29.7188L44.4686 29.7563L44.4527 29.7893L44.4323 29.8154L44.4062 29.8348L44.3245 29.8475L44.2832 29.8654L44.2906 29.9919L44.3018 30.0723L44.3241 30.1545L44.2137 30.1593L43.9067 30.2893L43.6829 30.2938L43.5907 30.3244L43.5411 30.4178L43.4787 30.4209L43.191 30.4235L43.1292 30.4041L43.0902 30.3791L43.064 30.3199L42.9765 30.0248L42.9495 29.9573L42.9263 29.9211L42.8664 29.8776L42.7938 29.8613L42.5973 29.848L42.5516 29.8311L42.5355 29.8041L42.5312 29.7678L42.5262 29.6912L42.4871 29.6536L42.4182 29.6165L42.1804 29.5312L42.132 29.5L42.0789 29.4279L42.024 29.3763L41.9802 29.3589L41.9412 29.3573L41.8806 29.3839L41.8545 29.4033L41.7863 29.4744L41.7658 29.5015L41.7192 29.5271L41.655 29.547L41.5125 29.5511L41.4609 29.5322L41.4395 29.5053L41.4414 29.4669L41.4274 29.4263L41.3762 29.3746L41.3351 29.3613L41.3007 29.368L41.2449 29.412L41.2058 29.4319L41.1729 29.4287L41.1459 29.4121L41.0947 29.3518L41.05 29.3134L40.9559 29.2595L40.901 29.248L40.8569 29.2505L40.8271 29.2656L40.8019 29.2849L40.7796 29.3084L40.7061 29.4266L40.612 29.5156L40.5925 29.5437L40.5785 29.578L40.5691 29.6181L40.5552 29.7474L40.5533 29.7875L40.5589 29.8631L40.5719 29.9331L40.5813 29.9661L40.6251 30.0936L40.6576 30.2291L40.68 30.2927L40.7842 30.5331L40.8028 30.5992L40.8065 30.6362L40.8001 30.6703L40.7553 30.6979L40.6901 30.6969L40.5682 30.6719L40.5124 30.6747L40.486 30.6938L40.4975 30.7191L40.5179 30.7433L40.6129 30.8328L40.6297 30.8606L40.639 30.8912L40.6176 31.0518L40.5981 31.0984L40.5655 31.1435L40.4879 31.1937L40.4526 31.2292L40.4386 31.2648L40.4535 31.2913L40.4767 31.3137L40.5757 31.3624L40.598 31.3838L40.6045 31.4113L40.5924 31.4421L40.5719 31.4732L40.5393 31.5034L40.0228 31.4533L39.9651 31.464L39.9678 31.4858L40.0367 31.548L40.0553 31.5737L40.0507 31.607L40.0209 31.6447L39.8375 31.7291L39.8269 31.7429L39.8186 31.7699L39.8232 31.8004L39.8301 31.8335L39.8673 31.9662L39.8822 31.9947L39.9064 32.0124L39.9716 32.0287L39.9949 32.0473L40.0098 32.0756L40.0182 32.1086L40.0228 32.1455L40.0247 32.1821L40.021 32.2199L40.0089 32.2554L39.993 32.2874L39.872 32.45L39.858 32.4759L39.8568 32.5058L39.8786 32.5246L40.0537 32.6328L40.0993 32.679L40.1422 32.734L40.1636 32.7556L40.2132 32.7941L40.4618 32.9281L40.4841 32.9509L40.4956 32.9783L40.4925 33.0087L40.4869 33.0295L40.4162 33.1811L40.3901 33.2151L40.3547 33.2495L40.2886 33.2896L40.2383 33.3008L40.1908 33.3005L40.1541 33.2881L40.1234 33.2709L40.0703 33.2298L40.048 33.207L40.007 33.1889L39.9512 33.1766L39.308 33.1679L39.1813 33.1993L39.1478 33.2161L39.1214 33.24L39.0786 33.3172L39.0311 33.3565L38.8017 33.4895L38.7598 33.4888L38.729 33.4731L38.7104 33.4473L38.635 33.3044L38.6042 33.2778L38.5586 33.2557L38.4716 33.2365L38.4223 33.2411L38.386 33.2563L38.3674 33.2812L38.3609 33.309L38.373 33.3334L38.4196 33.3765L38.4363 33.4034L38.4401 33.4393L38.427 33.4776L38.3963 33.5129L38.1651 33.6106L38.1297 33.6051L38.112 33.5853L38.1129 33.5499L38.1278 33.4734L38.1306 33.441L38.1251 33.4242L38.1046 33.4064L37.5158 33.2306L37.265 33.2108L37.1877 33.2174L37.1347 33.232L37.1083 33.2521L37.0645 33.301L36.922 33.5371L36.8438 33.6455L36.8137 33.6734L36.6963 33.7271L36.6573 33.7539L36.635 33.7893L36.6257 33.8332L36.6126 33.8794L36.5791 33.9357L36.54 33.9549L35.9416 33.9701L35.8858 33.9848L35.8578 34.0167L35.8541 34.0551L35.8634 34.4496L35.855 34.5729L35.8486 34.6128L35.8355 34.6487L35.8038 34.7108L34.9556 34.9777L34.8475 35.0373L34.8196 35.0582L34.8007 35.0789L34.7945 35.1039L34.7951 35.1233L34.802 35.1357L34.815 35.1554L34.8346 35.1748L34.8635 35.1929L35.0143 35.2376L35.0441 35.2557L35.0655 35.2801L35.0758 35.3114V35.3482L35.0674 35.3847L35.0497 35.4241L35.0236 35.4622L34.9788 35.5048L34.9267 35.5182L34.7777 35.5127L34.729 35.5215L34.6946 35.5412L34.6378 35.6115L34.5838 35.6625L34.5373 35.6793L34.2511 35.6831L34.1924 35.7053L34.1449 35.735L34.0999 35.7765L34.0599 35.7909L34.0208 35.7925L33.8523 35.7466L33.7685 35.7418L33.7244 35.7562L33.6872 35.7829L33.6583 35.8156L33.6126 35.8559L33.5699 35.8723L33.5251 35.8753L33.2306 35.8292L32.8541 35.8662L32.5074 35.5434L31.9184 35.1723L31.8281 35.0888L31.7899 35.0312L32.4945 34.3249L32.623 34.1254L32.6398 34.095L32.6677 34.027L32.678 33.9885L32.7087 33.8195L32.719 33.781L32.7507 33.7167L32.9251 33.525L32.9484 33.4928L32.9707 33.4533L32.9939 33.389L32.9958 33.3423L32.9855 33.3063L32.9641 33.282L32.79 33.1639L32.763 33.1319L32.7599 33.1015L32.7705 33.0713L32.8273 32.9884L32.8775 32.8961L32.9827 32.6134L32.9995 32.5856L33.0218 32.5708L33.045 32.5672L33.239 32.5916L33.2688 32.5819L33.2679 32.5611L33.2576 32.5353L33.225 32.4801L33.2111 32.4504L33.1962 32.4146L33.1849 32.3687L33.1728 32.3026V32.2554L33.1784 32.2209L33.2399 31.9764L33.2474 31.9128L33.2427 31.8661L33.1204 31.5455L33.1067 31.5002L33.0955 31.429L33.1129 31.387L33.1793 31.3032V31.2716L33.1607 31.2451L33.1299 31.2298L33.0937 31.2242L32.9853 31.2349L32.9248 31.2599L32.8502 31.3213L32.7906 31.3491L32.5668 31.3766L32.5221 31.3252L32.4764 31.2294L32.4137 30.9605L32.3681 30.8549L32.3215 30.7948L32.1108 30.7676L32.0766 30.7721L32.0521 30.7933L32.0335 30.8213L32.0195 30.8559L31.9832 30.9666L31.9683 30.9956L31.9487 31.0139L31.9236 31.0094L31.7408 30.9074L31.67 30.8804L31.4549 30.8516L31.4111 30.8381L31.3671 30.8087L31.2525 30.6091L31.2097 30.5683L31.1715 30.5418L31.0436 30.4864L30.7932 30.4259L30.742 30.3937L30.7184 30.3376L30.6793 30.18L30.6635 30.1371L30.5703 29.9591L30.5712 29.9156L30.5871 29.8863L30.7643 29.7958L30.8313 29.7766L30.944 29.7664L30.984 29.7725L31.0772 29.8203L31.1315 29.8602L31.1781 29.9064L31.3336 30.1094L31.356 30.1203L31.3849 30.1147L31.4156 30.0728L31.4532 30.0605L31.4932 30.0534L32.1903 30.0998L32.2275 30.0947L32.2555 30.0789L32.275 30.0508L32.289 30.0168L32.3021 29.9808L32.3179 29.9487L32.3411 29.9264L32.3719 29.9134L32.6692 29.8738L32.7046 29.8572L32.7353 29.8317L32.7626 29.7749L32.7651 29.7337L32.7539 29.6987L32.7046 29.6128L32.6692 29.5238L32.6357 29.4809L32.5994 29.4527L32.2778 29.3243L32.2443 29.3013L32.2154 29.2657L32.2089 29.2277L32.2136 29.1908L32.2248 29.1548L32.2387 29.1263L32.3999 28.9577L32.4175 28.9282L32.4318 28.8934L32.4436 28.8545L32.4541 28.7941L32.4653 28.4908L32.4486 28.2687L32.4523 28.1133L32.5119 27.9947L32.5845 27.8772L32.645 27.7948L32.7373 27.7031L32.7646 27.6852L32.7953 27.6723L32.8688 27.6618L32.9508 27.6651L33.0737 27.6939L33.1048 27.6955L33.1355 27.685L33.1774 27.6333L33.1998 27.611L33.2277 27.5943L33.4263 27.5266L33.4587 27.5081L33.4915 27.4795L33.4971 27.4479L33.4831 27.4228L33.4474 27.4084L33.3599 27.3852L33.3218 27.3657L33.3237 27.3464L33.345 27.3317L33.5874 27.2726L33.6182 27.2588L33.6471 27.2333L33.6723 27.1963L33.6993 27.1334L33.7067 27.0861L33.703 27.046L33.675 26.975L33.6601 26.9262L33.6443 26.8449L33.6489 26.795L33.662 26.7535L33.6815 26.7219L33.7067 26.692L33.7439 26.6642L33.7834 26.6539L33.8244 26.6565L33.8887 26.6882L34.0023 26.7636L34.1386 26.8249L34.6808 26.9273L34.718 26.9208L34.7487 26.9082L34.8273 26.8491L34.8599 26.8388L34.898 26.8378L34.9371 26.845L34.9697 26.8615L34.9958 26.8821L35.0368 26.9325L35.0685 26.9872L35.088 27.0055L35.115 27.0044L35.1936 26.918L35.2197 26.903L35.2504 26.902L35.2747 26.917L35.2877 26.9463L35.2905 26.9833L35.283 27.0265L35.2635 27.0708L35.2309 27.1253L35.2187 27.1641L35.2225 27.1983L35.2978 27.3034L35.4059 27.5444L35.4245 27.5708L35.449 27.5909L35.4844 27.5991L35.6986 27.6114L35.7367 27.6052L35.7721 27.588L35.7758 27.5615L35.773 27.5318L35.7274 27.3612L35.7255 27.3203L35.7274 27.2735L35.7376 27.2147L35.7395 27.1678L35.7367 27.1215L35.7275 27.084L35.7219 27.0341L35.7442 27.0156L35.7768 27.0043L36.3175 26.959L36.3565 26.9425L36.3965 26.9141L36.4496 26.8552L36.4713 26.8061L36.4807 26.7608L36.4757 26.7232L36.4676 26.6887L36.4114 26.5623L36.4012 26.5193L36.3984 26.4539L36.4105 26.4119L36.43 26.3795L36.664 26.1447L36.718 26.1078L36.7478 26.0954L36.7804 26.0901L36.8139 26.0985L36.8803 26.1256L36.9958 26.1488L37.0247 26.1659L37.047 26.1907L37.0656 26.218L37.0899 26.2401L37.1197 26.2587L37.1963 26.2778L37.2354 26.2788L37.3043 26.2633L37.7683 26.0102L37.8691 25.9276L37.9269 25.8531L37.9986 25.7362L38.0451 25.6748L38.0694 25.6526L38.0983 25.6361L38.1309 25.6263L38.1653 25.6232L38.2001 25.6315L38.2262 25.6501L38.2475 25.6753L38.2848 25.7315L38.3062 25.7563L38.336 25.7733L38.3732 25.777L38.4142 25.7517L38.4375 25.7089L38.4533 25.6419L38.4756 25.6062L38.5036 25.582L38.5802 25.5464L38.6277 25.5076L38.6454 25.4736L38.6399 25.4447L38.6119 25.4261L38.5318 25.4054L38.4962 25.3905L38.4663 25.3688L38.4487 25.3375L38.4431 25.2923L38.4571 25.2618L38.4813 25.2393L38.6715 25.1595L38.7563 25.1094L38.8326 25.0297L38.9019 24.9408L38.9279 24.8855L38.9363 24.8431L38.9121 24.8253L38.8019 24.8048L38.7758 24.7852L38.7311 24.7365L38.704 24.7174L38.6724 24.7068L38.6379 24.7081L38.5383 24.7313L38.5029 24.7241L38.4788 24.7044L38.4375 24.6538L38.4113 24.6336L38.3769 24.6207L38.2577 24.6129L38.2233 24.6026L38.2056 24.585L38.2168 24.5664L38.2401 24.5493L38.3723 24.4795L38.4216 24.4404L38.4439 24.4007L38.4542 24.3583L38.4514 24.321L38.4412 24.292L38.416 24.2832L38.388 24.2899L38.2725 24.3542L38.2409 24.3604L38.2111 24.3542L38.1888 24.319L38.1934 24.29L38.2111 24.2636L38.266 24.2116L38.3451 24.117L38.3554 24.0797L38.3414 24.052L38.2064 23.9839L38.1794 23.9541L38.17 23.8947L38.1887 23.8494L38.2297 23.7871L38.2352 23.7495L38.225 23.7197L38.211 23.6956L38.2036 23.6743L38.2017 23.6536L38.212 23.5042L38.2111 23.2618L38.2008 23.1871L38.1831 23.1196L38.139 23.0306L38.1009 22.9768L38.0841 22.941L38.072 22.9L38.0748 22.8307L38.0785 22.7998L38.0888 22.7671L38.1484 22.6488L38.1707 22.6184L38.1952 22.5958L38.2837 22.5482L38.3321 22.504L38.3917 22.4203L38.5053 22.31L38.554 22.2465L38.5726 22.2002L38.5791 22.1565L38.5763 22.119L38.5699 22.0831L38.5606 22.0493L38.5475 22.0186L38.5299 21.99L38.4805 21.9411L38.4606 21.9104L38.4513 21.8627L38.4615 21.8268L38.4824 21.8005L38.5159 21.7843L38.555 21.7734L38.595 21.7484L38.6108 21.7138L38.6183 21.6735L38.6229 21.3026L38.6108 21.1308L38.622 21.099L38.6452 21.0765L38.771 20.9995L38.8132 20.9575L38.8213 20.9241L38.8082 20.8972L38.783 20.8755L38.7653 20.8484L38.757 20.8134L38.7551 20.6922L38.7421 20.6614L38.7123 20.6426L38.5922 20.6082L38.5614 20.5841L38.5456 20.5591L38.5316 20.4671L38.769 20.2994L38.8454 20.2163L38.8625 20.1831L38.9221 20.0212L38.9491 19.9909L38.9817 19.972L39.0907 19.9563L39.2567 19.9074L39.2828 19.8713L39.3228 19.756L39.3759 19.6565L39.4188 19.6166L39.4616 19.5962L39.5438 19.5951L39.6267 19.6127L39.9772 19.7642L40.0619 19.7753L40.2373 19.7373L40.3257 19.7465L40.8617 19.6622L41.0033 19.6172L41.0294 19.5962L41.048 19.5726L41.0545 19.548L41.0377 19.5271L40.9539 19.4674L40.9372 19.4396L40.9427 19.4003L40.9763 19.3537L41.0135 19.3366L41.0526 19.3351L41.2828 19.4087L41.3145 19.4265L41.3331 19.4532L41.3405 19.4851L41.3293 19.5564L41.3321 19.5876L41.3479 19.6145L41.4262 19.6784L41.4457 19.7041L41.4513 19.7334L41.4354 19.7952L41.4391 19.8271L41.482 19.8486L41.5531 19.8638L41.7868 19.8746L41.8343 19.8942L41.8436 19.9256L41.8337 19.9989L41.8672 20.0334L41.9398 20.0554L42.1149 20.065L42.1968 20.0559L42.2512 20.0355L42.2698 20.0062L42.2838 19.9716L42.2931 19.9335L42.2922 19.8953L42.2866 19.8597L42.2754 19.8276L42.2614 19.797L42.2456 19.7682L42.2214 19.7048L42.213 19.6703L42.1931 19.5226L42.2037 19.4833L42.2316 19.4435L42.4346 19.3196L42.4793 19.2693L42.5128 19.2056L42.524 19.1715L42.5309 19.1422L42.5408 19.1086L42.5616 19.0686L42.6016 19.0174L42.6407 18.9996L42.6845 18.9978L42.7189 19.0127L42.7432 19.0324L42.7497 19.0599L42.7366 19.085L42.6901 19.1239L42.6826 19.1511L42.6956 19.1757L42.9129 19.3038L42.9884 19.3832L43.0377 19.4057L43.075 19.4036L43.1066 19.39L43.1271 19.3628L43.1383 19.3245L43.1514 19.2328L43.1672 19.1825L43.1945 19.1712L43.3379 19.2027L43.4506 19.2071L43.5112 19.1982L43.558 19.1845L43.8477 18.9834L43.8899 18.9759L43.9094 18.9921L43.9011 19.0231L43.8384 19.1583L43.8244 19.1948L43.7927 19.2645L43.7565 19.3258L43.6047 19.5094L43.5861 19.5366L43.5767 19.567L43.5842 19.5973L43.5982 19.6254L43.6196 19.6466L43.6448 19.6599L43.9868 19.7374L44.0902 19.7314L44.2134 19.6756L44.3782 19.5641L44.4015 19.5397L44.4201 19.5119L44.4331 19.4805L44.4387 19.4051L44.4461 19.3658L44.4787 19.3223L44.515 19.3108L44.5503 19.3179L44.5777 19.3384L44.6009 19.362L44.6326 19.4194L44.7294 19.6247L44.7397 19.6409L44.8216 19.7304L44.9253 19.8188L45.0138 19.8644L45.104 19.8863L45.158 19.8869L45.2009 19.8785L45.3855 19.7893L45.4135 19.7704L45.4638 19.7267L45.5094 19.6775L45.528 19.6466L45.5429 19.6115L45.5777 19.4901L45.5916 19.4539L45.6093 19.4225L45.6307 19.3958L45.7108 19.335L45.7303 19.3086L45.7434 19.2787L45.7406 19.2467L45.7257 19.2184L45.6018 19.1017L45.5814 19.0755L45.5708 19.044L45.574 19.0068L45.587 18.9724L45.6242 18.9402L45.6828 18.9121L45.9457 18.8279L45.9755 18.803L45.9951 18.7715L46.0072 18.696L46.0304 18.6542L46.0714 18.6217L46.1794 18.5629L46.2437 18.5424L46.3008 18.5351L46.339 18.5455L46.5727 18.6636L46.8747 18.7195L47.2785 18.7297L47.4042 18.7139L47.4359 18.7005L47.4611 18.6808L47.476 18.6543L47.4797 18.6236L47.4732 18.5916L47.4639 18.5586L47.4657 18.5192L47.4843 18.4783L47.5486 18.4253L47.6122 18.4043L47.6643 18.4017L47.6997 18.4145L47.8571 18.5114L48.0669 18.577L48.187 18.6473L48.2451 18.6935L48.2832 18.7124L48.3419 18.7258L48.3717 18.7108L48.3904 18.6828L48.3894 18.6481L48.3857 18.6132L48.3765 18.5796L48.3532 18.515L48.3467 18.484L48.3523 18.4525L48.384 18.4247L48.4342 18.4011L48.5878 18.3555L48.631 18.3366L48.7641 18.2253L48.8116 18.2084L48.8666 18.2063L48.9991 18.2325L49.0941 18.2283L49.1304 18.2144Z" stroke="#4C86A0" stroke-width="0.5" stroke-linecap="round" stroke-linejoin="round"/>
</svg>
