<svg width="50" height="50" viewBox="0 0 50 50" fill="none" xmlns="http://www.w3.org/2000/svg">
<g clip-path="url(#clip0)">
<path d="M45.8239 0H4.18638C1.88233 0 0 1.88233 0 4.18638V45.8136C0 48.1177 1.88233 50 4.18638 50H45.8136C48.1177 50 50 48.1177 50 45.8136V4.18638C50.0103 1.88233 48.128 0 45.8239 0ZM47.5417 45.8239C47.5417 46.7702 46.7702 47.5417 45.8239 47.5417H4.18638C3.24007 47.5417 2.46863 46.7702 2.46863 45.8239V4.18638C2.46863 3.24007 3.24007 2.46863 4.18638 2.46863H45.8136C46.7599 2.46863 47.5314 3.24007 47.5314 4.18638V45.8239H47.5417Z" fill="white"/>
<path d="M19.8519 30.9196C19.3685 30.4362 18.5868 30.4362 18.1033 30.9196L14.3901 34.6329L10.6769 30.9196C10.1934 30.4362 9.41169 30.4362 8.92825 30.9196C8.44481 31.4031 8.44481 32.1848 8.92825 32.6683L12.6415 36.3815L8.92825 40.0947C8.44481 40.5781 8.44481 41.3599 8.92825 41.8433C9.16483 42.0799 9.48369 42.2033 9.80256 42.2033C10.1214 42.2033 10.43 42.0799 10.6769 41.8433L14.3901 38.1301L18.1033 41.8433C18.3399 42.0799 18.6588 42.2033 18.9776 42.2033C19.2965 42.2033 19.6051 42.0799 19.8519 41.8433C20.3354 41.3599 20.3354 40.5781 19.8519 40.0947L16.1387 36.3815L19.8519 32.6683C20.3354 32.1848 20.3354 31.4031 19.8519 30.9196Z" fill="white"/>
<path d="M20.8804 13.5467H15.6346V8.30084C15.6346 7.62197 15.0791 7.06653 14.4003 7.06653C13.7214 7.06653 13.1659 7.62197 13.1659 8.30084V13.5467H7.9201C7.24123 13.5467 6.68579 14.1021 6.68579 14.781C6.68579 15.4599 7.24123 16.0153 7.9201 16.0153H13.1659V21.2611C13.1659 21.94 13.7214 22.4954 14.4003 22.4954C15.0791 22.4954 15.6346 21.94 15.6346 21.2611V16.0153H20.8804C21.5593 16.0153 22.1147 15.4599 22.1147 14.781C22.1147 14.1021 21.5593 13.5467 20.8804 13.5467Z" fill="white"/>
<path d="M41.5451 38.1712H30.4877C29.8089 38.1712 29.2534 38.7266 29.2534 39.4055C29.2534 40.0844 29.8089 40.6398 30.4877 40.6398H41.5348C42.2137 40.6398 42.7692 40.0844 42.7692 39.4055C42.7692 38.7266 42.224 38.1712 41.5451 38.1712Z" fill="white"/>
<path d="M41.5451 32.1128H30.4877C29.8089 32.1128 29.2534 32.6682 29.2534 33.3471C29.2534 34.026 29.8089 34.5814 30.4877 34.5814H41.5348C42.2137 34.5814 42.7692 34.026 42.7692 33.3471C42.7692 32.6682 42.224 32.1128 41.5451 32.1128Z" fill="white"/>
<path d="M40.5881 16.0153C41.267 16.0153 41.8224 15.4598 41.8224 14.7809C41.8224 14.1021 41.267 13.5466 40.5881 13.5466H29.5307C28.8518 13.5466 28.2964 14.1021 28.2964 14.7809C28.2964 15.4598 28.8518 16.0153 29.5307 16.0153H40.5881Z" fill="white"/>
</g>
<defs>
<clipPath id="clip0">
<rect width="50" height="50" fill="white"/>
</clipPath>
</defs>
</svg>
