<svg width="15" height="15" viewBox="0 0 15 15" fill="none" xmlns="http://www.w3.org/2000/svg">
<g clip-path="url(#clip0)">
<path d="M11.8548 9.29201C11.5477 8.97226 11.1773 8.8013 10.7847 8.8013C10.3953 8.8013 10.0218 8.96909 9.70202 9.28885L8.70161 10.2861C8.6193 10.2418 8.53699 10.2006 8.45784 10.1595C8.34387 10.1025 8.23623 10.0486 8.14442 9.99166C7.20733 9.39648 6.35572 8.62085 5.53893 7.61727C5.1432 7.11707 4.87726 6.69601 4.68415 6.26862C4.94375 6.03118 5.18435 5.78425 5.41863 5.54681C5.50727 5.45816 5.59591 5.36635 5.68456 5.27771C6.34939 4.61288 6.34939 3.75177 5.68456 3.08694L4.82028 2.22266C4.72214 2.12452 4.62083 2.02321 4.52586 1.9219C4.3359 1.72562 4.13646 1.52301 3.93068 1.33306C3.62359 1.02913 3.25635 0.867676 2.87011 0.867676C2.48388 0.867676 2.11031 1.02913 1.79372 1.33306C1.79056 1.33622 1.79056 1.33622 1.78739 1.33939L0.711003 2.42528C0.305774 2.8305 0.074667 3.32438 0.0240133 3.8974C-0.0519671 4.82183 0.220296 5.68294 0.429242 6.24646C0.942111 7.62994 1.70825 8.91211 2.85112 10.2861C4.23776 11.9418 5.90617 13.2493 7.81201 14.1706C8.54016 14.5157 9.51207 14.9241 10.598 14.9937C10.6644 14.9969 10.7341 15 10.7974 15C11.5287 15 12.1429 14.7373 12.6241 14.2149C12.6273 14.2086 12.6336 14.2054 12.6368 14.1991C12.8014 13.9996 12.9913 13.8192 13.1908 13.6261C13.3269 13.4963 13.4662 13.3601 13.6024 13.2177C13.9158 12.8916 14.0804 12.5117 14.0804 12.1223C14.0804 11.7297 13.9126 11.353 13.5929 11.0364L11.8548 9.29201ZM12.9882 12.6257C12.985 12.6257 12.985 12.6288 12.9882 12.6257C12.8647 12.7586 12.7381 12.8789 12.6019 13.0119C12.3962 13.2082 12.1872 13.414 11.9909 13.6451C11.6712 13.987 11.2944 14.1484 10.8006 14.1484C10.7531 14.1484 10.7024 14.1484 10.6549 14.1453C9.71469 14.0851 8.84091 13.7179 8.18558 13.4045C6.39371 12.537 4.82028 11.3055 3.51278 9.74473C2.43323 8.44356 1.71141 7.24054 1.23337 5.94887C0.938945 5.16057 0.831306 4.5464 0.878793 3.96705C0.910452 3.59664 1.05292 3.28955 1.31568 3.02679L2.39524 1.94723C2.55036 1.8016 2.71499 1.72246 2.87645 1.72246C3.0759 1.72246 3.23735 1.84276 3.33866 1.94407C3.34183 1.94723 3.34499 1.9504 3.34816 1.95356C3.54128 2.13402 3.72489 2.3208 3.91801 2.52025C4.01615 2.62156 4.11746 2.72287 4.21877 2.82734L5.08305 3.69162C5.41863 4.0272 5.41863 4.33745 5.08305 4.67303C4.99124 4.76484 4.90259 4.85665 4.81078 4.94529C4.54485 5.21756 4.29158 5.47083 4.01615 5.71776C4.00982 5.72409 4.00349 5.72726 4.00032 5.73359C3.72806 6.00586 3.77871 6.27179 3.8357 6.45224C3.83887 6.46174 3.84203 6.47124 3.8452 6.48073C4.06997 7.02526 4.38656 7.53813 4.86777 8.14914L4.87093 8.1523C5.74471 9.22869 6.66597 10.0676 7.68221 10.7103C7.81201 10.7926 7.94498 10.8591 8.07161 10.9224C8.18558 10.9794 8.29322 11.0332 8.38503 11.0902C8.39769 11.0965 8.41036 11.106 8.42302 11.1124C8.53066 11.1662 8.63197 11.1915 8.73644 11.1915C8.9992 11.1915 9.16383 11.0269 9.21765 10.9731L10.3004 9.89036C10.408 9.78272 10.579 9.65292 10.7784 9.65292C10.9747 9.65292 11.1362 9.77639 11.2343 9.88402C11.2375 9.88719 11.2375 9.88719 11.2406 9.89036L12.985 11.6347C13.3111 11.9577 13.3111 12.2901 12.9882 12.6257Z" fill="#4C86A0"/>
<path d="M8.10643 3.56818C8.93589 3.70747 9.68936 4.10004 10.2909 4.70155C10.8924 5.30306 11.2818 6.05653 11.4242 6.88599C11.4591 7.09493 11.6395 7.24056 11.8453 7.24056C11.8706 7.24056 11.8928 7.2374 11.9181 7.23423C12.1524 7.19624 12.3075 6.97463 12.2695 6.74036C12.0986 5.73678 11.6237 4.82185 10.8987 4.09687C10.1737 3.37189 9.2588 2.89701 8.25523 2.72606C8.02096 2.68807 7.80251 2.8432 7.76136 3.0743C7.7202 3.30541 7.87216 3.53019 8.10643 3.56818Z" fill="#4C86A0"/>
<path d="M14.9827 6.61682C14.7009 4.96424 13.9221 3.46046 12.7255 2.26377C11.5288 1.06708 10.025 0.288277 8.3724 0.00651579C8.1413 -0.0346403 7.92285 0.123652 7.8817 0.35476C7.8437 0.589033 7.99883 0.807477 8.23311 0.848633C9.70839 1.09873 11.0539 1.79839 12.1239 2.86528C13.194 3.93534 13.8905 5.28083 14.1406 6.75611C14.1754 6.96506 14.3559 7.11069 14.5616 7.11069C14.587 7.11069 14.6091 7.10752 14.6345 7.10436C14.8656 7.06953 15.0239 6.84792 14.9827 6.61682Z" fill="#4C86A0"/>
</g>
<defs>
<clipPath id="clip0">
<rect width="15" height="15" fill="white"/>
</clipPath>
</defs>
</svg>
