<svg width="22" height="22" viewBox="0 0 22 22" fill="none" xmlns="http://www.w3.org/2000/svg">
<path d="M12.3012 14.5017L12.3019 14.5021C12.3372 14.5204 12.3733 14.5389 12.4098 14.5576C12.4708 14.5889 12.5331 14.6208 12.5953 14.6538L13.9049 13.3503L13.9049 13.3503M12.3012 14.5017L16.8147 13.3899C16.4047 12.9636 15.9101 12.7357 15.3859 12.7357C14.866 12.7357 14.3672 12.9594 13.9402 13.3857L13.9049 13.3503M12.3012 14.5017C12.1486 14.4255 12.0072 14.3549 11.887 14.2804C10.6411 13.4902 9.50796 12.4601 8.42031 11.1258C7.90399 10.4741 7.55497 9.92513 7.30053 9.37133C7.60462 9.09201 7.8894 8.80347 8.16542 8.52379C8.19576 8.49304 8.226 8.4624 8.25615 8.43189C8.31542 8.37271 8.37467 8.3125 8.43373 8.25247L8.43387 8.25233L8.43389 8.25231C8.49309 8.19214 8.55211 8.13216 8.6111 8.07326C9.06275 7.6223 9.29157 7.10146 9.29157 6.57745C9.29157 6.05345 9.06275 5.53261 8.6111 5.08165L7.45706 3.92935C7.32591 3.7984 7.19121 3.66391 7.06504 3.52953L7.06505 3.52952L7.06449 3.52895C6.81093 3.26734 6.54402 2.99658 6.26838 2.74249C5.85033 2.32965 5.34798 2.1082 4.81772 2.1082C4.28733 2.1082 3.77653 2.32975 3.34585 2.74258L3.34584 2.74257L3.34512 2.74329L3.34089 2.74751L3.33666 2.75173L3.33651 2.75189L1.89939 4.19949C1.89937 4.19951 1.89935 4.19952 1.89933 4.19954C1.34997 4.74809 1.03626 5.41749 0.967588 6.19317L0.967563 6.19347C0.865171 7.43735 1.23204 8.594 1.51161 9.34686C2.19875 11.1976 3.22496 12.9119 4.75394 14.7473L4.75405 14.7474C6.61004 16.9602 8.84343 18.7079 11.3948 19.9393L11.3951 19.9395C12.3686 20.4001 13.6735 20.9481 15.1333 21.0416L15.1341 21.0417C15.2228 21.0459 15.3169 21.0502 15.4028 21.0502C16.3927 21.0502 17.2263 20.6944 17.8787 19.9873L17.8802 19.9887L17.8852 19.9788C17.8853 19.9786 17.8855 19.9784 17.8858 19.9782L17.8863 19.9777C17.8887 19.9753 17.8947 19.9694 17.9 19.9611C18.101 19.7183 18.3307 19.4966 18.5749 19.2608C18.5943 19.2421 18.6137 19.2233 18.6333 19.2044C18.8153 19.0311 19.0019 18.8491 19.1843 18.6584C19.6103 18.2159 19.8365 17.6974 19.8365 17.1634C19.8365 16.6248 19.6057 16.1102 19.1707 15.6801L16.8508 13.3553C16.8507 13.3552 16.8506 13.3551 16.8505 13.3549M12.3012 14.5017L16.8505 13.3549M13.9049 13.3503C14.3397 12.9162 14.8507 12.6857 15.3859 12.6857C15.9255 12.6857 16.4325 12.9205 16.8505 13.3549M13.9049 13.3503L16.8505 13.3549M18.36 17.8006C18.3499 17.8117 18.3394 17.8227 18.3288 17.8338L18.3281 17.8332V17.7865C18.3318 17.7867 18.3358 17.7873 18.34 17.7886C18.3467 17.7907 18.3538 17.7945 18.36 17.8006ZM18.2854 17.8053C18.2843 17.8067 18.2829 17.8087 18.2815 17.8112C18.1503 17.9516 18.0163 18.0816 17.8742 18.2196C17.8425 18.2504 17.8103 18.2816 17.7777 18.3134C17.503 18.5751 17.2228 18.8506 16.9592 19.1603C16.5423 19.605 16.0529 19.8147 15.4071 19.8147C15.3433 19.8147 15.2774 19.8147 15.2159 19.8106L15.2158 19.8106C13.9703 19.7311 12.8108 19.2451 11.9369 18.8277C9.5509 17.6744 7.45564 16.037 5.71429 13.9615C4.27563 12.2302 3.31507 10.6311 2.6791 8.91532L2.67905 8.91518C2.28751 7.86845 2.14599 7.05728 2.20859 6.29461C2.24987 5.81254 2.43498 5.41417 2.77745 5.07222L4.21839 3.63347C4.41962 3.44503 4.62761 3.34784 4.82618 3.34784C5.07246 3.34784 5.27588 3.49673 5.40803 3.62868L5.44336 3.5933L5.40803 3.62868L5.41437 3.63501L5.42071 3.64135L5.42069 3.64137L5.42193 3.64252C5.67883 3.88221 5.92329 4.13049 6.18106 4.3963L6.18107 4.39631C6.24675 4.46402 6.31347 4.53169 6.38056 4.59973L6.38215 4.60135C6.44876 4.6689 6.51573 4.73682 6.58268 4.80576L6.58267 4.80576L6.58322 4.8063L7.73726 5.9586C7.95656 6.17756 8.05866 6.38083 8.05866 6.57745C8.05866 6.77407 7.95656 6.97734 7.73726 7.19631C7.69579 7.23771 7.65503 7.27889 7.61454 7.31979C7.53448 7.40066 7.45551 7.48043 7.37434 7.55868L7.37433 7.55867L7.3733 7.55972C7.01841 7.92251 6.68115 8.25923 6.31465 8.58732L6.3146 8.58726L6.31267 8.58919C6.31131 8.59055 6.31068 8.59105 6.30928 8.59218C6.30812 8.59312 6.30642 8.59449 6.30333 8.59714C6.29946 8.60046 6.29312 8.60611 6.28737 8.61447C6.10106 8.80211 6.02267 8.99027 6.00242 9.16489C5.98218 9.33945 6.02059 9.49627 6.05937 9.61889L6.05936 9.61889L6.05962 9.61965L6.06596 9.63864L6.0723 9.65764L6.07218 9.65767L6.07352 9.66091C6.37592 10.3924 6.80144 11.0801 7.44588 11.8972L7.4456 11.8974L7.44981 11.9016L7.4522 11.904C8.62135 13.3417 9.85493 14.4634 11.2165 15.3232C11.3919 15.4342 11.5714 15.5238 11.7399 15.6079L11.7408 15.6084C11.8935 15.6847 12.0351 15.7554 12.1553 15.8299L12.1552 15.8301L12.1593 15.8321C12.1653 15.8351 12.1717 15.839 12.1805 15.8446L12.1813 15.8451C12.1892 15.85 12.1994 15.8564 12.21 15.8617C12.3598 15.9364 12.5026 15.9725 12.6509 15.9725C13.0224 15.9725 13.2547 15.7405 13.3281 15.6672L13.3288 15.6666L14.7745 14.2231C14.916 14.0818 15.1319 13.9211 15.3775 13.9211C15.6188 13.9211 15.8219 14.0735 15.9493 14.213L15.9492 14.213L15.9509 14.2146L15.9593 14.2231L15.9593 14.2231L18.2886 16.5488L18.2887 16.5489C18.5007 16.7585 18.6005 16.9649 18.601 17.1677C18.6015 17.3687 18.5044 17.5773 18.2985 17.7932C18.2942 17.796 18.2895 17.7999 18.2854 17.8053Z" fill="#243746" stroke="#243746" stroke-width="0.1"/>
<path d="M16.9054 10.6946L16.9054 10.6946L16.9072 10.6943C17.248 10.6392 17.4729 10.3174 17.4178 9.97851L17.4178 9.97811C17.1877 8.62977 16.5487 7.40054 15.5734 6.42671C14.5981 5.45289 13.367 4.81485 12.0167 4.58517L12.0167 4.58517L12.0163 4.5851C11.6767 4.53012 11.3594 4.75475 11.2996 5.08998C11.2399 5.4245 11.4601 5.7512 11.8015 5.80655C12.8985 5.99053 13.8951 6.50892 14.6911 7.30366C15.4869 8.09831 16.002 9.09344 16.1905 10.189C16.2412 10.4925 16.5037 10.7034 16.802 10.7034C16.8357 10.7034 16.8659 10.6996 16.8953 10.6959C16.8987 10.6954 16.902 10.695 16.9054 10.6946Z" fill="#243746" stroke="#243746" stroke-width="0.1"/>
<path d="M11.4604 1.4642L11.4604 1.4642L11.4602 1.46497C11.4051 1.8044 11.6305 2.1211 11.9702 2.18069L11.9705 2.18074C13.93 2.51243 15.7172 3.4403 17.1389 4.85557C18.5604 6.27495 19.4854 8.05939 19.8176 10.0159C19.8683 10.3194 20.1308 10.5303 20.4291 10.5303C20.4629 10.5303 20.493 10.5265 20.5224 10.5228C20.5258 10.5223 20.5292 10.5219 20.5326 10.5215L20.5326 10.5215L20.5338 10.5213C20.8703 10.4707 21.1003 10.149 21.0407 9.81345C20.6627 7.59985 19.6178 5.58554 18.0127 3.98278C16.4075 2.38008 14.3902 1.33686 12.1734 0.959427C11.8367 0.899668 11.52 1.12993 11.4604 1.4642Z" fill="#243746" stroke="#243746" stroke-width="0.1"/>
</svg>
