<svg width="100" height="100" viewBox="0 0 100 100" fill="none" xmlns="http://www.w3.org/2000/svg">
<circle cx="50" cy="50" r="50" fill="white"/>
<g clip-path="url(#clip0)">
<path d="M73.3457 45.2304L43.8144 27.0268C41.6779 25.7115 39.0948 25.6568 36.9045 26.8805C34.7141 28.104 33.4065 30.3326 33.4065 32.8415V69.083C33.4065 72.8766 36.4631 75.9794 40.22 75.9999C40.2302 75.9999 40.2405 76 40.2506 76C41.4246 75.9999 42.648 75.6319 43.7907 74.9347C44.7099 74.3738 45.0005 73.174 44.4396 72.2549C43.8788 71.3355 42.6788 71.0451 41.7598 71.606C41.2254 71.9319 40.7034 72.1006 40.241 72.1005C38.8235 72.0928 37.3058 70.8785 37.3058 69.0831V32.8416C37.3058 31.7654 37.8668 30.8096 38.8062 30.2847C39.7458 29.7598 40.8537 29.7832 41.769 30.3468L71.3004 48.5504C72.188 49.0969 72.6959 50.0082 72.6938 51.0506C72.6916 52.0928 72.18 53.002 71.2875 53.5466L49.9362 66.6197C49.0179 67.182 48.7292 68.3823 49.2915 69.3006C49.8537 70.2189 51.054 70.5076 51.9724 69.9453L73.3211 56.8738C75.3652 55.6268 76.5884 53.453 76.5933 51.0584C76.5982 48.664 75.3837 46.4851 73.3457 45.2304Z" fill="#4C86A0"/>
</g>
<defs>
<clipPath id="clip0">
<rect width="50" height="50" fill="white" transform="translate(30 26)"/>
</clipPath>
</defs>
</svg>
