<svg width="20" height="20" viewBox="0 0 20 20" fill="none" xmlns="http://www.w3.org/2000/svg">
<g clip-path="url(#clip0)">
<path d="M19.8102 18.9118L14.6466 13.8306C15.9988 12.3615 16.8296 10.4186 16.8296 8.28056C16.8289 3.70697 13.0618 -0.00012207 8.41447 -0.00012207C3.76713 -0.00012207 0 3.70697 0 8.28056C0 12.8541 3.76713 16.5612 8.41447 16.5612C10.4224 16.5612 12.2641 15.8667 13.7107 14.7121L18.8944 19.8132C19.147 20.0621 19.5571 20.0621 19.8096 19.8132C20.0628 19.5645 20.0628 19.1606 19.8102 18.9118ZM8.41447 15.2872C4.48231 15.2872 1.29468 12.1502 1.29468 8.28056C1.29468 4.41088 4.48231 1.27391 8.41447 1.27391C12.3467 1.27391 15.5343 4.41088 15.5343 8.28056C15.5343 12.1502 12.3467 15.2872 8.41447 15.2872Z" fill="white"/>
</g>
<defs>
<clipPath id="clip0">
<rect width="20" height="20" fill="white" transform="translate(0 -0.00012207)"/>
</clipPath>
</defs>
</svg>
