<svg width="32" height="33" viewBox="0 0 32 33" fill="none" xmlns="http://www.w3.org/2000/svg">
<path d="M19.2402 14.103L14.9512 18.3687L13.4512 16.8569C13.1699 16.5757 12.7187 16.5757 12.4375 16.8569C12.1563 17.1382 12.1563 17.5894 12.4375 17.8706L14.4414 19.8862C14.582 20.0269 14.7637 20.0972 14.9512 20.0972C15.1328 20.0972 15.3145 20.0269 15.4551 19.8862L20.2539 15.1167C20.5352 14.8355 20.5352 14.3843 20.2539 14.103C19.9785 13.8276 19.5215 13.8218 19.2402 14.103Z" fill="#4C86A0" stroke="#4C86A0"/>
<path d="M28.6914 18.9897V8.23193C28.6914 7.94482 28.5156 7.68115 28.252 7.56982L16.6211 2.71826C16.4453 2.64209 16.2461 2.64209 16.0703 2.71826L4.43945 7.56982C4.16992 7.68115 4 7.94482 4 8.23193V18.9897C4 25.7983 9.53711 31.3354 16.3457 31.3354C23.1543 31.3354 28.6914 25.7925 28.6914 18.9897ZM16.3457 29.8999C10.3281 29.8999 5.43555 25.0073 5.43555 18.9897V8.7124L16.3457 4.15967L27.2559 8.7124V18.9897C27.2559 25.0015 22.3633 29.8999 16.3457 29.8999Z" fill="#4C86A0" stroke="#4C86A0"/>
</svg>
