<svg width="15" height="15" viewBox="0 0 15 15" fill="none" xmlns="http://www.w3.org/2000/svg">
<path fill-rule="evenodd" clip-rule="evenodd" d="M15 7.5C15 11.6421 11.6421 15 7.5 15C3.35786 15 0 11.6421 0 7.5C0 3.35786 3.35786 0 7.5 0C11.6421 0 15 3.35786 15 7.5ZM7.76864 5.53683C7.03915 5.84025 5.58121 6.46825 3.39481 7.42083C3.03977 7.56201 2.85378 7.70013 2.83685 7.83519C2.80824 8.06344 3.09407 8.15331 3.48329 8.2757C3.53624 8.29235 3.59109 8.3096 3.64733 8.32788C4.03027 8.45236 4.54539 8.59799 4.81318 8.60377C5.05609 8.60902 5.3272 8.50887 5.62652 8.30334C7.66935 6.92438 8.72386 6.22738 8.79007 6.21236C8.83677 6.20175 8.9015 6.18843 8.94535 6.2274C8.9892 6.26638 8.98489 6.3402 8.98025 6.36C8.95193 6.48071 7.82995 7.52381 7.24932 8.06361C7.06832 8.23189 6.93992 8.35126 6.91367 8.37852C6.85488 8.43959 6.79495 8.49736 6.73736 8.55288C6.3816 8.89583 6.11482 9.15301 6.75213 9.57299C7.05839 9.77482 7.30347 9.94171 7.54796 10.1082C7.81498 10.29 8.0813 10.4714 8.42588 10.6973C8.51367 10.7548 8.59752 10.8146 8.67918 10.8728C8.98992 11.0944 9.26909 11.2934 9.61399 11.2616C9.8144 11.2432 10.0214 11.0548 10.1265 10.4927C10.375 9.16446 10.8634 6.28653 10.9763 5.10061C10.9861 4.99671 10.9737 4.86373 10.9637 4.80536C10.9537 4.74699 10.9329 4.66382 10.857 4.60225C10.7671 4.52934 10.6284 4.51396 10.5664 4.51505C10.2843 4.52002 9.85147 4.67051 7.76864 5.53683Z" fill="#4C86A0"/>
</svg>
