<svg width="15" height="15" viewBox="0 0 15 15" fill="none" xmlns="http://www.w3.org/2000/svg">
<g clip-path="url(#clip0)">
<path d="M12.4469 8.1425C12.2044 7.83625 12.2738 7.7 12.4469 7.42625C12.45 7.42313 14.4519 4.65688 14.6581 3.71875L14.6594 3.71812C14.7619 3.37625 14.6594 3.125 14.1638 3.125H12.5238C12.1062 3.125 11.9137 3.34062 11.8106 3.58187C11.8106 3.58187 10.9756 5.58063 9.79437 6.87625C9.41313 7.25063 9.23688 7.37063 9.02875 7.37063C8.92625 7.37063 8.76688 7.25063 8.76688 6.90875V3.71812C8.76688 3.30812 8.65 3.125 8.30437 3.125H5.72563C5.46375 3.125 5.30813 3.31625 5.30813 3.49438C5.30813 3.88313 5.89875 3.9725 5.96 5.06625V7.43938C5.96 7.95938 5.86562 8.055 5.65625 8.055C5.09875 8.055 3.74563 6.04813 2.94375 3.75125C2.78188 3.30562 2.62375 3.12562 2.20312 3.12562H0.5625C0.094375 3.12562 0 3.34125 0 3.5825C0 4.00875 0.5575 6.12813 2.5925 8.92813C3.94875 10.8394 5.85875 11.875 7.59625 11.875C8.64062 11.875 8.76813 11.645 8.76813 11.2494C8.76813 9.42313 8.67375 9.25063 9.19687 9.25063C9.43937 9.25063 9.85687 9.37063 10.8319 10.2925C11.9462 11.3856 12.1294 11.875 12.7531 11.875H14.3931C14.8606 11.875 15.0975 11.645 14.9613 11.1913C14.6494 10.2369 12.5419 8.27375 12.4469 8.1425Z" fill="white" fill-opacity="0.75"/>
</g>
<defs>
<clipPath id="clip0">
<rect width="15" height="15" fill="white"/>
</clipPath>
</defs>
</svg>
