<svg width="20" height="20" viewBox="0 0 20 20" fill="none" xmlns="http://www.w3.org/2000/svg">
<path d="M19.2179 5.50996C19.6493 5.50996 19.999 5.16025 19.999 4.72883V3.90864C19.999 1.75341 18.2456 0 16.0904 0C16.0904 0 3.84577 0.00183566 3.81558 0.00538982C2.78492 0.0414001 1.79487 0.483678 1.08122 1.23146C0.349731 1.99791 -0.0316188 2.99479 0.00427426 4.04366C0.0027901 4.06354 0.00200897 15.3102 0.00200897 15.3102C0.00200897 17.8962 2.10584 20 4.69178 20H16.0904C18.2456 20 19.999 18.2466 19.999 16.0914V10.1607C19.999 8.00545 18.2456 6.25204 16.0904 6.25204H3.90764C2.65349 6.25204 1.62528 5.2718 1.56682 4.02042C1.53709 3.38411 1.766 2.7767 2.21133 2.31005C2.6631 1.83668 3.29757 1.56524 3.95201 1.56524C3.97509 1.56524 16.0903 1.56227 16.0903 1.56227C17.3841 1.56227 18.4367 2.61485 18.4367 3.90864V4.72883C18.4368 5.16025 18.7865 5.50996 19.2179 5.50996ZM3.90764 7.81431H16.0904C17.3842 7.81431 18.4367 8.86689 18.4367 10.1607V16.0914C18.4367 17.3852 17.3842 18.4377 16.0904 18.4377H4.69178C2.96727 18.4377 1.56428 17.0347 1.56428 15.3102V7.03634C2.21762 7.52572 3.02941 7.81431 3.90764 7.81431ZM16.8745 13.126C16.8745 13.6653 16.4373 14.1024 15.8981 14.1024C14.6029 14.051 14.6032 12.2008 15.8981 12.1496C16.4373 12.1496 16.8745 12.5868 16.8745 13.126ZM16.8745 3.90864C16.8745 3.47722 16.5248 3.1275 16.0934 3.1275H3.90768C2.87127 3.16875 2.87205 4.64888 3.90768 4.68977H16.0934C16.5247 4.68977 16.8745 4.34006 16.8745 3.90864Z" fill="#4C86A0"/>
</svg>
